%TF.GenerationSoftware,KiCad,Pcbnew,8.0.7*%
%TF.CreationDate,2025-04-06T16:58:41-05:00*%
%TF.ProjectId,inputs,696e7075-7473-42e6-9b69-6361645f7063,rev?*%
%TF.SameCoordinates,Original*%
%TF.FileFunction,Legend,Bot*%
%TF.FilePolarity,Positive*%
%FSLAX46Y46*%
G04 Gerber Fmt 4.6, Leading zero omitted, Abs format (unit mm)*
G04 Created by KiCad (PCBNEW 8.0.7) date 2025-04-06 16:58:41*
%MOMM*%
%LPD*%
G01*
G04 APERTURE LIST*
G04 Aperture macros list*
%AMRoundRect*
0 Rectangle with rounded corners*
0 $1 Rounding radius*
0 $2 $3 $4 $5 $6 $7 $8 $9 X,Y pos of 4 corners*
0 Add a 4 corners polygon primitive as box body*
4,1,4,$2,$3,$4,$5,$6,$7,$8,$9,$2,$3,0*
0 Add four circle primitives for the rounded corners*
1,1,$1+$1,$2,$3*
1,1,$1+$1,$4,$5*
1,1,$1+$1,$6,$7*
1,1,$1+$1,$8,$9*
0 Add four rect primitives between the rounded corners*
20,1,$1+$1,$2,$3,$4,$5,0*
20,1,$1+$1,$4,$5,$6,$7,0*
20,1,$1+$1,$6,$7,$8,$9,0*
20,1,$1+$1,$8,$9,$2,$3,0*%
G04 Aperture macros list end*
%ADD10C,0.508000*%
%ADD11R,1.600000X1.600000*%
%ADD12O,1.600000X1.600000*%
%ADD13RoundRect,0.102000X-0.685000X-0.685000X0.685000X-0.685000X0.685000X0.685000X-0.685000X0.685000X0*%
%ADD14C,1.574000*%
%ADD15R,1.700000X1.700000*%
%ADD16O,1.700000X1.700000*%
%ADD17C,1.900000*%
G04 APERTURE END LIST*
D10*
%TO.C,J5*%
X128330904Y-61199999D02*
G75*
G02*
X127568904Y-61199999I-381000J0D01*
G01*
X127568904Y-61199999D02*
G75*
G02*
X128330904Y-61199999I381000J0D01*
G01*
%TO.C,J6*%
X184026000Y-61128799D02*
G75*
G02*
X183264000Y-61128799I-381000J0D01*
G01*
X183264000Y-61128799D02*
G75*
G02*
X184026000Y-61128799I381000J0D01*
G01*
%TD*%
%LPC*%
D11*
%TO.C,U13*%
X214863076Y-77742500D03*
D12*
X212323076Y-77742500D03*
X212323076Y-85362500D03*
X214863076Y-85362500D03*
%TD*%
D11*
%TO.C,U6*%
X161859615Y-77742500D03*
D12*
X159319615Y-77742500D03*
X159319615Y-85362500D03*
X161859615Y-85362500D03*
%TD*%
D11*
%TO.C,U14*%
X222435000Y-77742500D03*
D12*
X219895000Y-77742500D03*
X219895000Y-85362500D03*
X222435000Y-85362500D03*
%TD*%
D13*
%TO.C,J4*%
X211050000Y-99000000D03*
D14*
X205970000Y-99000000D03*
X200890000Y-99000000D03*
X195810000Y-99000000D03*
X190730000Y-99000000D03*
X185650000Y-99000000D03*
X180570000Y-99000000D03*
X175490000Y-99000000D03*
X170410000Y-99000000D03*
X165330000Y-99000000D03*
X160250000Y-99000000D03*
X155170000Y-99000000D03*
X150090000Y-99000000D03*
X145010000Y-99000000D03*
X139930000Y-99000000D03*
X134850000Y-99000000D03*
X129770000Y-99000000D03*
%TD*%
D11*
%TO.C,U9*%
X184575384Y-77742500D03*
D12*
X182035384Y-77742500D03*
X182035384Y-85362500D03*
X184575384Y-85362500D03*
%TD*%
D11*
%TO.C,U10*%
X192147307Y-77742500D03*
D12*
X189607307Y-77742500D03*
X189607307Y-85362500D03*
X192147307Y-85362500D03*
%TD*%
D11*
%TO.C,U12*%
X207291153Y-77742500D03*
D12*
X204751153Y-77742500D03*
X204751153Y-85362500D03*
X207291153Y-85362500D03*
%TD*%
D15*
%TO.C,J2*%
X219500000Y-104000000D03*
D16*
X222040000Y-104000000D03*
X224580000Y-104000000D03*
%TD*%
D15*
%TO.C,J1*%
X124580000Y-104000000D03*
D16*
X122040000Y-104000000D03*
X119500000Y-104000000D03*
%TD*%
D17*
%TO.C,J5*%
X156804904Y-61180799D03*
X156804904Y-56180799D03*
X153304903Y-61180799D03*
X153304903Y-56180799D03*
X149804902Y-61180799D03*
X149804902Y-56180799D03*
X146304902Y-61180799D03*
X146304902Y-56180799D03*
X142804901Y-61180799D03*
X142804901Y-56180799D03*
X139304901Y-61180799D03*
X139304901Y-56180799D03*
X135804900Y-61180799D03*
X135804900Y-56180799D03*
X132304899Y-61180799D03*
X132304899Y-56180799D03*
%TD*%
D11*
%TO.C,U7*%
X169431538Y-77742500D03*
D12*
X166891538Y-77742500D03*
X166891538Y-85362500D03*
X169431538Y-85362500D03*
%TD*%
D11*
%TO.C,U8*%
X177003461Y-77742500D03*
D12*
X174463461Y-77742500D03*
X174463461Y-85362500D03*
X177003461Y-85362500D03*
%TD*%
D11*
%TO.C,U11*%
X199719230Y-77742500D03*
D12*
X197179230Y-77742500D03*
X197179230Y-85362500D03*
X199719230Y-85362500D03*
%TD*%
D11*
%TO.C,U5*%
X154287692Y-77742500D03*
D12*
X151747692Y-77742500D03*
X151747692Y-85362500D03*
X154287692Y-85362500D03*
%TD*%
D11*
%TO.C,U1*%
X124000000Y-77742500D03*
D12*
X121460000Y-77742500D03*
X121460000Y-85362500D03*
X124000000Y-85362500D03*
%TD*%
D11*
%TO.C,U3*%
X139143846Y-77742500D03*
D12*
X136603846Y-77742500D03*
X136603846Y-85362500D03*
X139143846Y-85362500D03*
%TD*%
D11*
%TO.C,U2*%
X131571923Y-77742500D03*
D12*
X129031923Y-77742500D03*
X129031923Y-85362500D03*
X131571923Y-85362500D03*
%TD*%
D11*
%TO.C,U4*%
X146715769Y-77742500D03*
D12*
X144175769Y-77742500D03*
X144175769Y-85362500D03*
X146715769Y-85362500D03*
%TD*%
D17*
%TO.C,J6*%
X212500000Y-61150399D03*
X212500000Y-56150399D03*
X208999999Y-61150399D03*
X208999999Y-56150399D03*
X205499998Y-61150399D03*
X205499998Y-56150399D03*
X201999998Y-61150399D03*
X201999998Y-56150399D03*
X198499997Y-61150399D03*
X198499997Y-56150399D03*
X194999997Y-61150399D03*
X194999997Y-56150399D03*
X191499996Y-61150399D03*
X191499996Y-56150399D03*
X187999995Y-61150399D03*
X187999995Y-56150399D03*
%TD*%
%LPD*%
M02*
