%TF.GenerationSoftware,KiCad,Pcbnew,8.0.7*%
%TF.CreationDate,2025-04-06T16:58:41-05:00*%
%TF.ProjectId,inputs,696e7075-7473-42e6-9b69-6361645f7063,rev?*%
%TF.SameCoordinates,Original*%
%TF.FileFunction,Copper,L1,Top*%
%TF.FilePolarity,Positive*%
%FSLAX46Y46*%
G04 Gerber Fmt 4.6, Leading zero omitted, Abs format (unit mm)*
G04 Created by KiCad (PCBNEW 8.0.7) date 2025-04-06 16:58:41*
%MOMM*%
%LPD*%
G01*
G04 APERTURE LIST*
G04 Aperture macros list*
%AMRoundRect*
0 Rectangle with rounded corners*
0 $1 Rounding radius*
0 $2 $3 $4 $5 $6 $7 $8 $9 X,Y pos of 4 corners*
0 Add a 4 corners polygon primitive as box body*
4,1,4,$2,$3,$4,$5,$6,$7,$8,$9,$2,$3,0*
0 Add four circle primitives for the rounded corners*
1,1,$1+$1,$2,$3*
1,1,$1+$1,$4,$5*
1,1,$1+$1,$6,$7*
1,1,$1+$1,$8,$9*
0 Add four rect primitives between the rounded corners*
20,1,$1+$1,$2,$3,$4,$5,0*
20,1,$1+$1,$4,$5,$6,$7,0*
20,1,$1+$1,$6,$7,$8,$9,0*
20,1,$1+$1,$8,$9,$2,$3,0*%
G04 Aperture macros list end*
%TA.AperFunction,SMDPad,CuDef*%
%ADD10RoundRect,0.250000X0.450000X-0.262500X0.450000X0.262500X-0.450000X0.262500X-0.450000X-0.262500X0*%
%TD*%
%TA.AperFunction,ComponentPad*%
%ADD11R,1.600000X1.600000*%
%TD*%
%TA.AperFunction,ComponentPad*%
%ADD12O,1.600000X1.600000*%
%TD*%
%TA.AperFunction,SMDPad,CuDef*%
%ADD13RoundRect,0.243750X-0.456250X0.243750X-0.456250X-0.243750X0.456250X-0.243750X0.456250X0.243750X0*%
%TD*%
%TA.AperFunction,SMDPad,CuDef*%
%ADD14RoundRect,0.250000X-0.450000X0.262500X-0.450000X-0.262500X0.450000X-0.262500X0.450000X0.262500X0*%
%TD*%
%TA.AperFunction,ComponentPad*%
%ADD15R,1.370000X1.370000*%
%TD*%
%TA.AperFunction,ComponentPad*%
%ADD16C,1.370000*%
%TD*%
%TA.AperFunction,ComponentPad*%
%ADD17R,1.700000X1.700000*%
%TD*%
%TA.AperFunction,ComponentPad*%
%ADD18O,1.700000X1.700000*%
%TD*%
%TA.AperFunction,ComponentPad*%
%ADD19C,1.900000*%
%TD*%
%TA.AperFunction,Conductor*%
%ADD20C,0.200000*%
%TD*%
%TA.AperFunction,Conductor*%
%ADD21C,1.000000*%
%TD*%
G04 APERTURE END LIST*
D10*
%TO.P,R26,1*%
%TO.N,Net-(R26-Pad1)*%
X222435000Y-74325000D03*
%TO.P,R26,2*%
%TO.N,/in14*%
X222435000Y-72500000D03*
%TD*%
D11*
%TO.P,U13,1*%
%TO.N,Net-(R25-Pad1)*%
X214863076Y-77742500D03*
D12*
%TO.P,U13,2*%
%TO.N,GND*%
X212323076Y-77742500D03*
%TO.P,U13,3*%
%TO.N,+24V*%
X212323076Y-85362500D03*
%TO.P,U13,4*%
%TO.N,Net-(D13-K)*%
X214863076Y-85362500D03*
%TD*%
D13*
%TO.P,D1,1,K*%
%TO.N,Net-(D1-K)*%
X124000000Y-88562500D03*
%TO.P,D1,2,A*%
%TO.N,Net-(D1-A)*%
X124000000Y-90437500D03*
%TD*%
%TO.P,D13,1,K*%
%TO.N,Net-(D13-K)*%
X214863076Y-88562500D03*
%TO.P,D13,2,A*%
%TO.N,Net-(D13-A)*%
X214863076Y-90437500D03*
%TD*%
%TO.P,D3,1,K*%
%TO.N,Net-(D3-K)*%
X139143846Y-88562500D03*
%TO.P,D3,2,A*%
%TO.N,Net-(D3-A)*%
X139143846Y-90437500D03*
%TD*%
D14*
%TO.P,R6,1*%
%TO.N,Net-(D2-A)*%
X131571923Y-92087500D03*
%TO.P,R6,2*%
%TO.N,/out2*%
X131571923Y-93912500D03*
%TD*%
D10*
%TO.P,R1,1*%
%TO.N,Net-(R1-Pad1)*%
X124000000Y-74325000D03*
%TO.P,R1,2*%
%TO.N,/in1*%
X124000000Y-72500000D03*
%TD*%
%TO.P,R9,1*%
%TO.N,Net-(R9-Pad1)*%
X154287692Y-74325000D03*
%TO.P,R9,2*%
%TO.N,/in5*%
X154287692Y-72500000D03*
%TD*%
D13*
%TO.P,D2,1,K*%
%TO.N,Net-(D2-K)*%
X131571923Y-88562500D03*
%TO.P,D2,2,A*%
%TO.N,Net-(D2-A)*%
X131571923Y-90437500D03*
%TD*%
D11*
%TO.P,U6,1*%
%TO.N,Net-(R10-Pad1)*%
X161859615Y-77742500D03*
D12*
%TO.P,U6,2*%
%TO.N,GND*%
X159319615Y-77742500D03*
%TO.P,U6,3*%
%TO.N,+24V*%
X159319615Y-85362500D03*
%TO.P,U6,4*%
%TO.N,Net-(D6-K)*%
X161859615Y-85362500D03*
%TD*%
D13*
%TO.P,D10,1,K*%
%TO.N,Net-(D10-K)*%
X192147307Y-88562500D03*
%TO.P,D10,2,A*%
%TO.N,Net-(D10-A)*%
X192147307Y-90437500D03*
%TD*%
D11*
%TO.P,U14,1*%
%TO.N,Net-(R26-Pad1)*%
X222435000Y-77742500D03*
D12*
%TO.P,U14,2*%
%TO.N,GND*%
X219895000Y-77742500D03*
%TO.P,U14,3*%
%TO.N,+24V*%
X219895000Y-85362500D03*
%TO.P,U14,4*%
%TO.N,Net-(D14-K)*%
X222435000Y-85362500D03*
%TD*%
D15*
%TO.P,J4,01,01*%
%TO.N,/out14*%
X211050000Y-99000000D03*
D16*
%TO.P,J4,02,02*%
%TO.N,/out13*%
X205970000Y-99000000D03*
%TO.P,J4,03,03*%
%TO.N,/out12*%
X200890000Y-99000000D03*
%TO.P,J4,04,04*%
%TO.N,/out11*%
X195810000Y-99000000D03*
%TO.P,J4,05,05*%
%TO.N,/out10*%
X190730000Y-99000000D03*
%TO.P,J4,06,06*%
%TO.N,/out9*%
X185650000Y-99000000D03*
%TO.P,J4,07,07*%
%TO.N,/out8*%
X180570000Y-99000000D03*
%TO.P,J4,08,08*%
%TO.N,/out7*%
X175490000Y-99000000D03*
%TO.P,J4,09,09*%
%TO.N,/out6*%
X170410000Y-99000000D03*
%TO.P,J4,10,10*%
%TO.N,/out5*%
X165330000Y-99000000D03*
%TO.P,J4,11,11*%
%TO.N,/out4*%
X160250000Y-99000000D03*
%TO.P,J4,12,12*%
%TO.N,/out3*%
X155170000Y-99000000D03*
%TO.P,J4,13,13*%
%TO.N,/out2*%
X150090000Y-99000000D03*
%TO.P,J4,14,14*%
%TO.N,/out1*%
X145010000Y-99000000D03*
%TO.P,J4,15,15*%
%TO.N,GND*%
X139930000Y-99000000D03*
%TO.P,J4,16,16*%
X134850000Y-99000000D03*
%TO.P,J4,17,17*%
%TO.N,+24V*%
X129770000Y-99000000D03*
%TD*%
D11*
%TO.P,U9,1*%
%TO.N,Net-(R17-Pad1)*%
X184575384Y-77742500D03*
D12*
%TO.P,U9,2*%
%TO.N,GND*%
X182035384Y-77742500D03*
%TO.P,U9,3*%
%TO.N,+24V*%
X182035384Y-85362500D03*
%TO.P,U9,4*%
%TO.N,Net-(D9-K)*%
X184575384Y-85362500D03*
%TD*%
D13*
%TO.P,D12,1,K*%
%TO.N,Net-(D12-K)*%
X207291153Y-88562500D03*
%TO.P,D12,2,A*%
%TO.N,Net-(D12-A)*%
X207291153Y-90437500D03*
%TD*%
D10*
%TO.P,R3,1*%
%TO.N,Net-(R3-Pad1)*%
X139143846Y-74325000D03*
%TO.P,R3,2*%
%TO.N,/in3*%
X139143846Y-72500000D03*
%TD*%
D13*
%TO.P,D6,1,K*%
%TO.N,Net-(D6-K)*%
X161859615Y-88562500D03*
%TO.P,D6,2,A*%
%TO.N,Net-(D6-A)*%
X161859615Y-90437500D03*
%TD*%
D14*
%TO.P,R14,1*%
%TO.N,Net-(D6-A)*%
X161859615Y-92087500D03*
%TO.P,R14,2*%
%TO.N,/out6*%
X161859615Y-93912500D03*
%TD*%
%TO.P,R16,1*%
%TO.N,Net-(D8-A)*%
X177000000Y-92087500D03*
%TO.P,R16,2*%
%TO.N,/out8*%
X177000000Y-93912500D03*
%TD*%
D10*
%TO.P,R11,1*%
%TO.N,Net-(R11-Pad1)*%
X169431538Y-74325000D03*
%TO.P,R11,2*%
%TO.N,/in7*%
X169431538Y-72500000D03*
%TD*%
D13*
%TO.P,D14,1,K*%
%TO.N,Net-(D14-K)*%
X222435000Y-88562500D03*
%TO.P,D14,2,A*%
%TO.N,Net-(D14-A)*%
X222435000Y-90437500D03*
%TD*%
D11*
%TO.P,U10,1*%
%TO.N,Net-(R18-Pad1)*%
X192147307Y-77742500D03*
D12*
%TO.P,U10,2*%
%TO.N,GND*%
X189607307Y-77742500D03*
%TO.P,U10,3*%
%TO.N,+24V*%
X189607307Y-85362500D03*
%TO.P,U10,4*%
%TO.N,Net-(D10-K)*%
X192147307Y-85362500D03*
%TD*%
D11*
%TO.P,U12,1*%
%TO.N,Net-(R20-Pad1)*%
X207291153Y-77742500D03*
D12*
%TO.P,U12,2*%
%TO.N,GND*%
X204751153Y-77742500D03*
%TO.P,U12,3*%
%TO.N,+24V*%
X204751153Y-85362500D03*
%TO.P,U12,4*%
%TO.N,Net-(D12-K)*%
X207291153Y-85362500D03*
%TD*%
D17*
%TO.P,J2,1,Pin_1*%
%TO.N,GND*%
X219500000Y-104000000D03*
D18*
%TO.P,J2,2,Pin_2*%
X222040000Y-104000000D03*
%TO.P,J2,3,Pin_3*%
%TO.N,unconnected-(J2-Pin_3-Pad3)*%
X224580000Y-104000000D03*
%TD*%
D13*
%TO.P,D11,1,K*%
%TO.N,Net-(D11-K)*%
X199719230Y-88562500D03*
%TO.P,D11,2,A*%
%TO.N,Net-(D11-A)*%
X199719230Y-90437500D03*
%TD*%
%TO.P,D9,1,K*%
%TO.N,Net-(D9-K)*%
X184575384Y-88562500D03*
%TO.P,D9,2,A*%
%TO.N,Net-(D9-A)*%
X184575384Y-90437500D03*
%TD*%
D17*
%TO.P,J1,1,Pin_1*%
%TO.N,GND*%
X124580000Y-104000000D03*
D18*
%TO.P,J1,2,Pin_2*%
X122040000Y-104000000D03*
%TO.P,J1,3,Pin_3*%
%TO.N,unconnected-(J1-Pin_3-Pad3)*%
X119500000Y-104000000D03*
%TD*%
D14*
%TO.P,R7,1*%
%TO.N,Net-(D3-A)*%
X139143846Y-92087500D03*
%TO.P,R7,2*%
%TO.N,/out3*%
X139143846Y-93912500D03*
%TD*%
D10*
%TO.P,R2,1*%
%TO.N,Net-(R2-Pad1)*%
X131571923Y-74325000D03*
%TO.P,R2,2*%
%TO.N,/in2*%
X131571923Y-72500000D03*
%TD*%
%TO.P,R18,1*%
%TO.N,Net-(R18-Pad1)*%
X192147307Y-74325000D03*
%TO.P,R18,2*%
%TO.N,/in10*%
X192147307Y-72500000D03*
%TD*%
D19*
%TO.P,J5,16,8_2*%
%TO.N,/in7*%
X156804904Y-61180799D03*
%TO.P,J5,15,8_1*%
X156804904Y-56180799D03*
%TO.P,J5,14,7_2*%
%TO.N,/in6*%
X153304903Y-61180799D03*
%TO.P,J5,13,7_1*%
X153304903Y-56180799D03*
%TO.P,J5,12,6_2*%
%TO.N,/in5*%
X149804902Y-61180799D03*
%TO.P,J5,11,6_1*%
X149804902Y-56180799D03*
%TO.P,J5,10,5_2*%
%TO.N,/in4*%
X146304902Y-61180799D03*
%TO.P,J5,9,5_1*%
X146304902Y-56180799D03*
%TO.P,J5,8,4_2*%
%TO.N,/in3*%
X142804901Y-61180799D03*
%TO.P,J5,7,4_1*%
X142804901Y-56180799D03*
%TO.P,J5,6,3_2*%
%TO.N,/in2*%
X139304901Y-61180799D03*
%TO.P,J5,5,3_1*%
X139304901Y-56180799D03*
%TO.P,J5,4,2_2*%
%TO.N,/in1*%
X135804900Y-61180799D03*
%TO.P,J5,3,2_1*%
X135804900Y-56180799D03*
%TO.P,J5,2,1_2*%
%TO.N,GND*%
X132304899Y-61180799D03*
%TO.P,J5,1,1_1*%
X132304899Y-56180799D03*
%TD*%
D11*
%TO.P,U7,1*%
%TO.N,Net-(R11-Pad1)*%
X169431538Y-77742500D03*
D12*
%TO.P,U7,2*%
%TO.N,GND*%
X166891538Y-77742500D03*
%TO.P,U7,3*%
%TO.N,+24V*%
X166891538Y-85362500D03*
%TO.P,U7,4*%
%TO.N,Net-(D7-K)*%
X169431538Y-85362500D03*
%TD*%
D13*
%TO.P,D5,1,K*%
%TO.N,Net-(D5-K)*%
X154287692Y-88562500D03*
%TO.P,D5,2,A*%
%TO.N,Net-(D5-A)*%
X154287692Y-90437500D03*
%TD*%
D14*
%TO.P,R21,1*%
%TO.N,Net-(D9-A)*%
X184575384Y-92087500D03*
%TO.P,R21,2*%
%TO.N,/out9*%
X184575384Y-93912500D03*
%TD*%
D11*
%TO.P,U8,1*%
%TO.N,Net-(R12-Pad1)*%
X177003461Y-77742500D03*
D12*
%TO.P,U8,2*%
%TO.N,GND*%
X174463461Y-77742500D03*
%TO.P,U8,3*%
%TO.N,+24V*%
X174463461Y-85362500D03*
%TO.P,U8,4*%
%TO.N,Net-(D8-K)*%
X177003461Y-85362500D03*
%TD*%
D10*
%TO.P,R20,1*%
%TO.N,Net-(R20-Pad1)*%
X207291153Y-74325000D03*
%TO.P,R20,2*%
%TO.N,/in12*%
X207291153Y-72500000D03*
%TD*%
%TO.P,R19,1*%
%TO.N,Net-(R19-Pad1)*%
X199719230Y-74325000D03*
%TO.P,R19,2*%
%TO.N,/in11*%
X199719230Y-72500000D03*
%TD*%
%TO.P,R4,1*%
%TO.N,Net-(R4-Pad1)*%
X146715769Y-74325000D03*
%TO.P,R4,2*%
%TO.N,/in4*%
X146715769Y-72500000D03*
%TD*%
D13*
%TO.P,D4,1,K*%
%TO.N,Net-(D4-K)*%
X146715769Y-88562500D03*
%TO.P,D4,2,A*%
%TO.N,Net-(D4-A)*%
X146715769Y-90437500D03*
%TD*%
D14*
%TO.P,R15,1*%
%TO.N,Net-(D7-A)*%
X169431538Y-92087500D03*
%TO.P,R15,2*%
%TO.N,/out7*%
X169431538Y-93912500D03*
%TD*%
D11*
%TO.P,U11,1*%
%TO.N,Net-(R19-Pad1)*%
X199719230Y-77742500D03*
D12*
%TO.P,U11,2*%
%TO.N,GND*%
X197179230Y-77742500D03*
%TO.P,U11,3*%
%TO.N,+24V*%
X197179230Y-85362500D03*
%TO.P,U11,4*%
%TO.N,Net-(D11-K)*%
X199719230Y-85362500D03*
%TD*%
D11*
%TO.P,U5,1*%
%TO.N,Net-(R9-Pad1)*%
X154287692Y-77742500D03*
D12*
%TO.P,U5,2*%
%TO.N,GND*%
X151747692Y-77742500D03*
%TO.P,U5,3*%
%TO.N,+24V*%
X151747692Y-85362500D03*
%TO.P,U5,4*%
%TO.N,Net-(D5-K)*%
X154287692Y-85362500D03*
%TD*%
D13*
%TO.P,D8,1,K*%
%TO.N,Net-(D8-K)*%
X177003461Y-88562500D03*
%TO.P,D8,2,A*%
%TO.N,Net-(D8-A)*%
X177003461Y-90437500D03*
%TD*%
D11*
%TO.P,U1,1*%
%TO.N,Net-(R1-Pad1)*%
X124000000Y-77742500D03*
D12*
%TO.P,U1,2*%
%TO.N,GND*%
X121460000Y-77742500D03*
%TO.P,U1,3*%
%TO.N,+24V*%
X121460000Y-85362500D03*
%TO.P,U1,4*%
%TO.N,Net-(D1-K)*%
X124000000Y-85362500D03*
%TD*%
D13*
%TO.P,D7,1,K*%
%TO.N,Net-(D7-K)*%
X169431538Y-88562500D03*
%TO.P,D7,2,A*%
%TO.N,Net-(D7-A)*%
X169431538Y-90437500D03*
%TD*%
D10*
%TO.P,R17,1*%
%TO.N,Net-(R17-Pad1)*%
X184575384Y-74325000D03*
%TO.P,R17,2*%
%TO.N,/in9*%
X184575384Y-72500000D03*
%TD*%
D14*
%TO.P,R24,1*%
%TO.N,Net-(D12-A)*%
X207291153Y-92087500D03*
%TO.P,R24,2*%
%TO.N,/out12*%
X207291153Y-93912500D03*
%TD*%
D10*
%TO.P,R10,1*%
%TO.N,Net-(R10-Pad1)*%
X161859615Y-74325000D03*
%TO.P,R10,2*%
%TO.N,/in6*%
X161859615Y-72500000D03*
%TD*%
%TO.P,R12,1*%
%TO.N,Net-(R12-Pad1)*%
X177003461Y-74325000D03*
%TO.P,R12,2*%
%TO.N,/in8*%
X177003461Y-72500000D03*
%TD*%
D14*
%TO.P,R8,1*%
%TO.N,Net-(D4-A)*%
X146715769Y-92087500D03*
%TO.P,R8,2*%
%TO.N,/out4*%
X146715769Y-93912500D03*
%TD*%
%TO.P,R22,1*%
%TO.N,Net-(D10-A)*%
X192147307Y-92087500D03*
%TO.P,R22,2*%
%TO.N,/out10*%
X192147307Y-93912500D03*
%TD*%
%TO.P,R23,1*%
%TO.N,Net-(D11-A)*%
X199719230Y-92087500D03*
%TO.P,R23,2*%
%TO.N,/out11*%
X199719230Y-93912500D03*
%TD*%
%TO.P,R5,1*%
%TO.N,Net-(D1-A)*%
X124000000Y-92087500D03*
%TO.P,R5,2*%
%TO.N,/out1*%
X124000000Y-93912500D03*
%TD*%
D11*
%TO.P,U3,1*%
%TO.N,Net-(R3-Pad1)*%
X139143846Y-77742500D03*
D12*
%TO.P,U3,2*%
%TO.N,GND*%
X136603846Y-77742500D03*
%TO.P,U3,3*%
%TO.N,+24V*%
X136603846Y-85362500D03*
%TO.P,U3,4*%
%TO.N,Net-(D3-K)*%
X139143846Y-85362500D03*
%TD*%
D11*
%TO.P,U2,1*%
%TO.N,Net-(R2-Pad1)*%
X131571923Y-77742500D03*
D12*
%TO.P,U2,2*%
%TO.N,GND*%
X129031923Y-77742500D03*
%TO.P,U2,3*%
%TO.N,+24V*%
X129031923Y-85362500D03*
%TO.P,U2,4*%
%TO.N,Net-(D2-K)*%
X131571923Y-85362500D03*
%TD*%
D14*
%TO.P,R27,1*%
%TO.N,Net-(D13-A)*%
X214863076Y-92087500D03*
%TO.P,R27,2*%
%TO.N,/out13*%
X214863076Y-93912500D03*
%TD*%
D11*
%TO.P,U4,1*%
%TO.N,Net-(R4-Pad1)*%
X146715769Y-77742500D03*
D12*
%TO.P,U4,2*%
%TO.N,GND*%
X144175769Y-77742500D03*
%TO.P,U4,3*%
%TO.N,+24V*%
X144175769Y-85362500D03*
%TO.P,U4,4*%
%TO.N,Net-(D4-K)*%
X146715769Y-85362500D03*
%TD*%
D10*
%TO.P,R25,1*%
%TO.N,Net-(R25-Pad1)*%
X214863076Y-74325000D03*
%TO.P,R25,2*%
%TO.N,/in13*%
X214863076Y-72500000D03*
%TD*%
D14*
%TO.P,R28,1*%
%TO.N,Net-(D14-A)*%
X222435000Y-92087500D03*
%TO.P,R28,2*%
%TO.N,/out14*%
X222435000Y-93912500D03*
%TD*%
D19*
%TO.P,J6,16,8_2*%
%TO.N,GND*%
X212500000Y-61150399D03*
%TO.P,J6,15,8_1*%
X212500000Y-56150399D03*
%TO.P,J6,14,7_2*%
%TO.N,/in14*%
X208999999Y-61150399D03*
%TO.P,J6,13,7_1*%
X208999999Y-56150399D03*
%TO.P,J6,12,6_2*%
%TO.N,/in13*%
X205499998Y-61150399D03*
%TO.P,J6,11,6_1*%
X205499998Y-56150399D03*
%TO.P,J6,10,5_2*%
%TO.N,/in12*%
X201999998Y-61150399D03*
%TO.P,J6,9,5_1*%
X201999998Y-56150399D03*
%TO.P,J6,8,4_2*%
%TO.N,/in11*%
X198499997Y-61150399D03*
%TO.P,J6,7,4_1*%
X198499997Y-56150399D03*
%TO.P,J6,6,3_2*%
%TO.N,/in10*%
X194999997Y-61150399D03*
%TO.P,J6,5,3_1*%
X194999997Y-56150399D03*
%TO.P,J6,4,2_2*%
%TO.N,/in9*%
X191499996Y-61150399D03*
%TO.P,J6,3,2_1*%
X191499996Y-56150399D03*
%TO.P,J6,2,1_2*%
%TO.N,/in8*%
X187999995Y-61150399D03*
%TO.P,J6,1,1_1*%
X187999995Y-56150399D03*
%TD*%
D14*
%TO.P,R13,1*%
%TO.N,Net-(D5-A)*%
X154287692Y-92087500D03*
%TO.P,R13,2*%
%TO.N,/out5*%
X154287692Y-93912500D03*
%TD*%
D20*
%TO.N,/in8*%
X177003461Y-72146933D02*
X187999995Y-61150399D01*
X177003461Y-72500000D02*
X177003461Y-72146933D01*
%TO.N,/in9*%
X184575384Y-68075011D02*
X191499996Y-61150399D01*
X184575384Y-72500000D02*
X184575384Y-68075011D01*
%TO.N,/in10*%
X192147307Y-64003089D02*
X194999997Y-61150399D01*
X192147307Y-72500000D02*
X192147307Y-64003089D01*
%TO.N,/in14*%
X220349600Y-72500000D02*
X208999999Y-61150399D01*
X222435000Y-72500000D02*
X220349600Y-72500000D01*
%TO.N,/in13*%
X214863076Y-70513477D02*
X205499998Y-61150399D01*
X214863076Y-72500000D02*
X214863076Y-70513477D01*
%TO.N,/in12*%
X207291153Y-66441554D02*
X201999998Y-61150399D01*
X207291153Y-72500000D02*
X207291153Y-66441554D01*
%TO.N,/in11*%
X199719230Y-62369632D02*
X198499997Y-61150399D01*
X199719230Y-72500000D02*
X199719230Y-62369632D01*
D21*
%TO.N,GND*%
X226500000Y-71500000D02*
X216150399Y-61150399D01*
X216150399Y-61150399D02*
X212500000Y-61150399D01*
X226500000Y-79500000D02*
X226500000Y-71500000D01*
X118500000Y-80250000D02*
X118250000Y-80000000D01*
X122000000Y-80250000D02*
X118500000Y-80250000D01*
X122000000Y-80250000D02*
X121500000Y-80250000D01*
X118250000Y-81250000D02*
X118250000Y-80000000D01*
X129000000Y-80250000D02*
X122000000Y-80250000D01*
D20*
%TO.N,/in8*%
X187999995Y-56150399D02*
X187999995Y-61150399D01*
X176499999Y-72500000D02*
X177003461Y-72500000D01*
%TO.N,Net-(R1-Pad1)*%
X124000000Y-74325000D02*
X124000000Y-77742500D01*
%TO.N,Net-(R2-Pad1)*%
X131571923Y-74325000D02*
X131571923Y-77742500D01*
%TO.N,Net-(R3-Pad1)*%
X139143846Y-74325000D02*
X139143846Y-77742500D01*
%TO.N,Net-(R4-Pad1)*%
X146715769Y-74325000D02*
X146715769Y-77742500D01*
%TO.N,Net-(R9-Pad1)*%
X154287692Y-74325000D02*
X154287692Y-77742500D01*
%TO.N,Net-(R10-Pad1)*%
X161859615Y-74325000D02*
X161859615Y-77742500D01*
%TO.N,Net-(R11-Pad1)*%
X169431538Y-74325000D02*
X169431538Y-77742500D01*
%TO.N,Net-(R12-Pad1)*%
X177003461Y-74325000D02*
X177003461Y-77742500D01*
%TO.N,GND*%
X129500000Y-104000000D02*
X129850000Y-104000000D01*
D21*
X166891538Y-80247775D02*
X166893763Y-80250000D01*
X121460000Y-77955000D02*
X121460000Y-80210000D01*
X226500000Y-79500000D02*
X226500000Y-99540000D01*
X129031923Y-80218077D02*
X129000000Y-80250000D01*
X166891538Y-77955000D02*
X166891538Y-80247775D01*
X219895000Y-77992500D02*
X219895000Y-80145000D01*
X212500000Y-61150399D02*
X212500000Y-56150399D01*
X122040000Y-104000000D02*
X118250000Y-100210000D01*
X139000000Y-104000000D02*
X137500000Y-104000000D01*
X151746648Y-80250000D02*
X144181020Y-80250000D01*
X137500000Y-104000000D02*
X219500000Y-104000000D01*
X129850000Y-104000000D02*
X134850000Y-99000000D01*
X136607463Y-80250000D02*
X129000000Y-80250000D01*
X212323076Y-80238241D02*
X212311317Y-80250000D01*
X212323076Y-77992500D02*
X212323076Y-80238241D01*
X226500000Y-99540000D02*
X222040000Y-104000000D01*
X174463461Y-80213461D02*
X174500000Y-80250000D01*
X151747692Y-80248956D02*
X151746648Y-80250000D01*
X139930000Y-103070000D02*
X139000000Y-104000000D01*
X225750000Y-80250000D02*
X226500000Y-79500000D01*
X212311317Y-80250000D02*
X225750000Y-80250000D01*
X197179230Y-80241237D02*
X197187993Y-80250000D01*
X189598575Y-80250000D02*
X182040878Y-80250000D01*
X174463461Y-77955000D02*
X174463461Y-80213461D01*
X136603846Y-80246383D02*
X136607463Y-80250000D01*
X204751153Y-80248847D02*
X204750000Y-80250000D01*
X204751153Y-77742500D02*
X204751153Y-80248847D01*
X118250000Y-100210000D02*
X118250000Y-81250000D01*
X204750000Y-80250000D02*
X197187993Y-80250000D01*
X136603846Y-77955000D02*
X136603846Y-80246383D01*
X212311317Y-80250000D02*
X204750000Y-80250000D01*
X139930000Y-99000000D02*
X139930000Y-103070000D01*
X144181020Y-80250000D02*
X136607463Y-80250000D01*
X189607307Y-77922500D02*
X189607307Y-80241268D01*
X159320205Y-80250000D02*
X151746648Y-80250000D01*
X182035384Y-77922500D02*
X182035384Y-80244506D01*
X144175769Y-80244749D02*
X144181020Y-80250000D01*
X166893763Y-80250000D02*
X159320205Y-80250000D01*
X151747692Y-77955000D02*
X151747692Y-80248956D01*
X182040878Y-80250000D02*
X174500000Y-80250000D01*
X121460000Y-80210000D02*
X121500000Y-80250000D01*
X159319615Y-80249410D02*
X159320205Y-80250000D01*
X124580000Y-104000000D02*
X129500000Y-104000000D01*
D20*
X219895000Y-80145000D02*
X220000000Y-80250000D01*
D21*
X182035384Y-80244506D02*
X182040878Y-80250000D01*
X197179230Y-78172500D02*
X197179230Y-80241237D01*
X144175769Y-77955000D02*
X144175769Y-80244749D01*
X197187993Y-80250000D02*
X189598575Y-80250000D01*
X137500000Y-104000000D02*
X129500000Y-104000000D01*
X129031923Y-77955000D02*
X129031923Y-80218077D01*
X159319615Y-77955000D02*
X159319615Y-80249410D01*
X189607307Y-80241268D02*
X189598575Y-80250000D01*
%TO.N,+24V*%
X123535000Y-83500000D02*
X129000000Y-83500000D01*
X129000000Y-83500000D02*
X136750000Y-83500000D01*
X129031923Y-83531923D02*
X129000000Y-83500000D01*
X136603846Y-83646154D02*
X136750000Y-83500000D01*
X166896441Y-83500000D02*
X174454138Y-83500000D01*
X144175769Y-83517553D02*
X144158216Y-83500000D01*
X204751153Y-85362500D02*
X204751153Y-83501153D01*
X174463461Y-83509323D02*
X174454138Y-83500000D01*
X174454138Y-83500000D02*
X182027696Y-83500000D01*
X217782500Y-83500000D02*
X219895000Y-85612500D01*
X144158216Y-83500000D02*
X151741396Y-83500000D01*
X121460000Y-96460000D02*
X121460000Y-85362500D01*
X197179230Y-83503512D02*
X197182742Y-83500000D01*
X151741396Y-83500000D02*
X159330814Y-83500000D01*
X182035384Y-83507688D02*
X182027696Y-83500000D01*
X129031923Y-85575000D02*
X129031923Y-83531923D01*
X182035384Y-85542500D02*
X182035384Y-83507688D01*
X144175769Y-85575000D02*
X144175769Y-83517553D01*
X159330814Y-83500000D02*
X166896441Y-83500000D01*
X159319615Y-85575000D02*
X159319615Y-83511199D01*
X159319615Y-83511199D02*
X159330814Y-83500000D01*
X212337787Y-83500000D02*
X217782500Y-83500000D01*
X204750000Y-83500000D02*
X212337787Y-83500000D01*
X212323076Y-85612500D02*
X212323076Y-83514711D01*
X166891538Y-83504903D02*
X166896441Y-83500000D01*
X174463461Y-85575000D02*
X174463461Y-83509323D01*
X189607307Y-85542500D02*
X189607307Y-83501877D01*
X124000000Y-99000000D02*
X121460000Y-96460000D01*
X189609184Y-83500000D02*
X197182742Y-83500000D01*
X129770000Y-99000000D02*
X124000000Y-99000000D01*
X197179230Y-83503512D02*
X197179230Y-85362500D01*
X212323076Y-83514711D02*
X212337787Y-83500000D01*
X197182742Y-83500000D02*
X204750000Y-83500000D01*
X166891538Y-85575000D02*
X166891538Y-83504903D01*
X121460000Y-85575000D02*
X123535000Y-83500000D01*
X189607307Y-83501877D02*
X189609184Y-83500000D01*
X204751153Y-83501153D02*
X204750000Y-83500000D01*
X151747692Y-83506296D02*
X151741396Y-83500000D01*
X151747692Y-85575000D02*
X151747692Y-83506296D01*
X136750000Y-83500000D02*
X144158216Y-83500000D01*
X136603846Y-85575000D02*
X136603846Y-83646154D01*
X182027696Y-83500000D02*
X189609184Y-83500000D01*
D20*
%TO.N,/out1*%
X144025000Y-98015000D02*
X145010000Y-99000000D01*
X124512500Y-93912500D02*
X128615000Y-98015000D01*
X124000000Y-93912500D02*
X124512500Y-93912500D01*
X128615000Y-98015000D02*
X144025000Y-98015000D01*
%TO.N,/out7*%
X169431538Y-93912500D02*
X170402500Y-93912500D01*
X170402500Y-93912500D02*
X175490000Y-99000000D01*
%TO.N,/out2*%
X131571923Y-93912500D02*
X132084423Y-93912500D01*
X132084423Y-93912500D02*
X135671923Y-97500000D01*
X135671923Y-97500000D02*
X148590000Y-97500000D01*
X148590000Y-97500000D02*
X150090000Y-99000000D01*
%TO.N,/out8*%
X177000000Y-93912500D02*
X177000000Y-95430000D01*
X177000000Y-95430000D02*
X180570000Y-99000000D01*
%TO.N,/out6*%
X161859615Y-93912500D02*
X165322500Y-93912500D01*
X165322500Y-93912500D02*
X170410000Y-99000000D01*
%TO.N,/out3*%
X139656346Y-93912500D02*
X142350000Y-96606154D01*
X139143846Y-93912500D02*
X139656346Y-93912500D01*
X142350000Y-96606154D02*
X152520767Y-96606154D01*
X152520767Y-96606154D02*
X155224540Y-99309927D01*
%TO.N,/out5*%
X158412500Y-93912500D02*
X163500000Y-99000000D01*
X163500000Y-99000000D02*
X165330000Y-99000000D01*
X154287692Y-93912500D02*
X158412500Y-93912500D01*
%TO.N,/out4*%
X146715769Y-94715769D02*
X147750000Y-95750000D01*
X147750000Y-95750000D02*
X157000000Y-95750000D01*
X146715769Y-93912500D02*
X146715769Y-94715769D01*
X157000000Y-95750000D02*
X160250000Y-99000000D01*
%TO.N,/in14*%
X208999999Y-56150399D02*
X208999999Y-61150399D01*
%TO.N,/in9*%
X191499996Y-56150399D02*
X191499996Y-61150399D01*
%TO.N,/in10*%
X194999997Y-56150399D02*
X194999997Y-61150399D01*
%TO.N,/in13*%
X205499998Y-56150399D02*
X205499998Y-61150399D01*
%TO.N,/in11*%
X198499997Y-56150399D02*
X198499997Y-61150399D01*
%TO.N,/in12*%
X201999998Y-56150399D02*
X201999998Y-61150399D01*
%TO.N,Net-(R17-Pad1)*%
X184575384Y-74325000D02*
X184575384Y-77742500D01*
%TO.N,Net-(R18-Pad1)*%
X192147307Y-74325000D02*
X192147307Y-77742500D01*
%TO.N,Net-(R19-Pad1)*%
X199719230Y-74325000D02*
X199719230Y-77742500D01*
%TO.N,Net-(R20-Pad1)*%
X207291153Y-74325000D02*
X207291153Y-77742500D01*
%TO.N,/out9*%
X184575384Y-93912500D02*
X184575384Y-97925384D01*
X185650000Y-98850000D02*
X185750000Y-98750000D01*
X184575384Y-97925384D02*
X185650000Y-99000000D01*
X185650000Y-99000000D02*
X185650000Y-98850000D01*
%TO.N,/out10*%
X192147307Y-93912500D02*
X192147307Y-97582693D01*
X192147307Y-97582693D02*
X190730000Y-99000000D01*
%TO.N,/out11*%
X199719230Y-93912500D02*
X199719230Y-95090770D01*
X199719230Y-95090770D02*
X195810000Y-99000000D01*
%TO.N,/out12*%
X205977500Y-93912500D02*
X200890000Y-99000000D01*
X207291153Y-93912500D02*
X205977500Y-93912500D01*
%TO.N,Net-(R25-Pad1)*%
X214863076Y-74325000D02*
X214863076Y-77742500D01*
%TO.N,Net-(R26-Pad1)*%
X222435000Y-74325000D02*
X222435000Y-77742500D01*
%TO.N,/out13*%
X214863076Y-93912500D02*
X214350576Y-93400000D01*
X214350576Y-93400000D02*
X211570000Y-93400000D01*
X211570000Y-93400000D02*
X205970000Y-99000000D01*
%TO.N,/out14*%
X211050000Y-99000000D02*
X216835000Y-99000000D01*
X216835000Y-99000000D02*
X221922500Y-93912500D01*
X221922500Y-93912500D02*
X222435000Y-93912500D01*
%TO.N,Net-(D1-K)*%
X124000000Y-88562500D02*
X124000000Y-85362500D01*
%TO.N,Net-(D1-A)*%
X124000000Y-90437500D02*
X124000000Y-92087500D01*
%TO.N,Net-(D2-A)*%
X131571923Y-90437500D02*
X131571923Y-92087500D01*
%TO.N,Net-(D2-K)*%
X131571923Y-88562500D02*
X131571923Y-85362500D01*
%TO.N,Net-(D3-A)*%
X139143846Y-90437500D02*
X139143846Y-92087500D01*
%TO.N,Net-(D3-K)*%
X139143846Y-88562500D02*
X139143846Y-85362500D01*
%TO.N,Net-(D4-K)*%
X146715769Y-88562500D02*
X146715769Y-85362500D01*
%TO.N,Net-(D4-A)*%
X146715769Y-90437500D02*
X146715769Y-92087500D01*
%TO.N,Net-(D5-K)*%
X154287692Y-88562500D02*
X154287692Y-85362500D01*
%TO.N,Net-(D5-A)*%
X154287692Y-90437500D02*
X154287692Y-92087500D01*
%TO.N,Net-(D6-K)*%
X161859615Y-88562500D02*
X161859615Y-85362500D01*
%TO.N,Net-(D6-A)*%
X161859615Y-90437500D02*
X161859615Y-92087500D01*
%TO.N,Net-(D7-A)*%
X169431538Y-90437500D02*
X169431538Y-92087500D01*
%TO.N,Net-(D7-K)*%
X169431538Y-88562500D02*
X169431538Y-85362500D01*
%TO.N,Net-(D8-K)*%
X177003461Y-88562500D02*
X177003461Y-85362500D01*
%TO.N,Net-(D8-A)*%
X177003461Y-90437500D02*
X177003461Y-92084039D01*
X177003461Y-92084039D02*
X177000000Y-92087500D01*
%TO.N,Net-(D9-A)*%
X184575384Y-90437500D02*
X184575384Y-92087500D01*
%TO.N,Net-(D9-K)*%
X184575384Y-88562500D02*
X184575384Y-85362500D01*
%TO.N,Net-(D10-K)*%
X192147307Y-88562500D02*
X192147307Y-85362500D01*
%TO.N,Net-(D10-A)*%
X192147307Y-90437500D02*
X192147307Y-92087500D01*
%TO.N,Net-(D11-K)*%
X199719230Y-88562500D02*
X199719230Y-85362500D01*
%TO.N,Net-(D11-A)*%
X199719230Y-90437500D02*
X199719230Y-92087500D01*
%TO.N,Net-(D12-A)*%
X207291153Y-90437500D02*
X207291153Y-92087500D01*
%TO.N,Net-(D12-K)*%
X207291153Y-88562500D02*
X207291153Y-85362500D01*
%TO.N,Net-(D13-K)*%
X214863076Y-88562500D02*
X214863076Y-85362500D01*
%TO.N,Net-(D13-A)*%
X214863076Y-92087500D02*
X214863076Y-90437500D01*
%TO.N,Net-(D14-K)*%
X222435000Y-88562500D02*
X222435000Y-85362500D01*
%TO.N,Net-(D14-A)*%
X222435000Y-90437500D02*
X222435000Y-92087500D01*
%TO.N,/in7*%
X168124105Y-72500000D02*
X156804904Y-61180799D01*
%TO.N,/in5*%
X154287692Y-65663589D02*
X149804902Y-61180799D01*
X154287692Y-72500000D02*
X154287692Y-65663589D01*
%TO.N,/in3*%
X139143846Y-68856154D02*
X142804901Y-65195099D01*
X139143846Y-72500000D02*
X139143846Y-68856154D01*
%TO.N,/in4*%
X146715769Y-61591666D02*
X146304902Y-61180799D01*
%TO.N,/in2*%
X139304901Y-63838945D02*
X139304901Y-61180799D01*
X131571923Y-72500000D02*
X131571923Y-71571923D01*
%TO.N,/in6*%
X161859615Y-72500000D02*
X161859615Y-69735511D01*
%TO.N,/in1*%
X135804900Y-61180799D02*
X124485699Y-72500000D01*
D21*
%TO.N,GND*%
X118250000Y-80000000D02*
X118250000Y-70750000D01*
D20*
%TO.N,/in1*%
X135804900Y-56180799D02*
X135804900Y-61180799D01*
X124485699Y-72500000D02*
X124000000Y-72500000D01*
%TO.N,/in2*%
X139304901Y-56180799D02*
X139304901Y-61180799D01*
%TO.N,/in6*%
X153304903Y-56180799D02*
X153304903Y-61180799D01*
X161859615Y-69735511D02*
X153304903Y-61180799D01*
%TO.N,/in5*%
X149804902Y-56180799D02*
X149804902Y-61180799D01*
%TO.N,/in4*%
X146304902Y-56180799D02*
X146304902Y-61180799D01*
D21*
%TO.N,GND*%
X127819201Y-61180799D02*
X118250000Y-70750000D01*
D20*
%TO.N,/in7*%
X156804904Y-56180799D02*
X156804904Y-61180799D01*
X169431538Y-72500000D02*
X168124105Y-72500000D01*
%TO.N,/in3*%
X142804901Y-56180799D02*
X142804901Y-61180799D01*
D21*
%TO.N,GND*%
X132304899Y-56180799D02*
X132304899Y-61180799D01*
D20*
%TO.N,/in3*%
X142804901Y-65195099D02*
X142804901Y-61180799D01*
%TO.N,/in4*%
X146715769Y-72500000D02*
X146715769Y-61591666D01*
D21*
%TO.N,GND*%
X132304899Y-61180799D02*
X127819201Y-61180799D01*
D20*
%TO.N,/in2*%
X131571923Y-71571923D02*
X139304901Y-63838945D01*
%TD*%
M02*
