M48
; DRILL file {KiCad 8.0.7} date 2025-04-06T16:58:41-0500
; FORMAT={-:-/ absolute / inch / decimal}
; #@! TF.CreationDate,2025-04-06T16:58:41-05:00
; #@! TF.GenerationSoftware,Kicad,Pcbnew,8.0.7
; #@! TF.FileFunction,Plated,1,2,PTH
FMAT,2
INCH
; #@! TA.AperFunction,Plated,PTH,ComponentDrill
T1C0.0315
; #@! TA.AperFunction,Plated,PTH,ComponentDrill
T2C0.0394
; #@! TA.AperFunction,Plated,PTH,ComponentDrill
T3C0.0402
; #@! TA.AperFunction,Plated,PTH,ComponentDrill
T4C0.0472
%
G90
G05
T1
X4.7819Y-3.0607
X4.7819Y-3.3607
X4.8819Y-3.0607
X4.8819Y-3.3607
X5.08Y-3.0607
X5.08Y-3.3607
X5.18Y-3.0607
X5.18Y-3.3607
X5.3781Y-3.0607
X5.3781Y-3.3607
X5.4781Y-3.0607
X5.4781Y-3.3607
X5.6762Y-3.0607
X5.6762Y-3.3607
X5.7762Y-3.0607
X5.7762Y-3.3607
X5.9743Y-3.0607
X5.9743Y-3.3607
X6.0743Y-3.0607
X6.0743Y-3.3607
X6.2724Y-3.0607
X6.2724Y-3.3607
X6.3724Y-3.0607
X6.3724Y-3.3607
X6.5705Y-3.0607
X6.5705Y-3.3607
X6.6705Y-3.0607
X6.6705Y-3.3607
X6.8686Y-3.0607
X6.8686Y-3.3607
X6.9686Y-3.0607
X6.9686Y-3.3607
X7.1667Y-3.0607
X7.1667Y-3.3607
X7.2667Y-3.0607
X7.2667Y-3.3607
X7.4649Y-3.0607
X7.4649Y-3.3607
X7.5649Y-3.0607
X7.5649Y-3.3607
X7.763Y-3.0607
X7.763Y-3.3607
X7.863Y-3.0607
X7.863Y-3.3607
X8.0611Y-3.0607
X8.0611Y-3.3607
X8.1611Y-3.0607
X8.1611Y-3.3607
X8.3592Y-3.0607
X8.3592Y-3.3607
X8.4592Y-3.0607
X8.4592Y-3.3607
X8.6573Y-3.0607
X8.6573Y-3.3607
X8.7573Y-3.0607
X8.7573Y-3.3607
T2
X4.7047Y-4.0945
X4.8047Y-4.0945
X4.9047Y-4.0945
X8.6417Y-4.0945
X8.7417Y-4.0945
X8.8417Y-4.0945
T3
X5.1091Y-3.8976
X5.3091Y-3.8976
X5.5091Y-3.8976
X5.7091Y-3.8976
X5.9091Y-3.8976
X6.1091Y-3.8976
X6.3091Y-3.8976
X6.5091Y-3.8976
X6.7091Y-3.8976
X6.9091Y-3.8976
X7.1091Y-3.8976
X7.3091Y-3.8976
X7.5091Y-3.8976
X7.7091Y-3.8976
X7.9091Y-3.8976
X8.1091Y-3.8976
X8.3091Y-3.8976
T4
X5.2089Y-2.2118
X5.2089Y-2.4087
X5.3466Y-2.2118
X5.3466Y-2.4087
X5.4844Y-2.2118
X5.4844Y-2.4087
X5.6222Y-2.2118
X5.6222Y-2.4087
X5.76Y-2.2118
X5.76Y-2.4087
X5.8978Y-2.2118
X5.8978Y-2.4087
X6.0356Y-2.2118
X6.0356Y-2.4087
X6.1734Y-2.2118
X6.1734Y-2.4087
X7.4016Y-2.2106
X7.4016Y-2.4075
X7.5394Y-2.2106
X7.5394Y-2.4075
X7.6772Y-2.2106
X7.6772Y-2.4075
X7.815Y-2.2106
X7.815Y-2.4075
X7.9528Y-2.2106
X7.9528Y-2.4075
X8.0906Y-2.2106
X8.0906Y-2.4075
X8.2283Y-2.2106
X8.2283Y-2.4075
X8.3661Y-2.2106
X8.3661Y-2.4075
M30
