%TF.GenerationSoftware,KiCad,Pcbnew,8.0.7*%
%TF.CreationDate,2025-04-06T16:58:41-05:00*%
%TF.ProjectId,inputs,696e7075-7473-42e6-9b69-6361645f7063,rev?*%
%TF.SameCoordinates,Original*%
%TF.FileFunction,Soldermask,Top*%
%TF.FilePolarity,Negative*%
%FSLAX46Y46*%
G04 Gerber Fmt 4.6, Leading zero omitted, Abs format (unit mm)*
G04 Created by KiCad (PCBNEW 8.0.7) date 2025-04-06 16:58:41*
%MOMM*%
%LPD*%
G01*
G04 APERTURE LIST*
G04 Aperture macros list*
%AMRoundRect*
0 Rectangle with rounded corners*
0 $1 Rounding radius*
0 $2 $3 $4 $5 $6 $7 $8 $9 X,Y pos of 4 corners*
0 Add a 4 corners polygon primitive as box body*
4,1,4,$2,$3,$4,$5,$6,$7,$8,$9,$2,$3,0*
0 Add four circle primitives for the rounded corners*
1,1,$1+$1,$2,$3*
1,1,$1+$1,$4,$5*
1,1,$1+$1,$6,$7*
1,1,$1+$1,$8,$9*
0 Add four rect primitives between the rounded corners*
20,1,$1+$1,$2,$3,$4,$5,0*
20,1,$1+$1,$4,$5,$6,$7,0*
20,1,$1+$1,$6,$7,$8,$9,0*
20,1,$1+$1,$8,$9,$2,$3,0*%
G04 Aperture macros list end*
%ADD10RoundRect,0.250000X0.450000X-0.262500X0.450000X0.262500X-0.450000X0.262500X-0.450000X-0.262500X0*%
%ADD11R,1.600000X1.600000*%
%ADD12O,1.600000X1.600000*%
%ADD13RoundRect,0.243750X-0.456250X0.243750X-0.456250X-0.243750X0.456250X-0.243750X0.456250X0.243750X0*%
%ADD14RoundRect,0.250000X-0.450000X0.262500X-0.450000X-0.262500X0.450000X-0.262500X0.450000X0.262500X0*%
%ADD15RoundRect,0.102000X-0.685000X-0.685000X0.685000X-0.685000X0.685000X0.685000X-0.685000X0.685000X0*%
%ADD16C,1.574000*%
%ADD17R,1.700000X1.700000*%
%ADD18O,1.700000X1.700000*%
%ADD19C,1.900000*%
G04 APERTURE END LIST*
D10*
%TO.C,R26*%
X222435000Y-74325000D03*
X222435000Y-72500000D03*
%TD*%
D11*
%TO.C,U13*%
X214863076Y-77742500D03*
D12*
X212323076Y-77742500D03*
X212323076Y-85362500D03*
X214863076Y-85362500D03*
%TD*%
D13*
%TO.C,D1*%
X124000000Y-88562500D03*
X124000000Y-90437500D03*
%TD*%
%TO.C,D13*%
X214863076Y-88562500D03*
X214863076Y-90437500D03*
%TD*%
%TO.C,D3*%
X139143846Y-88562500D03*
X139143846Y-90437500D03*
%TD*%
D14*
%TO.C,R6*%
X131571923Y-92087500D03*
X131571923Y-93912500D03*
%TD*%
D10*
%TO.C,R1*%
X124000000Y-74325000D03*
X124000000Y-72500000D03*
%TD*%
%TO.C,R9*%
X154287692Y-74325000D03*
X154287692Y-72500000D03*
%TD*%
D13*
%TO.C,D2*%
X131571923Y-88562500D03*
X131571923Y-90437500D03*
%TD*%
D11*
%TO.C,U6*%
X161859615Y-77742500D03*
D12*
X159319615Y-77742500D03*
X159319615Y-85362500D03*
X161859615Y-85362500D03*
%TD*%
D13*
%TO.C,D10*%
X192147307Y-88562500D03*
X192147307Y-90437500D03*
%TD*%
D11*
%TO.C,U14*%
X222435000Y-77742500D03*
D12*
X219895000Y-77742500D03*
X219895000Y-85362500D03*
X222435000Y-85362500D03*
%TD*%
D15*
%TO.C,J4*%
X211050000Y-99000000D03*
D16*
X205970000Y-99000000D03*
X200890000Y-99000000D03*
X195810000Y-99000000D03*
X190730000Y-99000000D03*
X185650000Y-99000000D03*
X180570000Y-99000000D03*
X175490000Y-99000000D03*
X170410000Y-99000000D03*
X165330000Y-99000000D03*
X160250000Y-99000000D03*
X155170000Y-99000000D03*
X150090000Y-99000000D03*
X145010000Y-99000000D03*
X139930000Y-99000000D03*
X134850000Y-99000000D03*
X129770000Y-99000000D03*
%TD*%
D11*
%TO.C,U9*%
X184575384Y-77742500D03*
D12*
X182035384Y-77742500D03*
X182035384Y-85362500D03*
X184575384Y-85362500D03*
%TD*%
D13*
%TO.C,D12*%
X207291153Y-88562500D03*
X207291153Y-90437500D03*
%TD*%
D10*
%TO.C,R3*%
X139143846Y-74325000D03*
X139143846Y-72500000D03*
%TD*%
D13*
%TO.C,D6*%
X161859615Y-88562500D03*
X161859615Y-90437500D03*
%TD*%
D14*
%TO.C,R14*%
X161859615Y-92087500D03*
X161859615Y-93912500D03*
%TD*%
%TO.C,R16*%
X177000000Y-92087500D03*
X177000000Y-93912500D03*
%TD*%
D10*
%TO.C,R11*%
X169431538Y-74325000D03*
X169431538Y-72500000D03*
%TD*%
D13*
%TO.C,D14*%
X222435000Y-88562500D03*
X222435000Y-90437500D03*
%TD*%
D11*
%TO.C,U10*%
X192147307Y-77742500D03*
D12*
X189607307Y-77742500D03*
X189607307Y-85362500D03*
X192147307Y-85362500D03*
%TD*%
D11*
%TO.C,U12*%
X207291153Y-77742500D03*
D12*
X204751153Y-77742500D03*
X204751153Y-85362500D03*
X207291153Y-85362500D03*
%TD*%
D17*
%TO.C,J2*%
X219500000Y-104000000D03*
D18*
X222040000Y-104000000D03*
X224580000Y-104000000D03*
%TD*%
D13*
%TO.C,D11*%
X199719230Y-88562500D03*
X199719230Y-90437500D03*
%TD*%
%TO.C,D9*%
X184575384Y-88562500D03*
X184575384Y-90437500D03*
%TD*%
D17*
%TO.C,J1*%
X124580000Y-104000000D03*
D18*
X122040000Y-104000000D03*
X119500000Y-104000000D03*
%TD*%
D14*
%TO.C,R7*%
X139143846Y-92087500D03*
X139143846Y-93912500D03*
%TD*%
D10*
%TO.C,R2*%
X131571923Y-74325000D03*
X131571923Y-72500000D03*
%TD*%
%TO.C,R18*%
X192147307Y-74325000D03*
X192147307Y-72500000D03*
%TD*%
D19*
%TO.C,J5*%
X156804904Y-61180799D03*
X156804904Y-56180799D03*
X153304903Y-61180799D03*
X153304903Y-56180799D03*
X149804902Y-61180799D03*
X149804902Y-56180799D03*
X146304902Y-61180799D03*
X146304902Y-56180799D03*
X142804901Y-61180799D03*
X142804901Y-56180799D03*
X139304901Y-61180799D03*
X139304901Y-56180799D03*
X135804900Y-61180799D03*
X135804900Y-56180799D03*
X132304899Y-61180799D03*
X132304899Y-56180799D03*
%TD*%
D11*
%TO.C,U7*%
X169431538Y-77742500D03*
D12*
X166891538Y-77742500D03*
X166891538Y-85362500D03*
X169431538Y-85362500D03*
%TD*%
D13*
%TO.C,D5*%
X154287692Y-88562500D03*
X154287692Y-90437500D03*
%TD*%
D14*
%TO.C,R21*%
X184575384Y-92087500D03*
X184575384Y-93912500D03*
%TD*%
D11*
%TO.C,U8*%
X177003461Y-77742500D03*
D12*
X174463461Y-77742500D03*
X174463461Y-85362500D03*
X177003461Y-85362500D03*
%TD*%
D10*
%TO.C,R20*%
X207291153Y-74325000D03*
X207291153Y-72500000D03*
%TD*%
%TO.C,R19*%
X199719230Y-74325000D03*
X199719230Y-72500000D03*
%TD*%
%TO.C,R4*%
X146715769Y-74325000D03*
X146715769Y-72500000D03*
%TD*%
D13*
%TO.C,D4*%
X146715769Y-88562500D03*
X146715769Y-90437500D03*
%TD*%
D14*
%TO.C,R15*%
X169431538Y-92087500D03*
X169431538Y-93912500D03*
%TD*%
D11*
%TO.C,U11*%
X199719230Y-77742500D03*
D12*
X197179230Y-77742500D03*
X197179230Y-85362500D03*
X199719230Y-85362500D03*
%TD*%
D11*
%TO.C,U5*%
X154287692Y-77742500D03*
D12*
X151747692Y-77742500D03*
X151747692Y-85362500D03*
X154287692Y-85362500D03*
%TD*%
D13*
%TO.C,D8*%
X177003461Y-88562500D03*
X177003461Y-90437500D03*
%TD*%
D11*
%TO.C,U1*%
X124000000Y-77742500D03*
D12*
X121460000Y-77742500D03*
X121460000Y-85362500D03*
X124000000Y-85362500D03*
%TD*%
D13*
%TO.C,D7*%
X169431538Y-88562500D03*
X169431538Y-90437500D03*
%TD*%
D10*
%TO.C,R17*%
X184575384Y-74325000D03*
X184575384Y-72500000D03*
%TD*%
D14*
%TO.C,R24*%
X207291153Y-92087500D03*
X207291153Y-93912500D03*
%TD*%
D10*
%TO.C,R10*%
X161859615Y-74325000D03*
X161859615Y-72500000D03*
%TD*%
%TO.C,R12*%
X177003461Y-74325000D03*
X177003461Y-72500000D03*
%TD*%
D14*
%TO.C,R8*%
X146715769Y-92087500D03*
X146715769Y-93912500D03*
%TD*%
%TO.C,R22*%
X192147307Y-92087500D03*
X192147307Y-93912500D03*
%TD*%
%TO.C,R23*%
X199719230Y-92087500D03*
X199719230Y-93912500D03*
%TD*%
%TO.C,R5*%
X124000000Y-92087500D03*
X124000000Y-93912500D03*
%TD*%
D11*
%TO.C,U3*%
X139143846Y-77742500D03*
D12*
X136603846Y-77742500D03*
X136603846Y-85362500D03*
X139143846Y-85362500D03*
%TD*%
D11*
%TO.C,U2*%
X131571923Y-77742500D03*
D12*
X129031923Y-77742500D03*
X129031923Y-85362500D03*
X131571923Y-85362500D03*
%TD*%
D14*
%TO.C,R27*%
X214863076Y-92087500D03*
X214863076Y-93912500D03*
%TD*%
D11*
%TO.C,U4*%
X146715769Y-77742500D03*
D12*
X144175769Y-77742500D03*
X144175769Y-85362500D03*
X146715769Y-85362500D03*
%TD*%
D10*
%TO.C,R25*%
X214863076Y-74325000D03*
X214863076Y-72500000D03*
%TD*%
D14*
%TO.C,R28*%
X222435000Y-92087500D03*
X222435000Y-93912500D03*
%TD*%
D19*
%TO.C,J6*%
X212500000Y-61150399D03*
X212500000Y-56150399D03*
X208999999Y-61150399D03*
X208999999Y-56150399D03*
X205499998Y-61150399D03*
X205499998Y-56150399D03*
X201999998Y-61150399D03*
X201999998Y-56150399D03*
X198499997Y-61150399D03*
X198499997Y-56150399D03*
X194999997Y-61150399D03*
X194999997Y-56150399D03*
X191499996Y-61150399D03*
X191499996Y-56150399D03*
X187999995Y-61150399D03*
X187999995Y-56150399D03*
%TD*%
D14*
%TO.C,R13*%
X154287692Y-92087500D03*
X154287692Y-93912500D03*
%TD*%
M02*
