%TF.GenerationSoftware,KiCad,Pcbnew,8.0.7*%
%TF.CreationDate,2025-04-06T16:58:41-05:00*%
%TF.ProjectId,inputs,696e7075-7473-42e6-9b69-6361645f7063,rev?*%
%TF.SameCoordinates,Original*%
%TF.FileFunction,Legend,Top*%
%TF.FilePolarity,Positive*%
%FSLAX46Y46*%
G04 Gerber Fmt 4.6, Leading zero omitted, Abs format (unit mm)*
G04 Created by KiCad (PCBNEW 8.0.7) date 2025-04-06 16:58:41*
%MOMM*%
%LPD*%
G01*
G04 APERTURE LIST*
G04 Aperture macros list*
%AMRoundRect*
0 Rectangle with rounded corners*
0 $1 Rounding radius*
0 $2 $3 $4 $5 $6 $7 $8 $9 X,Y pos of 4 corners*
0 Add a 4 corners polygon primitive as box body*
4,1,4,$2,$3,$4,$5,$6,$7,$8,$9,$2,$3,0*
0 Add four circle primitives for the rounded corners*
1,1,$1+$1,$2,$3*
1,1,$1+$1,$4,$5*
1,1,$1+$1,$6,$7*
1,1,$1+$1,$8,$9*
0 Add four rect primitives between the rounded corners*
20,1,$1+$1,$2,$3,$4,$5,0*
20,1,$1+$1,$4,$5,$6,$7,0*
20,1,$1+$1,$6,$7,$8,$9,0*
20,1,$1+$1,$8,$9,$2,$3,0*%
G04 Aperture macros list end*
%ADD10C,0.500000*%
%ADD11C,0.100000*%
%ADD12C,0.150000*%
%ADD13C,0.200000*%
%ADD14C,0.120000*%
%ADD15C,0.508000*%
%ADD16C,0.152400*%
%ADD17RoundRect,0.250000X0.450000X-0.262500X0.450000X0.262500X-0.450000X0.262500X-0.450000X-0.262500X0*%
%ADD18R,1.600000X1.600000*%
%ADD19O,1.600000X1.600000*%
%ADD20RoundRect,0.243750X-0.456250X0.243750X-0.456250X-0.243750X0.456250X-0.243750X0.456250X0.243750X0*%
%ADD21RoundRect,0.250000X-0.450000X0.262500X-0.450000X-0.262500X0.450000X-0.262500X0.450000X0.262500X0*%
%ADD22RoundRect,0.102000X-0.685000X-0.685000X0.685000X-0.685000X0.685000X0.685000X-0.685000X0.685000X0*%
%ADD23C,1.574000*%
%ADD24R,1.700000X1.700000*%
%ADD25O,1.700000X1.700000*%
%ADD26C,1.900000*%
G04 APERTURE END LIST*
D10*
X219000000Y-106500000D02*
X223000000Y-106500000D01*
X122000000Y-106500000D02*
X126000000Y-106500000D01*
D11*
X150113406Y-67872419D02*
X149637216Y-67872419D01*
X149637216Y-67872419D02*
X149589597Y-68348609D01*
X149589597Y-68348609D02*
X149637216Y-68300990D01*
X149637216Y-68300990D02*
X149732454Y-68253371D01*
X149732454Y-68253371D02*
X149970549Y-68253371D01*
X149970549Y-68253371D02*
X150065787Y-68300990D01*
X150065787Y-68300990D02*
X150113406Y-68348609D01*
X150113406Y-68348609D02*
X150161025Y-68443847D01*
X150161025Y-68443847D02*
X150161025Y-68681942D01*
X150161025Y-68681942D02*
X150113406Y-68777180D01*
X150113406Y-68777180D02*
X150065787Y-68824800D01*
X150065787Y-68824800D02*
X149970549Y-68872419D01*
X149970549Y-68872419D02*
X149732454Y-68872419D01*
X149732454Y-68872419D02*
X149637216Y-68824800D01*
X149637216Y-68824800D02*
X149589597Y-68777180D01*
X175541979Y-61488133D02*
X177065789Y-61488133D01*
X176303884Y-62250038D02*
X176303884Y-60726228D01*
X177922931Y-60440514D02*
X178018169Y-60345276D01*
X178018169Y-60345276D02*
X178208645Y-60250038D01*
X178208645Y-60250038D02*
X178684836Y-60250038D01*
X178684836Y-60250038D02*
X178875312Y-60345276D01*
X178875312Y-60345276D02*
X178970550Y-60440514D01*
X178970550Y-60440514D02*
X179065788Y-60630990D01*
X179065788Y-60630990D02*
X179065788Y-60821466D01*
X179065788Y-60821466D02*
X178970550Y-61107180D01*
X178970550Y-61107180D02*
X177827693Y-62250038D01*
X177827693Y-62250038D02*
X179065788Y-62250038D01*
X180780074Y-60916704D02*
X180780074Y-62250038D01*
X180303883Y-60154800D02*
X179827693Y-61583371D01*
X179827693Y-61583371D02*
X181065788Y-61583371D01*
X181637217Y-60916704D02*
X182113407Y-62250038D01*
X182113407Y-62250038D02*
X182589598Y-60916704D01*
X160196495Y-101183830D02*
X160196495Y-101850497D01*
X159958400Y-100802878D02*
X159720305Y-101517163D01*
X159720305Y-101517163D02*
X160339352Y-101517163D01*
X205827693Y-101872419D02*
X205256265Y-101872419D01*
X205541979Y-101872419D02*
X205541979Y-100872419D01*
X205541979Y-100872419D02*
X205446741Y-101015276D01*
X205446741Y-101015276D02*
X205351503Y-101110514D01*
X205351503Y-101110514D02*
X205256265Y-101158133D01*
X206161027Y-100872419D02*
X206780074Y-100872419D01*
X206780074Y-100872419D02*
X206446741Y-101253371D01*
X206446741Y-101253371D02*
X206589598Y-101253371D01*
X206589598Y-101253371D02*
X206684836Y-101300990D01*
X206684836Y-101300990D02*
X206732455Y-101348609D01*
X206732455Y-101348609D02*
X206780074Y-101443847D01*
X206780074Y-101443847D02*
X206780074Y-101681942D01*
X206780074Y-101681942D02*
X206732455Y-101777180D01*
X206732455Y-101777180D02*
X206684836Y-101824800D01*
X206684836Y-101824800D02*
X206589598Y-101872419D01*
X206589598Y-101872419D02*
X206303884Y-101872419D01*
X206303884Y-101872419D02*
X206208646Y-101824800D01*
X206208646Y-101824800D02*
X206161027Y-101777180D01*
X210327693Y-68872419D02*
X209756265Y-68872419D01*
X210041979Y-68872419D02*
X210041979Y-67872419D01*
X210041979Y-67872419D02*
X209946741Y-68015276D01*
X209946741Y-68015276D02*
X209851503Y-68110514D01*
X209851503Y-68110514D02*
X209756265Y-68158133D01*
X211184836Y-68205752D02*
X211184836Y-68872419D01*
X210946741Y-67824800D02*
X210708646Y-68539085D01*
X210708646Y-68539085D02*
X211327693Y-68539085D01*
X200827693Y-101872419D02*
X200256265Y-101872419D01*
X200541979Y-101872419D02*
X200541979Y-100872419D01*
X200541979Y-100872419D02*
X200446741Y-101015276D01*
X200446741Y-101015276D02*
X200351503Y-101110514D01*
X200351503Y-101110514D02*
X200256265Y-101158133D01*
X201208646Y-100967657D02*
X201256265Y-100920038D01*
X201256265Y-100920038D02*
X201351503Y-100872419D01*
X201351503Y-100872419D02*
X201589598Y-100872419D01*
X201589598Y-100872419D02*
X201684836Y-100920038D01*
X201684836Y-100920038D02*
X201732455Y-100967657D01*
X201732455Y-100967657D02*
X201780074Y-101062895D01*
X201780074Y-101062895D02*
X201780074Y-101158133D01*
X201780074Y-101158133D02*
X201732455Y-101300990D01*
X201732455Y-101300990D02*
X201161027Y-101872419D01*
X201161027Y-101872419D02*
X201780074Y-101872419D01*
X149756265Y-100967657D02*
X149803884Y-100920038D01*
X149803884Y-100920038D02*
X149899122Y-100872419D01*
X149899122Y-100872419D02*
X150137217Y-100872419D01*
X150137217Y-100872419D02*
X150232455Y-100920038D01*
X150232455Y-100920038D02*
X150280074Y-100967657D01*
X150280074Y-100967657D02*
X150327693Y-101062895D01*
X150327693Y-101062895D02*
X150327693Y-101158133D01*
X150327693Y-101158133D02*
X150280074Y-101300990D01*
X150280074Y-101300990D02*
X149708646Y-101872419D01*
X149708646Y-101872419D02*
X150327693Y-101872419D01*
X127803884Y-101491466D02*
X128565789Y-101491466D01*
X128184836Y-101872419D02*
X128184836Y-101110514D01*
X128994360Y-100967657D02*
X129041979Y-100920038D01*
X129041979Y-100920038D02*
X129137217Y-100872419D01*
X129137217Y-100872419D02*
X129375312Y-100872419D01*
X129375312Y-100872419D02*
X129470550Y-100920038D01*
X129470550Y-100920038D02*
X129518169Y-100967657D01*
X129518169Y-100967657D02*
X129565788Y-101062895D01*
X129565788Y-101062895D02*
X129565788Y-101158133D01*
X129565788Y-101158133D02*
X129518169Y-101300990D01*
X129518169Y-101300990D02*
X128946741Y-101872419D01*
X128946741Y-101872419D02*
X129565788Y-101872419D01*
X130422931Y-101205752D02*
X130422931Y-101872419D01*
X130184836Y-100824800D02*
X129946741Y-101539085D01*
X129946741Y-101539085D02*
X130565788Y-101539085D01*
X130851503Y-101205752D02*
X131089598Y-101872419D01*
X131089598Y-101872419D02*
X131327693Y-101205752D01*
X180446741Y-101300990D02*
X180351503Y-101253371D01*
X180351503Y-101253371D02*
X180303884Y-101205752D01*
X180303884Y-101205752D02*
X180256265Y-101110514D01*
X180256265Y-101110514D02*
X180256265Y-101062895D01*
X180256265Y-101062895D02*
X180303884Y-100967657D01*
X180303884Y-100967657D02*
X180351503Y-100920038D01*
X180351503Y-100920038D02*
X180446741Y-100872419D01*
X180446741Y-100872419D02*
X180637217Y-100872419D01*
X180637217Y-100872419D02*
X180732455Y-100920038D01*
X180732455Y-100920038D02*
X180780074Y-100967657D01*
X180780074Y-100967657D02*
X180827693Y-101062895D01*
X180827693Y-101062895D02*
X180827693Y-101110514D01*
X180827693Y-101110514D02*
X180780074Y-101205752D01*
X180780074Y-101205752D02*
X180732455Y-101253371D01*
X180732455Y-101253371D02*
X180637217Y-101300990D01*
X180637217Y-101300990D02*
X180446741Y-101300990D01*
X180446741Y-101300990D02*
X180351503Y-101348609D01*
X180351503Y-101348609D02*
X180303884Y-101396228D01*
X180303884Y-101396228D02*
X180256265Y-101491466D01*
X180256265Y-101491466D02*
X180256265Y-101681942D01*
X180256265Y-101681942D02*
X180303884Y-101777180D01*
X180303884Y-101777180D02*
X180351503Y-101824800D01*
X180351503Y-101824800D02*
X180446741Y-101872419D01*
X180446741Y-101872419D02*
X180637217Y-101872419D01*
X180637217Y-101872419D02*
X180732455Y-101824800D01*
X180732455Y-101824800D02*
X180780074Y-101777180D01*
X180780074Y-101777180D02*
X180827693Y-101681942D01*
X180827693Y-101681942D02*
X180827693Y-101491466D01*
X180827693Y-101491466D02*
X180780074Y-101396228D01*
X180780074Y-101396228D02*
X180732455Y-101348609D01*
X180732455Y-101348609D02*
X180637217Y-101300990D01*
X198875311Y-68872419D02*
X198303883Y-68872419D01*
X198589597Y-68872419D02*
X198589597Y-67872419D01*
X198589597Y-67872419D02*
X198494359Y-68015276D01*
X198494359Y-68015276D02*
X198399121Y-68110514D01*
X198399121Y-68110514D02*
X198303883Y-68158133D01*
X199827692Y-68872419D02*
X199256264Y-68872419D01*
X199541978Y-68872419D02*
X199541978Y-67872419D01*
X199541978Y-67872419D02*
X199446740Y-68015276D01*
X199446740Y-68015276D02*
X199351502Y-68110514D01*
X199351502Y-68110514D02*
X199256264Y-68158133D01*
X175208646Y-100872419D02*
X175875312Y-100872419D01*
X175875312Y-100872419D02*
X175446741Y-101872419D01*
X122690476Y-108152531D02*
X122119048Y-108152531D01*
X122404762Y-108152531D02*
X122404762Y-107152531D01*
X122404762Y-107152531D02*
X122309524Y-107295388D01*
X122309524Y-107295388D02*
X122214286Y-107390626D01*
X122214286Y-107390626D02*
X122119048Y-107438245D01*
X123119048Y-107771578D02*
X123880953Y-107771578D01*
X124261905Y-107152531D02*
X124928571Y-107152531D01*
X124928571Y-107152531D02*
X124500000Y-108152531D01*
X121119047Y-109667236D02*
X121071428Y-109714856D01*
X121071428Y-109714856D02*
X120928571Y-109762475D01*
X120928571Y-109762475D02*
X120833333Y-109762475D01*
X120833333Y-109762475D02*
X120690476Y-109714856D01*
X120690476Y-109714856D02*
X120595238Y-109619617D01*
X120595238Y-109619617D02*
X120547619Y-109524379D01*
X120547619Y-109524379D02*
X120500000Y-109333903D01*
X120500000Y-109333903D02*
X120500000Y-109191046D01*
X120500000Y-109191046D02*
X120547619Y-109000570D01*
X120547619Y-109000570D02*
X120595238Y-108905332D01*
X120595238Y-108905332D02*
X120690476Y-108810094D01*
X120690476Y-108810094D02*
X120833333Y-108762475D01*
X120833333Y-108762475D02*
X120928571Y-108762475D01*
X120928571Y-108762475D02*
X121071428Y-108810094D01*
X121071428Y-108810094D02*
X121119047Y-108857713D01*
X121690476Y-109762475D02*
X121595238Y-109714856D01*
X121595238Y-109714856D02*
X121547619Y-109667236D01*
X121547619Y-109667236D02*
X121500000Y-109571998D01*
X121500000Y-109571998D02*
X121500000Y-109286284D01*
X121500000Y-109286284D02*
X121547619Y-109191046D01*
X121547619Y-109191046D02*
X121595238Y-109143427D01*
X121595238Y-109143427D02*
X121690476Y-109095808D01*
X121690476Y-109095808D02*
X121833333Y-109095808D01*
X121833333Y-109095808D02*
X121928571Y-109143427D01*
X121928571Y-109143427D02*
X121976190Y-109191046D01*
X121976190Y-109191046D02*
X122023809Y-109286284D01*
X122023809Y-109286284D02*
X122023809Y-109571998D01*
X122023809Y-109571998D02*
X121976190Y-109667236D01*
X121976190Y-109667236D02*
X121928571Y-109714856D01*
X121928571Y-109714856D02*
X121833333Y-109762475D01*
X121833333Y-109762475D02*
X121690476Y-109762475D01*
X122452381Y-109762475D02*
X122452381Y-109095808D01*
X122452381Y-109191046D02*
X122500000Y-109143427D01*
X122500000Y-109143427D02*
X122595238Y-109095808D01*
X122595238Y-109095808D02*
X122738095Y-109095808D01*
X122738095Y-109095808D02*
X122833333Y-109143427D01*
X122833333Y-109143427D02*
X122880952Y-109238665D01*
X122880952Y-109238665D02*
X122880952Y-109762475D01*
X122880952Y-109238665D02*
X122928571Y-109143427D01*
X122928571Y-109143427D02*
X123023809Y-109095808D01*
X123023809Y-109095808D02*
X123166666Y-109095808D01*
X123166666Y-109095808D02*
X123261905Y-109143427D01*
X123261905Y-109143427D02*
X123309524Y-109238665D01*
X123309524Y-109238665D02*
X123309524Y-109762475D01*
X123785714Y-109762475D02*
X123785714Y-109095808D01*
X123785714Y-109191046D02*
X123833333Y-109143427D01*
X123833333Y-109143427D02*
X123928571Y-109095808D01*
X123928571Y-109095808D02*
X124071428Y-109095808D01*
X124071428Y-109095808D02*
X124166666Y-109143427D01*
X124166666Y-109143427D02*
X124214285Y-109238665D01*
X124214285Y-109238665D02*
X124214285Y-109762475D01*
X124214285Y-109238665D02*
X124261904Y-109143427D01*
X124261904Y-109143427D02*
X124357142Y-109095808D01*
X124357142Y-109095808D02*
X124499999Y-109095808D01*
X124499999Y-109095808D02*
X124595238Y-109143427D01*
X124595238Y-109143427D02*
X124642857Y-109238665D01*
X124642857Y-109238665D02*
X124642857Y-109762475D01*
X125261904Y-109762475D02*
X125166666Y-109714856D01*
X125166666Y-109714856D02*
X125119047Y-109667236D01*
X125119047Y-109667236D02*
X125071428Y-109571998D01*
X125071428Y-109571998D02*
X125071428Y-109286284D01*
X125071428Y-109286284D02*
X125119047Y-109191046D01*
X125119047Y-109191046D02*
X125166666Y-109143427D01*
X125166666Y-109143427D02*
X125261904Y-109095808D01*
X125261904Y-109095808D02*
X125404761Y-109095808D01*
X125404761Y-109095808D02*
X125499999Y-109143427D01*
X125499999Y-109143427D02*
X125547618Y-109191046D01*
X125547618Y-109191046D02*
X125595237Y-109286284D01*
X125595237Y-109286284D02*
X125595237Y-109571998D01*
X125595237Y-109571998D02*
X125547618Y-109667236D01*
X125547618Y-109667236D02*
X125499999Y-109714856D01*
X125499999Y-109714856D02*
X125404761Y-109762475D01*
X125404761Y-109762475D02*
X125261904Y-109762475D01*
X126023809Y-109095808D02*
X126023809Y-109762475D01*
X126023809Y-109191046D02*
X126071428Y-109143427D01*
X126071428Y-109143427D02*
X126166666Y-109095808D01*
X126166666Y-109095808D02*
X126309523Y-109095808D01*
X126309523Y-109095808D02*
X126404761Y-109143427D01*
X126404761Y-109143427D02*
X126452380Y-109238665D01*
X126452380Y-109238665D02*
X126452380Y-109762475D01*
X122738095Y-110420038D02*
X122642857Y-110372419D01*
X122642857Y-110372419D02*
X122500000Y-110372419D01*
X122500000Y-110372419D02*
X122357143Y-110420038D01*
X122357143Y-110420038D02*
X122261905Y-110515276D01*
X122261905Y-110515276D02*
X122214286Y-110610514D01*
X122214286Y-110610514D02*
X122166667Y-110800990D01*
X122166667Y-110800990D02*
X122166667Y-110943847D01*
X122166667Y-110943847D02*
X122214286Y-111134323D01*
X122214286Y-111134323D02*
X122261905Y-111229561D01*
X122261905Y-111229561D02*
X122357143Y-111324800D01*
X122357143Y-111324800D02*
X122500000Y-111372419D01*
X122500000Y-111372419D02*
X122595238Y-111372419D01*
X122595238Y-111372419D02*
X122738095Y-111324800D01*
X122738095Y-111324800D02*
X122785714Y-111277180D01*
X122785714Y-111277180D02*
X122785714Y-110943847D01*
X122785714Y-110943847D02*
X122595238Y-110943847D01*
X123214286Y-111372419D02*
X123214286Y-110372419D01*
X123214286Y-110372419D02*
X123785714Y-111372419D01*
X123785714Y-111372419D02*
X123785714Y-110372419D01*
X124261905Y-111372419D02*
X124261905Y-110372419D01*
X124261905Y-110372419D02*
X124500000Y-110372419D01*
X124500000Y-110372419D02*
X124642857Y-110420038D01*
X124642857Y-110420038D02*
X124738095Y-110515276D01*
X124738095Y-110515276D02*
X124785714Y-110610514D01*
X124785714Y-110610514D02*
X124833333Y-110800990D01*
X124833333Y-110800990D02*
X124833333Y-110943847D01*
X124833333Y-110943847D02*
X124785714Y-111134323D01*
X124785714Y-111134323D02*
X124738095Y-111229561D01*
X124738095Y-111229561D02*
X124642857Y-111324800D01*
X124642857Y-111324800D02*
X124500000Y-111372419D01*
X124500000Y-111372419D02*
X124261905Y-111372419D01*
D12*
X213360588Y-67917438D02*
X213265350Y-67869819D01*
X213265350Y-67869819D02*
X213122493Y-67869819D01*
X213122493Y-67869819D02*
X212979636Y-67917438D01*
X212979636Y-67917438D02*
X212884398Y-68012676D01*
X212884398Y-68012676D02*
X212836779Y-68107914D01*
X212836779Y-68107914D02*
X212789160Y-68298390D01*
X212789160Y-68298390D02*
X212789160Y-68441247D01*
X212789160Y-68441247D02*
X212836779Y-68631723D01*
X212836779Y-68631723D02*
X212884398Y-68726961D01*
X212884398Y-68726961D02*
X212979636Y-68822200D01*
X212979636Y-68822200D02*
X213122493Y-68869819D01*
X213122493Y-68869819D02*
X213217731Y-68869819D01*
X213217731Y-68869819D02*
X213360588Y-68822200D01*
X213360588Y-68822200D02*
X213408207Y-68774580D01*
X213408207Y-68774580D02*
X213408207Y-68441247D01*
X213408207Y-68441247D02*
X213217731Y-68441247D01*
X213836779Y-68869819D02*
X213836779Y-67869819D01*
X213836779Y-67869819D02*
X214408207Y-68869819D01*
X214408207Y-68869819D02*
X214408207Y-67869819D01*
X214884398Y-68869819D02*
X214884398Y-67869819D01*
X214884398Y-67869819D02*
X215122493Y-67869819D01*
X215122493Y-67869819D02*
X215265350Y-67917438D01*
X215265350Y-67917438D02*
X215360588Y-68012676D01*
X215360588Y-68012676D02*
X215408207Y-68107914D01*
X215408207Y-68107914D02*
X215455826Y-68298390D01*
X215455826Y-68298390D02*
X215455826Y-68441247D01*
X215455826Y-68441247D02*
X215408207Y-68631723D01*
X215408207Y-68631723D02*
X215360588Y-68726961D01*
X215360588Y-68726961D02*
X215265350Y-68822200D01*
X215265350Y-68822200D02*
X215122493Y-68869819D01*
X215122493Y-68869819D02*
X214884398Y-68869819D01*
D13*
X129845863Y-110542625D02*
X129845863Y-107542625D01*
X129845863Y-107542625D02*
X130988720Y-107542625D01*
X130988720Y-107542625D02*
X131274435Y-107685482D01*
X131274435Y-107685482D02*
X131417292Y-107828339D01*
X131417292Y-107828339D02*
X131560149Y-108114053D01*
X131560149Y-108114053D02*
X131560149Y-108542625D01*
X131560149Y-108542625D02*
X131417292Y-108828339D01*
X131417292Y-108828339D02*
X131274435Y-108971196D01*
X131274435Y-108971196D02*
X130988720Y-109114053D01*
X130988720Y-109114053D02*
X129845863Y-109114053D01*
X134274435Y-110542625D02*
X132845863Y-110542625D01*
X132845863Y-110542625D02*
X132845863Y-107542625D01*
X136988720Y-110256910D02*
X136845863Y-110399768D01*
X136845863Y-110399768D02*
X136417291Y-110542625D01*
X136417291Y-110542625D02*
X136131577Y-110542625D01*
X136131577Y-110542625D02*
X135703006Y-110399768D01*
X135703006Y-110399768D02*
X135417291Y-110114053D01*
X135417291Y-110114053D02*
X135274434Y-109828339D01*
X135274434Y-109828339D02*
X135131577Y-109256910D01*
X135131577Y-109256910D02*
X135131577Y-108828339D01*
X135131577Y-108828339D02*
X135274434Y-108256910D01*
X135274434Y-108256910D02*
X135417291Y-107971196D01*
X135417291Y-107971196D02*
X135703006Y-107685482D01*
X135703006Y-107685482D02*
X136131577Y-107542625D01*
X136131577Y-107542625D02*
X136417291Y-107542625D01*
X136417291Y-107542625D02*
X136845863Y-107685482D01*
X136845863Y-107685482D02*
X136988720Y-107828339D01*
X140560148Y-110542625D02*
X140560148Y-107542625D01*
X141988719Y-108542625D02*
X141988719Y-110542625D01*
X141988719Y-108828339D02*
X142131576Y-108685482D01*
X142131576Y-108685482D02*
X142417291Y-108542625D01*
X142417291Y-108542625D02*
X142845862Y-108542625D01*
X142845862Y-108542625D02*
X143131576Y-108685482D01*
X143131576Y-108685482D02*
X143274434Y-108971196D01*
X143274434Y-108971196D02*
X143274434Y-110542625D01*
X144703005Y-108542625D02*
X144703005Y-111542625D01*
X144703005Y-108685482D02*
X144988720Y-108542625D01*
X144988720Y-108542625D02*
X145560148Y-108542625D01*
X145560148Y-108542625D02*
X145845862Y-108685482D01*
X145845862Y-108685482D02*
X145988720Y-108828339D01*
X145988720Y-108828339D02*
X146131577Y-109114053D01*
X146131577Y-109114053D02*
X146131577Y-109971196D01*
X146131577Y-109971196D02*
X145988720Y-110256910D01*
X145988720Y-110256910D02*
X145845862Y-110399768D01*
X145845862Y-110399768D02*
X145560148Y-110542625D01*
X145560148Y-110542625D02*
X144988720Y-110542625D01*
X144988720Y-110542625D02*
X144703005Y-110399768D01*
X148703006Y-108542625D02*
X148703006Y-110542625D01*
X147417291Y-108542625D02*
X147417291Y-110114053D01*
X147417291Y-110114053D02*
X147560148Y-110399768D01*
X147560148Y-110399768D02*
X147845863Y-110542625D01*
X147845863Y-110542625D02*
X148274434Y-110542625D01*
X148274434Y-110542625D02*
X148560148Y-110399768D01*
X148560148Y-110399768D02*
X148703006Y-110256910D01*
X149703006Y-108542625D02*
X150845863Y-108542625D01*
X150131577Y-107542625D02*
X150131577Y-110114053D01*
X150131577Y-110114053D02*
X150274434Y-110399768D01*
X150274434Y-110399768D02*
X150560149Y-110542625D01*
X150560149Y-110542625D02*
X150845863Y-110542625D01*
X155845863Y-110256910D02*
X155703006Y-110399768D01*
X155703006Y-110399768D02*
X155274434Y-110542625D01*
X155274434Y-110542625D02*
X154988720Y-110542625D01*
X154988720Y-110542625D02*
X154560149Y-110399768D01*
X154560149Y-110399768D02*
X154274434Y-110114053D01*
X154274434Y-110114053D02*
X154131577Y-109828339D01*
X154131577Y-109828339D02*
X153988720Y-109256910D01*
X153988720Y-109256910D02*
X153988720Y-108828339D01*
X153988720Y-108828339D02*
X154131577Y-108256910D01*
X154131577Y-108256910D02*
X154274434Y-107971196D01*
X154274434Y-107971196D02*
X154560149Y-107685482D01*
X154560149Y-107685482D02*
X154988720Y-107542625D01*
X154988720Y-107542625D02*
X155274434Y-107542625D01*
X155274434Y-107542625D02*
X155703006Y-107685482D01*
X155703006Y-107685482D02*
X155845863Y-107828339D01*
X158417292Y-110542625D02*
X158417292Y-108971196D01*
X158417292Y-108971196D02*
X158274434Y-108685482D01*
X158274434Y-108685482D02*
X157988720Y-108542625D01*
X157988720Y-108542625D02*
X157417292Y-108542625D01*
X157417292Y-108542625D02*
X157131577Y-108685482D01*
X158417292Y-110399768D02*
X158131577Y-110542625D01*
X158131577Y-110542625D02*
X157417292Y-110542625D01*
X157417292Y-110542625D02*
X157131577Y-110399768D01*
X157131577Y-110399768D02*
X156988720Y-110114053D01*
X156988720Y-110114053D02*
X156988720Y-109828339D01*
X156988720Y-109828339D02*
X157131577Y-109542625D01*
X157131577Y-109542625D02*
X157417292Y-109399768D01*
X157417292Y-109399768D02*
X158131577Y-109399768D01*
X158131577Y-109399768D02*
X158417292Y-109256910D01*
X159845863Y-110542625D02*
X159845863Y-108542625D01*
X159845863Y-109114053D02*
X159988720Y-108828339D01*
X159988720Y-108828339D02*
X160131578Y-108685482D01*
X160131578Y-108685482D02*
X160417292Y-108542625D01*
X160417292Y-108542625D02*
X160703006Y-108542625D01*
X162988721Y-110542625D02*
X162988721Y-107542625D01*
X162988721Y-110399768D02*
X162703006Y-110542625D01*
X162703006Y-110542625D02*
X162131578Y-110542625D01*
X162131578Y-110542625D02*
X161845863Y-110399768D01*
X161845863Y-110399768D02*
X161703006Y-110256910D01*
X161703006Y-110256910D02*
X161560149Y-109971196D01*
X161560149Y-109971196D02*
X161560149Y-109114053D01*
X161560149Y-109114053D02*
X161703006Y-108828339D01*
X161703006Y-108828339D02*
X161845863Y-108685482D01*
X161845863Y-108685482D02*
X162131578Y-108542625D01*
X162131578Y-108542625D02*
X162703006Y-108542625D01*
X162703006Y-108542625D02*
X162988721Y-108685482D01*
X166274435Y-108542625D02*
X167417292Y-108542625D01*
X166703006Y-110542625D02*
X166703006Y-107971196D01*
X166703006Y-107971196D02*
X166845863Y-107685482D01*
X166845863Y-107685482D02*
X167131578Y-107542625D01*
X167131578Y-107542625D02*
X167417292Y-107542625D01*
X168845864Y-110542625D02*
X168560149Y-110399768D01*
X168560149Y-110399768D02*
X168417292Y-110256910D01*
X168417292Y-110256910D02*
X168274435Y-109971196D01*
X168274435Y-109971196D02*
X168274435Y-109114053D01*
X168274435Y-109114053D02*
X168417292Y-108828339D01*
X168417292Y-108828339D02*
X168560149Y-108685482D01*
X168560149Y-108685482D02*
X168845864Y-108542625D01*
X168845864Y-108542625D02*
X169274435Y-108542625D01*
X169274435Y-108542625D02*
X169560149Y-108685482D01*
X169560149Y-108685482D02*
X169703007Y-108828339D01*
X169703007Y-108828339D02*
X169845864Y-109114053D01*
X169845864Y-109114053D02*
X169845864Y-109971196D01*
X169845864Y-109971196D02*
X169703007Y-110256910D01*
X169703007Y-110256910D02*
X169560149Y-110399768D01*
X169560149Y-110399768D02*
X169274435Y-110542625D01*
X169274435Y-110542625D02*
X168845864Y-110542625D01*
X171131578Y-110542625D02*
X171131578Y-108542625D01*
X171131578Y-109114053D02*
X171274435Y-108828339D01*
X171274435Y-108828339D02*
X171417293Y-108685482D01*
X171417293Y-108685482D02*
X171703007Y-108542625D01*
X171703007Y-108542625D02*
X171988721Y-108542625D01*
X129417292Y-112372457D02*
X131131578Y-112372457D01*
X130274435Y-115372457D02*
X130274435Y-112372457D01*
X131845863Y-113372457D02*
X132417292Y-115372457D01*
X132417292Y-115372457D02*
X132988720Y-113943885D01*
X132988720Y-113943885D02*
X133560149Y-115372457D01*
X133560149Y-115372457D02*
X134131577Y-113372457D01*
X135274434Y-115372457D02*
X135274434Y-113372457D01*
X135274434Y-112372457D02*
X135131577Y-112515314D01*
X135131577Y-112515314D02*
X135274434Y-112658171D01*
X135274434Y-112658171D02*
X135417291Y-112515314D01*
X135417291Y-112515314D02*
X135274434Y-112372457D01*
X135274434Y-112372457D02*
X135274434Y-112658171D01*
X137988720Y-115372457D02*
X137988720Y-112372457D01*
X137988720Y-115229600D02*
X137703005Y-115372457D01*
X137703005Y-115372457D02*
X137131577Y-115372457D01*
X137131577Y-115372457D02*
X136845862Y-115229600D01*
X136845862Y-115229600D02*
X136703005Y-115086742D01*
X136703005Y-115086742D02*
X136560148Y-114801028D01*
X136560148Y-114801028D02*
X136560148Y-113943885D01*
X136560148Y-113943885D02*
X136703005Y-113658171D01*
X136703005Y-113658171D02*
X136845862Y-113515314D01*
X136845862Y-113515314D02*
X137131577Y-113372457D01*
X137131577Y-113372457D02*
X137703005Y-113372457D01*
X137703005Y-113372457D02*
X137988720Y-113515314D01*
X139845863Y-115372457D02*
X139560148Y-115229600D01*
X139560148Y-115229600D02*
X139417291Y-115086742D01*
X139417291Y-115086742D02*
X139274434Y-114801028D01*
X139274434Y-114801028D02*
X139274434Y-113943885D01*
X139274434Y-113943885D02*
X139417291Y-113658171D01*
X139417291Y-113658171D02*
X139560148Y-113515314D01*
X139560148Y-113515314D02*
X139845863Y-113372457D01*
X139845863Y-113372457D02*
X140274434Y-113372457D01*
X140274434Y-113372457D02*
X140560148Y-113515314D01*
X140560148Y-113515314D02*
X140703006Y-113658171D01*
X140703006Y-113658171D02*
X140845863Y-113943885D01*
X140845863Y-113943885D02*
X140845863Y-114801028D01*
X140845863Y-114801028D02*
X140703006Y-115086742D01*
X140703006Y-115086742D02*
X140560148Y-115229600D01*
X140560148Y-115229600D02*
X140274434Y-115372457D01*
X140274434Y-115372457D02*
X139845863Y-115372457D01*
X143988720Y-112372457D02*
X145703006Y-112372457D01*
X144845863Y-115372457D02*
X144845863Y-112372457D01*
X146417291Y-112372457D02*
X147131577Y-115372457D01*
X147131577Y-115372457D02*
X147703005Y-113229600D01*
X147703005Y-113229600D02*
X148274434Y-115372457D01*
X148274434Y-115372457D02*
X148988720Y-112372457D01*
X150131576Y-115372457D02*
X150131576Y-112372457D01*
X150131576Y-112372457D02*
X150845862Y-112372457D01*
X150845862Y-112372457D02*
X151274433Y-112515314D01*
X151274433Y-112515314D02*
X151560148Y-112801028D01*
X151560148Y-112801028D02*
X151703005Y-113086742D01*
X151703005Y-113086742D02*
X151845862Y-113658171D01*
X151845862Y-113658171D02*
X151845862Y-114086742D01*
X151845862Y-114086742D02*
X151703005Y-114658171D01*
X151703005Y-114658171D02*
X151560148Y-114943885D01*
X151560148Y-114943885D02*
X151274433Y-115229600D01*
X151274433Y-115229600D02*
X150845862Y-115372457D01*
X150845862Y-115372457D02*
X150131576Y-115372457D01*
X154560148Y-115372457D02*
X153131576Y-115372457D01*
X153131576Y-115372457D02*
X153131576Y-112372457D01*
X157274433Y-115086742D02*
X157131576Y-115229600D01*
X157131576Y-115229600D02*
X156703004Y-115372457D01*
X156703004Y-115372457D02*
X156417290Y-115372457D01*
X156417290Y-115372457D02*
X155988719Y-115229600D01*
X155988719Y-115229600D02*
X155703004Y-114943885D01*
X155703004Y-114943885D02*
X155560147Y-114658171D01*
X155560147Y-114658171D02*
X155417290Y-114086742D01*
X155417290Y-114086742D02*
X155417290Y-113658171D01*
X155417290Y-113658171D02*
X155560147Y-113086742D01*
X155560147Y-113086742D02*
X155703004Y-112801028D01*
X155703004Y-112801028D02*
X155988719Y-112515314D01*
X155988719Y-112515314D02*
X156417290Y-112372457D01*
X156417290Y-112372457D02*
X156703004Y-112372457D01*
X156703004Y-112372457D02*
X157131576Y-112515314D01*
X157131576Y-112515314D02*
X157274433Y-112658171D01*
X158417290Y-114515314D02*
X159845862Y-114515314D01*
X158131576Y-115372457D02*
X159131576Y-112372457D01*
X159131576Y-112372457D02*
X160131576Y-115372457D01*
X160988719Y-114515314D02*
X162417291Y-114515314D01*
X160703005Y-115372457D02*
X161703005Y-112372457D01*
X161703005Y-112372457D02*
X162703005Y-115372457D01*
X163560148Y-112658171D02*
X163703005Y-112515314D01*
X163703005Y-112515314D02*
X163988720Y-112372457D01*
X163988720Y-112372457D02*
X164703005Y-112372457D01*
X164703005Y-112372457D02*
X164988720Y-112515314D01*
X164988720Y-112515314D02*
X165131577Y-112658171D01*
X165131577Y-112658171D02*
X165274434Y-112943885D01*
X165274434Y-112943885D02*
X165274434Y-113229600D01*
X165274434Y-113229600D02*
X165131577Y-113658171D01*
X165131577Y-113658171D02*
X163417291Y-115372457D01*
X163417291Y-115372457D02*
X165274434Y-115372457D01*
X167845863Y-113372457D02*
X167845863Y-115372457D01*
X167131577Y-112229600D02*
X166417291Y-114372457D01*
X166417291Y-114372457D02*
X168274434Y-114372457D01*
X169417291Y-115372457D02*
X169417291Y-112372457D01*
X169417291Y-112372457D02*
X170131577Y-112372457D01*
X170131577Y-112372457D02*
X170560148Y-112515314D01*
X170560148Y-112515314D02*
X170845863Y-112801028D01*
X170845863Y-112801028D02*
X170988720Y-113086742D01*
X170988720Y-113086742D02*
X171131577Y-113658171D01*
X171131577Y-113658171D02*
X171131577Y-114086742D01*
X171131577Y-114086742D02*
X170988720Y-114658171D01*
X170988720Y-114658171D02*
X170845863Y-114943885D01*
X170845863Y-114943885D02*
X170560148Y-115229600D01*
X170560148Y-115229600D02*
X170131577Y-115372457D01*
X170131577Y-115372457D02*
X169417291Y-115372457D01*
X174131577Y-115372457D02*
X173131577Y-113943885D01*
X172417291Y-115372457D02*
X172417291Y-112372457D01*
X172417291Y-112372457D02*
X173560148Y-112372457D01*
X173560148Y-112372457D02*
X173845863Y-112515314D01*
X173845863Y-112515314D02*
X173988720Y-112658171D01*
X173988720Y-112658171D02*
X174131577Y-112943885D01*
X174131577Y-112943885D02*
X174131577Y-113372457D01*
X174131577Y-113372457D02*
X173988720Y-113658171D01*
X173988720Y-113658171D02*
X173845863Y-113801028D01*
X173845863Y-113801028D02*
X173560148Y-113943885D01*
X173560148Y-113943885D02*
X172417291Y-113943885D01*
X176417291Y-113801028D02*
X175417291Y-113801028D01*
X175417291Y-115372457D02*
X175417291Y-112372457D01*
X175417291Y-112372457D02*
X176845863Y-112372457D01*
D11*
X190827693Y-101872419D02*
X190256265Y-101872419D01*
X190541979Y-101872419D02*
X190541979Y-100872419D01*
X190541979Y-100872419D02*
X190446741Y-101015276D01*
X190446741Y-101015276D02*
X190351503Y-101110514D01*
X190351503Y-101110514D02*
X190256265Y-101158133D01*
X191446741Y-100872419D02*
X191541979Y-100872419D01*
X191541979Y-100872419D02*
X191637217Y-100920038D01*
X191637217Y-100920038D02*
X191684836Y-100967657D01*
X191684836Y-100967657D02*
X191732455Y-101062895D01*
X191732455Y-101062895D02*
X191780074Y-101253371D01*
X191780074Y-101253371D02*
X191780074Y-101491466D01*
X191780074Y-101491466D02*
X191732455Y-101681942D01*
X191732455Y-101681942D02*
X191684836Y-101777180D01*
X191684836Y-101777180D02*
X191637217Y-101824800D01*
X191637217Y-101824800D02*
X191541979Y-101872419D01*
X191541979Y-101872419D02*
X191446741Y-101872419D01*
X191446741Y-101872419D02*
X191351503Y-101824800D01*
X191351503Y-101824800D02*
X191303884Y-101777180D01*
X191303884Y-101777180D02*
X191256265Y-101681942D01*
X191256265Y-101681942D02*
X191208646Y-101491466D01*
X191208646Y-101491466D02*
X191208646Y-101253371D01*
X191208646Y-101253371D02*
X191256265Y-101062895D01*
X191256265Y-101062895D02*
X191303884Y-100967657D01*
X191303884Y-100967657D02*
X191351503Y-100920038D01*
X191351503Y-100920038D02*
X191446741Y-100872419D01*
X135827693Y-68872419D02*
X135256265Y-68872419D01*
X135541979Y-68872419D02*
X135541979Y-67872419D01*
X135541979Y-67872419D02*
X135446741Y-68015276D01*
X135446741Y-68015276D02*
X135351503Y-68110514D01*
X135351503Y-68110514D02*
X135256265Y-68158133D01*
X170732455Y-100872419D02*
X170541979Y-100872419D01*
X170541979Y-100872419D02*
X170446741Y-100920038D01*
X170446741Y-100920038D02*
X170399122Y-100967657D01*
X170399122Y-100967657D02*
X170303884Y-101110514D01*
X170303884Y-101110514D02*
X170256265Y-101300990D01*
X170256265Y-101300990D02*
X170256265Y-101681942D01*
X170256265Y-101681942D02*
X170303884Y-101777180D01*
X170303884Y-101777180D02*
X170351503Y-101824800D01*
X170351503Y-101824800D02*
X170446741Y-101872419D01*
X170446741Y-101872419D02*
X170637217Y-101872419D01*
X170637217Y-101872419D02*
X170732455Y-101824800D01*
X170732455Y-101824800D02*
X170780074Y-101777180D01*
X170780074Y-101777180D02*
X170827693Y-101681942D01*
X170827693Y-101681942D02*
X170827693Y-101443847D01*
X170827693Y-101443847D02*
X170780074Y-101348609D01*
X170780074Y-101348609D02*
X170732455Y-101300990D01*
X170732455Y-101300990D02*
X170637217Y-101253371D01*
X170637217Y-101253371D02*
X170446741Y-101253371D01*
X170446741Y-101253371D02*
X170351503Y-101300990D01*
X170351503Y-101300990D02*
X170303884Y-101348609D01*
X170303884Y-101348609D02*
X170256265Y-101443847D01*
X146482454Y-68183830D02*
X146482454Y-68850497D01*
X146244359Y-67802878D02*
X146006264Y-68517163D01*
X146006264Y-68517163D02*
X146625311Y-68517163D01*
X134327693Y-100920038D02*
X134232455Y-100872419D01*
X134232455Y-100872419D02*
X134089598Y-100872419D01*
X134089598Y-100872419D02*
X133946741Y-100920038D01*
X133946741Y-100920038D02*
X133851503Y-101015276D01*
X133851503Y-101015276D02*
X133803884Y-101110514D01*
X133803884Y-101110514D02*
X133756265Y-101300990D01*
X133756265Y-101300990D02*
X133756265Y-101443847D01*
X133756265Y-101443847D02*
X133803884Y-101634323D01*
X133803884Y-101634323D02*
X133851503Y-101729561D01*
X133851503Y-101729561D02*
X133946741Y-101824800D01*
X133946741Y-101824800D02*
X134089598Y-101872419D01*
X134089598Y-101872419D02*
X134184836Y-101872419D01*
X134184836Y-101872419D02*
X134327693Y-101824800D01*
X134327693Y-101824800D02*
X134375312Y-101777180D01*
X134375312Y-101777180D02*
X134375312Y-101443847D01*
X134375312Y-101443847D02*
X134184836Y-101443847D01*
X134803884Y-101872419D02*
X134803884Y-100872419D01*
X134803884Y-100872419D02*
X135375312Y-101872419D01*
X135375312Y-101872419D02*
X135375312Y-100872419D01*
X135851503Y-101872419D02*
X135851503Y-100872419D01*
X135851503Y-100872419D02*
X136089598Y-100872419D01*
X136089598Y-100872419D02*
X136232455Y-100920038D01*
X136232455Y-100920038D02*
X136327693Y-101015276D01*
X136327693Y-101015276D02*
X136375312Y-101110514D01*
X136375312Y-101110514D02*
X136422931Y-101300990D01*
X136422931Y-101300990D02*
X136422931Y-101443847D01*
X136422931Y-101443847D02*
X136375312Y-101634323D01*
X136375312Y-101634323D02*
X136327693Y-101729561D01*
X136327693Y-101729561D02*
X136232455Y-101824800D01*
X136232455Y-101824800D02*
X136089598Y-101872419D01*
X136089598Y-101872419D02*
X135851503Y-101872419D01*
X142375312Y-67872419D02*
X142994359Y-67872419D01*
X142994359Y-67872419D02*
X142661026Y-68253371D01*
X142661026Y-68253371D02*
X142803883Y-68253371D01*
X142803883Y-68253371D02*
X142899121Y-68300990D01*
X142899121Y-68300990D02*
X142946740Y-68348609D01*
X142946740Y-68348609D02*
X142994359Y-68443847D01*
X142994359Y-68443847D02*
X142994359Y-68681942D01*
X142994359Y-68681942D02*
X142946740Y-68777180D01*
X142946740Y-68777180D02*
X142899121Y-68824800D01*
X142899121Y-68824800D02*
X142803883Y-68872419D01*
X142803883Y-68872419D02*
X142518169Y-68872419D01*
X142518169Y-68872419D02*
X142422931Y-68824800D01*
X142422931Y-68824800D02*
X142375312Y-68777180D01*
X141803884Y-118372419D02*
X141803884Y-117372419D01*
X141803884Y-117372419D02*
X142041979Y-117372419D01*
X142041979Y-117372419D02*
X142184836Y-117420038D01*
X142184836Y-117420038D02*
X142280074Y-117515276D01*
X142280074Y-117515276D02*
X142327693Y-117610514D01*
X142327693Y-117610514D02*
X142375312Y-117800990D01*
X142375312Y-117800990D02*
X142375312Y-117943847D01*
X142375312Y-117943847D02*
X142327693Y-118134323D01*
X142327693Y-118134323D02*
X142280074Y-118229561D01*
X142280074Y-118229561D02*
X142184836Y-118324800D01*
X142184836Y-118324800D02*
X142041979Y-118372419D01*
X142041979Y-118372419D02*
X141803884Y-118372419D01*
X143184836Y-118324800D02*
X143089598Y-118372419D01*
X143089598Y-118372419D02*
X142899122Y-118372419D01*
X142899122Y-118372419D02*
X142803884Y-118324800D01*
X142803884Y-118324800D02*
X142756265Y-118229561D01*
X142756265Y-118229561D02*
X142756265Y-117848609D01*
X142756265Y-117848609D02*
X142803884Y-117753371D01*
X142803884Y-117753371D02*
X142899122Y-117705752D01*
X142899122Y-117705752D02*
X143089598Y-117705752D01*
X143089598Y-117705752D02*
X143184836Y-117753371D01*
X143184836Y-117753371D02*
X143232455Y-117848609D01*
X143232455Y-117848609D02*
X143232455Y-117943847D01*
X143232455Y-117943847D02*
X142756265Y-118039085D01*
X143613408Y-118324800D02*
X143708646Y-118372419D01*
X143708646Y-118372419D02*
X143899122Y-118372419D01*
X143899122Y-118372419D02*
X143994360Y-118324800D01*
X143994360Y-118324800D02*
X144041979Y-118229561D01*
X144041979Y-118229561D02*
X144041979Y-118181942D01*
X144041979Y-118181942D02*
X143994360Y-118086704D01*
X143994360Y-118086704D02*
X143899122Y-118039085D01*
X143899122Y-118039085D02*
X143756265Y-118039085D01*
X143756265Y-118039085D02*
X143661027Y-117991466D01*
X143661027Y-117991466D02*
X143613408Y-117896228D01*
X143613408Y-117896228D02*
X143613408Y-117848609D01*
X143613408Y-117848609D02*
X143661027Y-117753371D01*
X143661027Y-117753371D02*
X143756265Y-117705752D01*
X143756265Y-117705752D02*
X143899122Y-117705752D01*
X143899122Y-117705752D02*
X143994360Y-117753371D01*
X144470551Y-118372419D02*
X144470551Y-117705752D01*
X144470551Y-117372419D02*
X144422932Y-117420038D01*
X144422932Y-117420038D02*
X144470551Y-117467657D01*
X144470551Y-117467657D02*
X144518170Y-117420038D01*
X144518170Y-117420038D02*
X144470551Y-117372419D01*
X144470551Y-117372419D02*
X144470551Y-117467657D01*
X145375312Y-117705752D02*
X145375312Y-118515276D01*
X145375312Y-118515276D02*
X145327693Y-118610514D01*
X145327693Y-118610514D02*
X145280074Y-118658133D01*
X145280074Y-118658133D02*
X145184836Y-118705752D01*
X145184836Y-118705752D02*
X145041979Y-118705752D01*
X145041979Y-118705752D02*
X144946741Y-118658133D01*
X145375312Y-118324800D02*
X145280074Y-118372419D01*
X145280074Y-118372419D02*
X145089598Y-118372419D01*
X145089598Y-118372419D02*
X144994360Y-118324800D01*
X144994360Y-118324800D02*
X144946741Y-118277180D01*
X144946741Y-118277180D02*
X144899122Y-118181942D01*
X144899122Y-118181942D02*
X144899122Y-117896228D01*
X144899122Y-117896228D02*
X144946741Y-117800990D01*
X144946741Y-117800990D02*
X144994360Y-117753371D01*
X144994360Y-117753371D02*
X145089598Y-117705752D01*
X145089598Y-117705752D02*
X145280074Y-117705752D01*
X145280074Y-117705752D02*
X145375312Y-117753371D01*
X145851503Y-117705752D02*
X145851503Y-118372419D01*
X145851503Y-117800990D02*
X145899122Y-117753371D01*
X145899122Y-117753371D02*
X145994360Y-117705752D01*
X145994360Y-117705752D02*
X146137217Y-117705752D01*
X146137217Y-117705752D02*
X146232455Y-117753371D01*
X146232455Y-117753371D02*
X146280074Y-117848609D01*
X146280074Y-117848609D02*
X146280074Y-118372419D01*
X147137217Y-118324800D02*
X147041979Y-118372419D01*
X147041979Y-118372419D02*
X146851503Y-118372419D01*
X146851503Y-118372419D02*
X146756265Y-118324800D01*
X146756265Y-118324800D02*
X146708646Y-118229561D01*
X146708646Y-118229561D02*
X146708646Y-117848609D01*
X146708646Y-117848609D02*
X146756265Y-117753371D01*
X146756265Y-117753371D02*
X146851503Y-117705752D01*
X146851503Y-117705752D02*
X147041979Y-117705752D01*
X147041979Y-117705752D02*
X147137217Y-117753371D01*
X147137217Y-117753371D02*
X147184836Y-117848609D01*
X147184836Y-117848609D02*
X147184836Y-117943847D01*
X147184836Y-117943847D02*
X146708646Y-118039085D01*
X148041979Y-118372419D02*
X148041979Y-117372419D01*
X148041979Y-118324800D02*
X147946741Y-118372419D01*
X147946741Y-118372419D02*
X147756265Y-118372419D01*
X147756265Y-118372419D02*
X147661027Y-118324800D01*
X147661027Y-118324800D02*
X147613408Y-118277180D01*
X147613408Y-118277180D02*
X147565789Y-118181942D01*
X147565789Y-118181942D02*
X147565789Y-117896228D01*
X147565789Y-117896228D02*
X147613408Y-117800990D01*
X147613408Y-117800990D02*
X147661027Y-117753371D01*
X147661027Y-117753371D02*
X147756265Y-117705752D01*
X147756265Y-117705752D02*
X147946741Y-117705752D01*
X147946741Y-117705752D02*
X148041979Y-117753371D01*
X149280075Y-118372419D02*
X149280075Y-117372419D01*
X149280075Y-117753371D02*
X149375313Y-117705752D01*
X149375313Y-117705752D02*
X149565789Y-117705752D01*
X149565789Y-117705752D02*
X149661027Y-117753371D01*
X149661027Y-117753371D02*
X149708646Y-117800990D01*
X149708646Y-117800990D02*
X149756265Y-117896228D01*
X149756265Y-117896228D02*
X149756265Y-118181942D01*
X149756265Y-118181942D02*
X149708646Y-118277180D01*
X149708646Y-118277180D02*
X149661027Y-118324800D01*
X149661027Y-118324800D02*
X149565789Y-118372419D01*
X149565789Y-118372419D02*
X149375313Y-118372419D01*
X149375313Y-118372419D02*
X149280075Y-118324800D01*
X150089599Y-117705752D02*
X150327694Y-118372419D01*
X150565789Y-117705752D02*
X150327694Y-118372419D01*
X150327694Y-118372419D02*
X150232456Y-118610514D01*
X150232456Y-118610514D02*
X150184837Y-118658133D01*
X150184837Y-118658133D02*
X150089599Y-118705752D01*
X152041980Y-117848609D02*
X152184837Y-117896228D01*
X152184837Y-117896228D02*
X152232456Y-117943847D01*
X152232456Y-117943847D02*
X152280075Y-118039085D01*
X152280075Y-118039085D02*
X152280075Y-118181942D01*
X152280075Y-118181942D02*
X152232456Y-118277180D01*
X152232456Y-118277180D02*
X152184837Y-118324800D01*
X152184837Y-118324800D02*
X152089599Y-118372419D01*
X152089599Y-118372419D02*
X151708647Y-118372419D01*
X151708647Y-118372419D02*
X151708647Y-117372419D01*
X151708647Y-117372419D02*
X152041980Y-117372419D01*
X152041980Y-117372419D02*
X152137218Y-117420038D01*
X152137218Y-117420038D02*
X152184837Y-117467657D01*
X152184837Y-117467657D02*
X152232456Y-117562895D01*
X152232456Y-117562895D02*
X152232456Y-117658133D01*
X152232456Y-117658133D02*
X152184837Y-117753371D01*
X152184837Y-117753371D02*
X152137218Y-117800990D01*
X152137218Y-117800990D02*
X152041980Y-117848609D01*
X152041980Y-117848609D02*
X151708647Y-117848609D01*
X152708647Y-118372419D02*
X152708647Y-117705752D01*
X152708647Y-117372419D02*
X152661028Y-117420038D01*
X152661028Y-117420038D02*
X152708647Y-117467657D01*
X152708647Y-117467657D02*
X152756266Y-117420038D01*
X152756266Y-117420038D02*
X152708647Y-117372419D01*
X152708647Y-117372419D02*
X152708647Y-117467657D01*
X153327694Y-118372419D02*
X153232456Y-118324800D01*
X153232456Y-118324800D02*
X153184837Y-118229561D01*
X153184837Y-118229561D02*
X153184837Y-117372419D01*
X153851504Y-118372419D02*
X153756266Y-118324800D01*
X153756266Y-118324800D02*
X153708647Y-118229561D01*
X153708647Y-118229561D02*
X153708647Y-117372419D01*
X155565790Y-118277180D02*
X155518171Y-118324800D01*
X155518171Y-118324800D02*
X155375314Y-118372419D01*
X155375314Y-118372419D02*
X155280076Y-118372419D01*
X155280076Y-118372419D02*
X155137219Y-118324800D01*
X155137219Y-118324800D02*
X155041981Y-118229561D01*
X155041981Y-118229561D02*
X154994362Y-118134323D01*
X154994362Y-118134323D02*
X154946743Y-117943847D01*
X154946743Y-117943847D02*
X154946743Y-117800990D01*
X154946743Y-117800990D02*
X154994362Y-117610514D01*
X154994362Y-117610514D02*
X155041981Y-117515276D01*
X155041981Y-117515276D02*
X155137219Y-117420038D01*
X155137219Y-117420038D02*
X155280076Y-117372419D01*
X155280076Y-117372419D02*
X155375314Y-117372419D01*
X155375314Y-117372419D02*
X155518171Y-117420038D01*
X155518171Y-117420038D02*
X155565790Y-117467657D01*
X156422933Y-118372419D02*
X156422933Y-117848609D01*
X156422933Y-117848609D02*
X156375314Y-117753371D01*
X156375314Y-117753371D02*
X156280076Y-117705752D01*
X156280076Y-117705752D02*
X156089600Y-117705752D01*
X156089600Y-117705752D02*
X155994362Y-117753371D01*
X156422933Y-118324800D02*
X156327695Y-118372419D01*
X156327695Y-118372419D02*
X156089600Y-118372419D01*
X156089600Y-118372419D02*
X155994362Y-118324800D01*
X155994362Y-118324800D02*
X155946743Y-118229561D01*
X155946743Y-118229561D02*
X155946743Y-118134323D01*
X155946743Y-118134323D02*
X155994362Y-118039085D01*
X155994362Y-118039085D02*
X156089600Y-117991466D01*
X156089600Y-117991466D02*
X156327695Y-117991466D01*
X156327695Y-117991466D02*
X156422933Y-117943847D01*
X156899124Y-118372419D02*
X156899124Y-117705752D01*
X156899124Y-117896228D02*
X156946743Y-117800990D01*
X156946743Y-117800990D02*
X156994362Y-117753371D01*
X156994362Y-117753371D02*
X157089600Y-117705752D01*
X157089600Y-117705752D02*
X157184838Y-117705752D01*
X157518172Y-118372419D02*
X157518172Y-117705752D01*
X157518172Y-117896228D02*
X157565791Y-117800990D01*
X157565791Y-117800990D02*
X157613410Y-117753371D01*
X157613410Y-117753371D02*
X157708648Y-117705752D01*
X157708648Y-117705752D02*
X157803886Y-117705752D01*
X158137220Y-118372419D02*
X158137220Y-117705752D01*
X158137220Y-117372419D02*
X158089601Y-117420038D01*
X158089601Y-117420038D02*
X158137220Y-117467657D01*
X158137220Y-117467657D02*
X158184839Y-117420038D01*
X158184839Y-117420038D02*
X158137220Y-117372419D01*
X158137220Y-117372419D02*
X158137220Y-117467657D01*
X158518172Y-117705752D02*
X158756267Y-118372419D01*
X158756267Y-118372419D02*
X158994362Y-117705752D01*
X159756267Y-118324800D02*
X159661029Y-118372419D01*
X159661029Y-118372419D02*
X159470553Y-118372419D01*
X159470553Y-118372419D02*
X159375315Y-118324800D01*
X159375315Y-118324800D02*
X159327696Y-118229561D01*
X159327696Y-118229561D02*
X159327696Y-117848609D01*
X159327696Y-117848609D02*
X159375315Y-117753371D01*
X159375315Y-117753371D02*
X159470553Y-117705752D01*
X159470553Y-117705752D02*
X159661029Y-117705752D01*
X159661029Y-117705752D02*
X159756267Y-117753371D01*
X159756267Y-117753371D02*
X159803886Y-117848609D01*
X159803886Y-117848609D02*
X159803886Y-117943847D01*
X159803886Y-117943847D02*
X159327696Y-118039085D01*
X160661029Y-118372419D02*
X160661029Y-117848609D01*
X160661029Y-117848609D02*
X160613410Y-117753371D01*
X160613410Y-117753371D02*
X160518172Y-117705752D01*
X160518172Y-117705752D02*
X160327696Y-117705752D01*
X160327696Y-117705752D02*
X160232458Y-117753371D01*
X160661029Y-118324800D02*
X160565791Y-118372419D01*
X160565791Y-118372419D02*
X160327696Y-118372419D01*
X160327696Y-118372419D02*
X160232458Y-118324800D01*
X160232458Y-118324800D02*
X160184839Y-118229561D01*
X160184839Y-118229561D02*
X160184839Y-118134323D01*
X160184839Y-118134323D02*
X160232458Y-118039085D01*
X160232458Y-118039085D02*
X160327696Y-117991466D01*
X160327696Y-117991466D02*
X160565791Y-117991466D01*
X160565791Y-117991466D02*
X160661029Y-117943847D01*
X161565791Y-117705752D02*
X161565791Y-118372419D01*
X161137220Y-117705752D02*
X161137220Y-118229561D01*
X161137220Y-118229561D02*
X161184839Y-118324800D01*
X161184839Y-118324800D02*
X161280077Y-118372419D01*
X161280077Y-118372419D02*
X161422934Y-118372419D01*
X161422934Y-118372419D02*
X161518172Y-118324800D01*
X161518172Y-118324800D02*
X161565791Y-118277180D01*
D12*
X131360588Y-67917438D02*
X131265350Y-67869819D01*
X131265350Y-67869819D02*
X131122493Y-67869819D01*
X131122493Y-67869819D02*
X130979636Y-67917438D01*
X130979636Y-67917438D02*
X130884398Y-68012676D01*
X130884398Y-68012676D02*
X130836779Y-68107914D01*
X130836779Y-68107914D02*
X130789160Y-68298390D01*
X130789160Y-68298390D02*
X130789160Y-68441247D01*
X130789160Y-68441247D02*
X130836779Y-68631723D01*
X130836779Y-68631723D02*
X130884398Y-68726961D01*
X130884398Y-68726961D02*
X130979636Y-68822200D01*
X130979636Y-68822200D02*
X131122493Y-68869819D01*
X131122493Y-68869819D02*
X131217731Y-68869819D01*
X131217731Y-68869819D02*
X131360588Y-68822200D01*
X131360588Y-68822200D02*
X131408207Y-68774580D01*
X131408207Y-68774580D02*
X131408207Y-68441247D01*
X131408207Y-68441247D02*
X131217731Y-68441247D01*
X131836779Y-68869819D02*
X131836779Y-67869819D01*
X131836779Y-67869819D02*
X132408207Y-68869819D01*
X132408207Y-68869819D02*
X132408207Y-67869819D01*
X132884398Y-68869819D02*
X132884398Y-67869819D01*
X132884398Y-67869819D02*
X133122493Y-67869819D01*
X133122493Y-67869819D02*
X133265350Y-67917438D01*
X133265350Y-67917438D02*
X133360588Y-68012676D01*
X133360588Y-68012676D02*
X133408207Y-68107914D01*
X133408207Y-68107914D02*
X133455826Y-68298390D01*
X133455826Y-68298390D02*
X133455826Y-68441247D01*
X133455826Y-68441247D02*
X133408207Y-68631723D01*
X133408207Y-68631723D02*
X133360588Y-68726961D01*
X133360588Y-68726961D02*
X133265350Y-68822200D01*
X133265350Y-68822200D02*
X133122493Y-68869819D01*
X133122493Y-68869819D02*
X132884398Y-68869819D01*
D11*
X206510231Y-68872419D02*
X205938803Y-68872419D01*
X206224517Y-68872419D02*
X206224517Y-67872419D01*
X206224517Y-67872419D02*
X206129279Y-68015276D01*
X206129279Y-68015276D02*
X206034041Y-68110514D01*
X206034041Y-68110514D02*
X205938803Y-68158133D01*
X206843565Y-67872419D02*
X207462612Y-67872419D01*
X207462612Y-67872419D02*
X207129279Y-68253371D01*
X207129279Y-68253371D02*
X207272136Y-68253371D01*
X207272136Y-68253371D02*
X207367374Y-68300990D01*
X207367374Y-68300990D02*
X207414993Y-68348609D01*
X207414993Y-68348609D02*
X207462612Y-68443847D01*
X207462612Y-68443847D02*
X207462612Y-68681942D01*
X207462612Y-68681942D02*
X207414993Y-68777180D01*
X207414993Y-68777180D02*
X207367374Y-68824800D01*
X207367374Y-68824800D02*
X207272136Y-68872419D01*
X207272136Y-68872419D02*
X206986422Y-68872419D01*
X206986422Y-68872419D02*
X206891184Y-68824800D01*
X206891184Y-68824800D02*
X206843565Y-68777180D01*
X161541979Y-61488133D02*
X163065789Y-61488133D01*
X162303884Y-62250038D02*
X162303884Y-60726228D01*
X164970550Y-60250038D02*
X164018169Y-60250038D01*
X164018169Y-60250038D02*
X163922931Y-61202419D01*
X163922931Y-61202419D02*
X164018169Y-61107180D01*
X164018169Y-61107180D02*
X164208645Y-61011942D01*
X164208645Y-61011942D02*
X164684836Y-61011942D01*
X164684836Y-61011942D02*
X164875312Y-61107180D01*
X164875312Y-61107180D02*
X164970550Y-61202419D01*
X164970550Y-61202419D02*
X165065788Y-61392895D01*
X165065788Y-61392895D02*
X165065788Y-61869085D01*
X165065788Y-61869085D02*
X164970550Y-62059561D01*
X164970550Y-62059561D02*
X164875312Y-62154800D01*
X164875312Y-62154800D02*
X164684836Y-62250038D01*
X164684836Y-62250038D02*
X164208645Y-62250038D01*
X164208645Y-62250038D02*
X164018169Y-62154800D01*
X164018169Y-62154800D02*
X163922931Y-62059561D01*
X165732455Y-60916704D02*
X166208645Y-62250038D01*
X166208645Y-62250038D02*
X166684836Y-60916704D01*
X188946741Y-68300990D02*
X188851503Y-68253371D01*
X188851503Y-68253371D02*
X188803884Y-68205752D01*
X188803884Y-68205752D02*
X188756265Y-68110514D01*
X188756265Y-68110514D02*
X188756265Y-68062895D01*
X188756265Y-68062895D02*
X188803884Y-67967657D01*
X188803884Y-67967657D02*
X188851503Y-67920038D01*
X188851503Y-67920038D02*
X188946741Y-67872419D01*
X188946741Y-67872419D02*
X189137217Y-67872419D01*
X189137217Y-67872419D02*
X189232455Y-67920038D01*
X189232455Y-67920038D02*
X189280074Y-67967657D01*
X189280074Y-67967657D02*
X189327693Y-68062895D01*
X189327693Y-68062895D02*
X189327693Y-68110514D01*
X189327693Y-68110514D02*
X189280074Y-68205752D01*
X189280074Y-68205752D02*
X189232455Y-68253371D01*
X189232455Y-68253371D02*
X189137217Y-68300990D01*
X189137217Y-68300990D02*
X188946741Y-68300990D01*
X188946741Y-68300990D02*
X188851503Y-68348609D01*
X188851503Y-68348609D02*
X188803884Y-68396228D01*
X188803884Y-68396228D02*
X188756265Y-68491466D01*
X188756265Y-68491466D02*
X188756265Y-68681942D01*
X188756265Y-68681942D02*
X188803884Y-68777180D01*
X188803884Y-68777180D02*
X188851503Y-68824800D01*
X188851503Y-68824800D02*
X188946741Y-68872419D01*
X188946741Y-68872419D02*
X189137217Y-68872419D01*
X189137217Y-68872419D02*
X189232455Y-68824800D01*
X189232455Y-68824800D02*
X189280074Y-68777180D01*
X189280074Y-68777180D02*
X189327693Y-68681942D01*
X189327693Y-68681942D02*
X189327693Y-68491466D01*
X189327693Y-68491466D02*
X189280074Y-68396228D01*
X189280074Y-68396228D02*
X189232455Y-68348609D01*
X189232455Y-68348609D02*
X189137217Y-68300990D01*
X165780074Y-100872419D02*
X165303884Y-100872419D01*
X165303884Y-100872419D02*
X165256265Y-101348609D01*
X165256265Y-101348609D02*
X165303884Y-101300990D01*
X165303884Y-101300990D02*
X165399122Y-101253371D01*
X165399122Y-101253371D02*
X165637217Y-101253371D01*
X165637217Y-101253371D02*
X165732455Y-101300990D01*
X165732455Y-101300990D02*
X165780074Y-101348609D01*
X165780074Y-101348609D02*
X165827693Y-101443847D01*
X165827693Y-101443847D02*
X165827693Y-101681942D01*
X165827693Y-101681942D02*
X165780074Y-101777180D01*
X165780074Y-101777180D02*
X165732455Y-101824800D01*
X165732455Y-101824800D02*
X165637217Y-101872419D01*
X165637217Y-101872419D02*
X165399122Y-101872419D01*
X165399122Y-101872419D02*
X165303884Y-101824800D01*
X165303884Y-101824800D02*
X165256265Y-101777180D01*
X154708646Y-100872419D02*
X155327693Y-100872419D01*
X155327693Y-100872419D02*
X154994360Y-101253371D01*
X154994360Y-101253371D02*
X155137217Y-101253371D01*
X155137217Y-101253371D02*
X155232455Y-101300990D01*
X155232455Y-101300990D02*
X155280074Y-101348609D01*
X155280074Y-101348609D02*
X155327693Y-101443847D01*
X155327693Y-101443847D02*
X155327693Y-101681942D01*
X155327693Y-101681942D02*
X155280074Y-101777180D01*
X155280074Y-101777180D02*
X155232455Y-101824800D01*
X155232455Y-101824800D02*
X155137217Y-101872419D01*
X155137217Y-101872419D02*
X154851503Y-101872419D01*
X154851503Y-101872419D02*
X154756265Y-101824800D01*
X154756265Y-101824800D02*
X154708646Y-101777180D01*
X145327693Y-101872419D02*
X144756265Y-101872419D01*
X145041979Y-101872419D02*
X145041979Y-100872419D01*
X145041979Y-100872419D02*
X144946741Y-101015276D01*
X144946741Y-101015276D02*
X144851503Y-101110514D01*
X144851503Y-101110514D02*
X144756265Y-101158133D01*
X138875312Y-101777180D02*
X138827693Y-101824800D01*
X138827693Y-101824800D02*
X138684836Y-101872419D01*
X138684836Y-101872419D02*
X138589598Y-101872419D01*
X138589598Y-101872419D02*
X138446741Y-101824800D01*
X138446741Y-101824800D02*
X138351503Y-101729561D01*
X138351503Y-101729561D02*
X138303884Y-101634323D01*
X138303884Y-101634323D02*
X138256265Y-101443847D01*
X138256265Y-101443847D02*
X138256265Y-101300990D01*
X138256265Y-101300990D02*
X138303884Y-101110514D01*
X138303884Y-101110514D02*
X138351503Y-101015276D01*
X138351503Y-101015276D02*
X138446741Y-100920038D01*
X138446741Y-100920038D02*
X138589598Y-100872419D01*
X138589598Y-100872419D02*
X138684836Y-100872419D01*
X138684836Y-100872419D02*
X138827693Y-100920038D01*
X138827693Y-100920038D02*
X138875312Y-100967657D01*
X139446741Y-101872419D02*
X139351503Y-101824800D01*
X139351503Y-101824800D02*
X139303884Y-101777180D01*
X139303884Y-101777180D02*
X139256265Y-101681942D01*
X139256265Y-101681942D02*
X139256265Y-101396228D01*
X139256265Y-101396228D02*
X139303884Y-101300990D01*
X139303884Y-101300990D02*
X139351503Y-101253371D01*
X139351503Y-101253371D02*
X139446741Y-101205752D01*
X139446741Y-101205752D02*
X139589598Y-101205752D01*
X139589598Y-101205752D02*
X139684836Y-101253371D01*
X139684836Y-101253371D02*
X139732455Y-101300990D01*
X139732455Y-101300990D02*
X139780074Y-101396228D01*
X139780074Y-101396228D02*
X139780074Y-101681942D01*
X139780074Y-101681942D02*
X139732455Y-101777180D01*
X139732455Y-101777180D02*
X139684836Y-101824800D01*
X139684836Y-101824800D02*
X139589598Y-101872419D01*
X139589598Y-101872419D02*
X139446741Y-101872419D01*
X140208646Y-101872419D02*
X140208646Y-101205752D01*
X140208646Y-101300990D02*
X140256265Y-101253371D01*
X140256265Y-101253371D02*
X140351503Y-101205752D01*
X140351503Y-101205752D02*
X140494360Y-101205752D01*
X140494360Y-101205752D02*
X140589598Y-101253371D01*
X140589598Y-101253371D02*
X140637217Y-101348609D01*
X140637217Y-101348609D02*
X140637217Y-101872419D01*
X140637217Y-101348609D02*
X140684836Y-101253371D01*
X140684836Y-101253371D02*
X140780074Y-101205752D01*
X140780074Y-101205752D02*
X140922931Y-101205752D01*
X140922931Y-101205752D02*
X141018170Y-101253371D01*
X141018170Y-101253371D02*
X141065789Y-101348609D01*
X141065789Y-101348609D02*
X141065789Y-101872419D01*
X141541979Y-101491466D02*
X142303884Y-101491466D01*
X195057851Y-68872419D02*
X194486423Y-68872419D01*
X194772137Y-68872419D02*
X194772137Y-67872419D01*
X194772137Y-67872419D02*
X194676899Y-68015276D01*
X194676899Y-68015276D02*
X194581661Y-68110514D01*
X194581661Y-68110514D02*
X194486423Y-68158133D01*
X195676899Y-67872419D02*
X195772137Y-67872419D01*
X195772137Y-67872419D02*
X195867375Y-67920038D01*
X195867375Y-67920038D02*
X195914994Y-67967657D01*
X195914994Y-67967657D02*
X195962613Y-68062895D01*
X195962613Y-68062895D02*
X196010232Y-68253371D01*
X196010232Y-68253371D02*
X196010232Y-68491466D01*
X196010232Y-68491466D02*
X195962613Y-68681942D01*
X195962613Y-68681942D02*
X195914994Y-68777180D01*
X195914994Y-68777180D02*
X195867375Y-68824800D01*
X195867375Y-68824800D02*
X195772137Y-68872419D01*
X195772137Y-68872419D02*
X195676899Y-68872419D01*
X195676899Y-68872419D02*
X195581661Y-68824800D01*
X195581661Y-68824800D02*
X195534042Y-68777180D01*
X195534042Y-68777180D02*
X195486423Y-68681942D01*
X195486423Y-68681942D02*
X195438804Y-68491466D01*
X195438804Y-68491466D02*
X195438804Y-68253371D01*
X195438804Y-68253371D02*
X195486423Y-68062895D01*
X195486423Y-68062895D02*
X195534042Y-67967657D01*
X195534042Y-67967657D02*
X195581661Y-67920038D01*
X195581661Y-67920038D02*
X195676899Y-67872419D01*
X185041979Y-109810262D02*
X185041979Y-107810262D01*
X185994360Y-108476928D02*
X185994360Y-109810262D01*
X185994360Y-108667404D02*
X186089598Y-108572166D01*
X186089598Y-108572166D02*
X186280074Y-108476928D01*
X186280074Y-108476928D02*
X186565789Y-108476928D01*
X186565789Y-108476928D02*
X186756265Y-108572166D01*
X186756265Y-108572166D02*
X186851503Y-108762643D01*
X186851503Y-108762643D02*
X186851503Y-109810262D01*
X187803884Y-108476928D02*
X187803884Y-110476928D01*
X187803884Y-108572166D02*
X187994360Y-108476928D01*
X187994360Y-108476928D02*
X188375313Y-108476928D01*
X188375313Y-108476928D02*
X188565789Y-108572166D01*
X188565789Y-108572166D02*
X188661027Y-108667404D01*
X188661027Y-108667404D02*
X188756265Y-108857881D01*
X188756265Y-108857881D02*
X188756265Y-109429309D01*
X188756265Y-109429309D02*
X188661027Y-109619785D01*
X188661027Y-109619785D02*
X188565789Y-109715024D01*
X188565789Y-109715024D02*
X188375313Y-109810262D01*
X188375313Y-109810262D02*
X187994360Y-109810262D01*
X187994360Y-109810262D02*
X187803884Y-109715024D01*
X190470551Y-108476928D02*
X190470551Y-109810262D01*
X189613408Y-108476928D02*
X189613408Y-109524547D01*
X189613408Y-109524547D02*
X189708646Y-109715024D01*
X189708646Y-109715024D02*
X189899122Y-109810262D01*
X189899122Y-109810262D02*
X190184837Y-109810262D01*
X190184837Y-109810262D02*
X190375313Y-109715024D01*
X190375313Y-109715024D02*
X190470551Y-109619785D01*
X191137218Y-108476928D02*
X191899122Y-108476928D01*
X191422932Y-107810262D02*
X191422932Y-109524547D01*
X191422932Y-109524547D02*
X191518170Y-109715024D01*
X191518170Y-109715024D02*
X191708646Y-109810262D01*
X191708646Y-109810262D02*
X191899122Y-109810262D01*
X194089599Y-109048357D02*
X195613409Y-109048357D01*
X194851504Y-109810262D02*
X194851504Y-108286452D01*
X197518170Y-107810262D02*
X196565789Y-107810262D01*
X196565789Y-107810262D02*
X196470551Y-108762643D01*
X196470551Y-108762643D02*
X196565789Y-108667404D01*
X196565789Y-108667404D02*
X196756265Y-108572166D01*
X196756265Y-108572166D02*
X197232456Y-108572166D01*
X197232456Y-108572166D02*
X197422932Y-108667404D01*
X197422932Y-108667404D02*
X197518170Y-108762643D01*
X197518170Y-108762643D02*
X197613408Y-108953119D01*
X197613408Y-108953119D02*
X197613408Y-109429309D01*
X197613408Y-109429309D02*
X197518170Y-109619785D01*
X197518170Y-109619785D02*
X197422932Y-109715024D01*
X197422932Y-109715024D02*
X197232456Y-109810262D01*
X197232456Y-109810262D02*
X196756265Y-109810262D01*
X196756265Y-109810262D02*
X196565789Y-109715024D01*
X196565789Y-109715024D02*
X196470551Y-109619785D01*
X198280075Y-108476928D02*
X198756265Y-109810262D01*
X198756265Y-109810262D02*
X199232456Y-108476928D01*
X202756266Y-108857881D02*
X202661028Y-108762643D01*
X202661028Y-108762643D02*
X202470552Y-108667404D01*
X202470552Y-108667404D02*
X202280076Y-108667404D01*
X202280076Y-108667404D02*
X202089600Y-108762643D01*
X202089600Y-108762643D02*
X201994361Y-108857881D01*
X201994361Y-108857881D02*
X201899123Y-109048357D01*
X201899123Y-109048357D02*
X201899123Y-109238833D01*
X201899123Y-109238833D02*
X201994361Y-109429309D01*
X201994361Y-109429309D02*
X202089600Y-109524547D01*
X202089600Y-109524547D02*
X202280076Y-109619785D01*
X202280076Y-109619785D02*
X202470552Y-109619785D01*
X202470552Y-109619785D02*
X202661028Y-109524547D01*
X202661028Y-109524547D02*
X202756266Y-109429309D01*
X202756266Y-108667404D02*
X202756266Y-109429309D01*
X202756266Y-109429309D02*
X202851504Y-109524547D01*
X202851504Y-109524547D02*
X202946742Y-109524547D01*
X202946742Y-109524547D02*
X203137219Y-109429309D01*
X203137219Y-109429309D02*
X203232457Y-109238833D01*
X203232457Y-109238833D02*
X203232457Y-108762643D01*
X203232457Y-108762643D02*
X203041981Y-108476928D01*
X203041981Y-108476928D02*
X202756266Y-108286452D01*
X202756266Y-108286452D02*
X202375314Y-108191214D01*
X202375314Y-108191214D02*
X201994361Y-108286452D01*
X201994361Y-108286452D02*
X201708647Y-108476928D01*
X201708647Y-108476928D02*
X201518171Y-108762643D01*
X201518171Y-108762643D02*
X201422933Y-109143595D01*
X201422933Y-109143595D02*
X201518171Y-109524547D01*
X201518171Y-109524547D02*
X201708647Y-109810262D01*
X201708647Y-109810262D02*
X201994361Y-110000738D01*
X201994361Y-110000738D02*
X202375314Y-110095976D01*
X202375314Y-110095976D02*
X202756266Y-110000738D01*
X202756266Y-110000738D02*
X203041981Y-109810262D01*
X203803886Y-109048357D02*
X203899124Y-108953119D01*
X203899124Y-108953119D02*
X204089600Y-108857881D01*
X204089600Y-108857881D02*
X204470552Y-109048357D01*
X204470552Y-109048357D02*
X204661029Y-108953119D01*
X204661029Y-108953119D02*
X204756267Y-108857881D01*
X205422933Y-108000738D02*
X205518171Y-107905500D01*
X205518171Y-107905500D02*
X205708647Y-107810262D01*
X205708647Y-107810262D02*
X206184838Y-107810262D01*
X206184838Y-107810262D02*
X206375314Y-107905500D01*
X206375314Y-107905500D02*
X206470552Y-108000738D01*
X206470552Y-108000738D02*
X206565790Y-108191214D01*
X206565790Y-108191214D02*
X206565790Y-108381690D01*
X206565790Y-108381690D02*
X206470552Y-108667404D01*
X206470552Y-108667404D02*
X205327695Y-109810262D01*
X205327695Y-109810262D02*
X206565790Y-109810262D01*
X207422933Y-109810262D02*
X207422933Y-108476928D01*
X207422933Y-108667404D02*
X207518171Y-108572166D01*
X207518171Y-108572166D02*
X207708647Y-108476928D01*
X207708647Y-108476928D02*
X207994362Y-108476928D01*
X207994362Y-108476928D02*
X208184838Y-108572166D01*
X208184838Y-108572166D02*
X208280076Y-108762643D01*
X208280076Y-108762643D02*
X208280076Y-109810262D01*
X208280076Y-108762643D02*
X208375314Y-108572166D01*
X208375314Y-108572166D02*
X208565790Y-108476928D01*
X208565790Y-108476928D02*
X208851504Y-108476928D01*
X208851504Y-108476928D02*
X209041981Y-108572166D01*
X209041981Y-108572166D02*
X209137219Y-108762643D01*
X209137219Y-108762643D02*
X209137219Y-109810262D01*
X209994362Y-109238833D02*
X210946743Y-109238833D01*
X209803886Y-109810262D02*
X210470552Y-107810262D01*
X210470552Y-107810262D02*
X211137219Y-109810262D01*
X185041979Y-113030150D02*
X185041979Y-111030150D01*
X185994360Y-111696816D02*
X185994360Y-113030150D01*
X185994360Y-111887292D02*
X186089598Y-111792054D01*
X186089598Y-111792054D02*
X186280074Y-111696816D01*
X186280074Y-111696816D02*
X186565789Y-111696816D01*
X186565789Y-111696816D02*
X186756265Y-111792054D01*
X186756265Y-111792054D02*
X186851503Y-111982531D01*
X186851503Y-111982531D02*
X186851503Y-113030150D01*
X187803884Y-111696816D02*
X187803884Y-113696816D01*
X187803884Y-111792054D02*
X187994360Y-111696816D01*
X187994360Y-111696816D02*
X188375313Y-111696816D01*
X188375313Y-111696816D02*
X188565789Y-111792054D01*
X188565789Y-111792054D02*
X188661027Y-111887292D01*
X188661027Y-111887292D02*
X188756265Y-112077769D01*
X188756265Y-112077769D02*
X188756265Y-112649197D01*
X188756265Y-112649197D02*
X188661027Y-112839673D01*
X188661027Y-112839673D02*
X188565789Y-112934912D01*
X188565789Y-112934912D02*
X188375313Y-113030150D01*
X188375313Y-113030150D02*
X187994360Y-113030150D01*
X187994360Y-113030150D02*
X187803884Y-112934912D01*
X190470551Y-111696816D02*
X190470551Y-113030150D01*
X189613408Y-111696816D02*
X189613408Y-112744435D01*
X189613408Y-112744435D02*
X189708646Y-112934912D01*
X189708646Y-112934912D02*
X189899122Y-113030150D01*
X189899122Y-113030150D02*
X190184837Y-113030150D01*
X190184837Y-113030150D02*
X190375313Y-112934912D01*
X190375313Y-112934912D02*
X190470551Y-112839673D01*
X191137218Y-111696816D02*
X191899122Y-111696816D01*
X191422932Y-111030150D02*
X191422932Y-112744435D01*
X191422932Y-112744435D02*
X191518170Y-112934912D01*
X191518170Y-112934912D02*
X191708646Y-113030150D01*
X191708646Y-113030150D02*
X191899122Y-113030150D01*
X194089599Y-112268245D02*
X195613409Y-112268245D01*
X194851504Y-113030150D02*
X194851504Y-111506340D01*
X196470551Y-111220626D02*
X196565789Y-111125388D01*
X196565789Y-111125388D02*
X196756265Y-111030150D01*
X196756265Y-111030150D02*
X197232456Y-111030150D01*
X197232456Y-111030150D02*
X197422932Y-111125388D01*
X197422932Y-111125388D02*
X197518170Y-111220626D01*
X197518170Y-111220626D02*
X197613408Y-111411102D01*
X197613408Y-111411102D02*
X197613408Y-111601578D01*
X197613408Y-111601578D02*
X197518170Y-111887292D01*
X197518170Y-111887292D02*
X196375313Y-113030150D01*
X196375313Y-113030150D02*
X197613408Y-113030150D01*
X199327694Y-111696816D02*
X199327694Y-113030150D01*
X198851503Y-110934912D02*
X198375313Y-112363483D01*
X198375313Y-112363483D02*
X199613408Y-112363483D01*
X200184837Y-111696816D02*
X200661027Y-113030150D01*
X200661027Y-113030150D02*
X201137218Y-111696816D01*
X204661028Y-112077769D02*
X204565790Y-111982531D01*
X204565790Y-111982531D02*
X204375314Y-111887292D01*
X204375314Y-111887292D02*
X204184838Y-111887292D01*
X204184838Y-111887292D02*
X203994362Y-111982531D01*
X203994362Y-111982531D02*
X203899123Y-112077769D01*
X203899123Y-112077769D02*
X203803885Y-112268245D01*
X203803885Y-112268245D02*
X203803885Y-112458721D01*
X203803885Y-112458721D02*
X203899123Y-112649197D01*
X203899123Y-112649197D02*
X203994362Y-112744435D01*
X203994362Y-112744435D02*
X204184838Y-112839673D01*
X204184838Y-112839673D02*
X204375314Y-112839673D01*
X204375314Y-112839673D02*
X204565790Y-112744435D01*
X204565790Y-112744435D02*
X204661028Y-112649197D01*
X204661028Y-111887292D02*
X204661028Y-112649197D01*
X204661028Y-112649197D02*
X204756266Y-112744435D01*
X204756266Y-112744435D02*
X204851504Y-112744435D01*
X204851504Y-112744435D02*
X205041981Y-112649197D01*
X205041981Y-112649197D02*
X205137219Y-112458721D01*
X205137219Y-112458721D02*
X205137219Y-111982531D01*
X205137219Y-111982531D02*
X204946743Y-111696816D01*
X204946743Y-111696816D02*
X204661028Y-111506340D01*
X204661028Y-111506340D02*
X204280076Y-111411102D01*
X204280076Y-111411102D02*
X203899123Y-111506340D01*
X203899123Y-111506340D02*
X203613409Y-111696816D01*
X203613409Y-111696816D02*
X203422933Y-111982531D01*
X203422933Y-111982531D02*
X203327695Y-112363483D01*
X203327695Y-112363483D02*
X203422933Y-112744435D01*
X203422933Y-112744435D02*
X203613409Y-113030150D01*
X203613409Y-113030150D02*
X203899123Y-113220626D01*
X203899123Y-113220626D02*
X204280076Y-113315864D01*
X204280076Y-113315864D02*
X204661028Y-113220626D01*
X204661028Y-113220626D02*
X204946743Y-113030150D01*
X205708648Y-112268245D02*
X205803886Y-112173007D01*
X205803886Y-112173007D02*
X205994362Y-112077769D01*
X205994362Y-112077769D02*
X206375314Y-112268245D01*
X206375314Y-112268245D02*
X206565791Y-112173007D01*
X206565791Y-112173007D02*
X206661029Y-112077769D01*
X208280076Y-111696816D02*
X208280076Y-113030150D01*
X207803885Y-110934912D02*
X207327695Y-112363483D01*
X207327695Y-112363483D02*
X208565790Y-112363483D01*
X209327695Y-113030150D02*
X209327695Y-111696816D01*
X209327695Y-111887292D02*
X209422933Y-111792054D01*
X209422933Y-111792054D02*
X209613409Y-111696816D01*
X209613409Y-111696816D02*
X209899124Y-111696816D01*
X209899124Y-111696816D02*
X210089600Y-111792054D01*
X210089600Y-111792054D02*
X210184838Y-111982531D01*
X210184838Y-111982531D02*
X210184838Y-113030150D01*
X210184838Y-111982531D02*
X210280076Y-111792054D01*
X210280076Y-111792054D02*
X210470552Y-111696816D01*
X210470552Y-111696816D02*
X210756266Y-111696816D01*
X210756266Y-111696816D02*
X210946743Y-111792054D01*
X210946743Y-111792054D02*
X211041981Y-111982531D01*
X211041981Y-111982531D02*
X211041981Y-113030150D01*
X211899124Y-112458721D02*
X212851505Y-112458721D01*
X211708648Y-113030150D02*
X212375314Y-111030150D01*
X212375314Y-111030150D02*
X213041981Y-113030150D01*
X185422931Y-114250038D02*
X185803884Y-114250038D01*
X185803884Y-114250038D02*
X185994360Y-114345276D01*
X185994360Y-114345276D02*
X186184836Y-114535752D01*
X186184836Y-114535752D02*
X186280074Y-114916704D01*
X186280074Y-114916704D02*
X186280074Y-115583371D01*
X186280074Y-115583371D02*
X186184836Y-115964323D01*
X186184836Y-115964323D02*
X185994360Y-116154800D01*
X185994360Y-116154800D02*
X185803884Y-116250038D01*
X185803884Y-116250038D02*
X185422931Y-116250038D01*
X185422931Y-116250038D02*
X185232455Y-116154800D01*
X185232455Y-116154800D02*
X185041979Y-115964323D01*
X185041979Y-115964323D02*
X184946741Y-115583371D01*
X184946741Y-115583371D02*
X184946741Y-114916704D01*
X184946741Y-114916704D02*
X185041979Y-114535752D01*
X185041979Y-114535752D02*
X185232455Y-114345276D01*
X185232455Y-114345276D02*
X185422931Y-114250038D01*
X187994360Y-114916704D02*
X187994360Y-116250038D01*
X187137217Y-114916704D02*
X187137217Y-115964323D01*
X187137217Y-115964323D02*
X187232455Y-116154800D01*
X187232455Y-116154800D02*
X187422931Y-116250038D01*
X187422931Y-116250038D02*
X187708646Y-116250038D01*
X187708646Y-116250038D02*
X187899122Y-116154800D01*
X187899122Y-116154800D02*
X187994360Y-116059561D01*
X188661027Y-114916704D02*
X189422931Y-114916704D01*
X188946741Y-114250038D02*
X188946741Y-115964323D01*
X188946741Y-115964323D02*
X189041979Y-116154800D01*
X189041979Y-116154800D02*
X189232455Y-116250038D01*
X189232455Y-116250038D02*
X189422931Y-116250038D01*
X190089598Y-114916704D02*
X190089598Y-116916704D01*
X190089598Y-115011942D02*
X190280074Y-114916704D01*
X190280074Y-114916704D02*
X190661027Y-114916704D01*
X190661027Y-114916704D02*
X190851503Y-115011942D01*
X190851503Y-115011942D02*
X190946741Y-115107180D01*
X190946741Y-115107180D02*
X191041979Y-115297657D01*
X191041979Y-115297657D02*
X191041979Y-115869085D01*
X191041979Y-115869085D02*
X190946741Y-116059561D01*
X190946741Y-116059561D02*
X190851503Y-116154800D01*
X190851503Y-116154800D02*
X190661027Y-116250038D01*
X190661027Y-116250038D02*
X190280074Y-116250038D01*
X190280074Y-116250038D02*
X190089598Y-116154800D01*
X192756265Y-114916704D02*
X192756265Y-116250038D01*
X191899122Y-114916704D02*
X191899122Y-115964323D01*
X191899122Y-115964323D02*
X191994360Y-116154800D01*
X191994360Y-116154800D02*
X192184836Y-116250038D01*
X192184836Y-116250038D02*
X192470551Y-116250038D01*
X192470551Y-116250038D02*
X192661027Y-116154800D01*
X192661027Y-116154800D02*
X192756265Y-116059561D01*
X193422932Y-114916704D02*
X194184836Y-114916704D01*
X193708646Y-114250038D02*
X193708646Y-115964323D01*
X193708646Y-115964323D02*
X193803884Y-116154800D01*
X193803884Y-116154800D02*
X193994360Y-116250038D01*
X193994360Y-116250038D02*
X194184836Y-116250038D01*
X196375313Y-115488133D02*
X197899123Y-115488133D01*
X197137218Y-116250038D02*
X197137218Y-114726228D01*
X198756265Y-114440514D02*
X198851503Y-114345276D01*
X198851503Y-114345276D02*
X199041979Y-114250038D01*
X199041979Y-114250038D02*
X199518170Y-114250038D01*
X199518170Y-114250038D02*
X199708646Y-114345276D01*
X199708646Y-114345276D02*
X199803884Y-114440514D01*
X199803884Y-114440514D02*
X199899122Y-114630990D01*
X199899122Y-114630990D02*
X199899122Y-114821466D01*
X199899122Y-114821466D02*
X199803884Y-115107180D01*
X199803884Y-115107180D02*
X198661027Y-116250038D01*
X198661027Y-116250038D02*
X199899122Y-116250038D01*
X201613408Y-114916704D02*
X201613408Y-116250038D01*
X201137217Y-114154800D02*
X200661027Y-115583371D01*
X200661027Y-115583371D02*
X201899122Y-115583371D01*
X202470551Y-114916704D02*
X202946741Y-116250038D01*
X202946741Y-116250038D02*
X203422932Y-114916704D01*
X206946742Y-115297657D02*
X206851504Y-115202419D01*
X206851504Y-115202419D02*
X206661028Y-115107180D01*
X206661028Y-115107180D02*
X206470552Y-115107180D01*
X206470552Y-115107180D02*
X206280076Y-115202419D01*
X206280076Y-115202419D02*
X206184837Y-115297657D01*
X206184837Y-115297657D02*
X206089599Y-115488133D01*
X206089599Y-115488133D02*
X206089599Y-115678609D01*
X206089599Y-115678609D02*
X206184837Y-115869085D01*
X206184837Y-115869085D02*
X206280076Y-115964323D01*
X206280076Y-115964323D02*
X206470552Y-116059561D01*
X206470552Y-116059561D02*
X206661028Y-116059561D01*
X206661028Y-116059561D02*
X206851504Y-115964323D01*
X206851504Y-115964323D02*
X206946742Y-115869085D01*
X206946742Y-115107180D02*
X206946742Y-115869085D01*
X206946742Y-115869085D02*
X207041980Y-115964323D01*
X207041980Y-115964323D02*
X207137218Y-115964323D01*
X207137218Y-115964323D02*
X207327695Y-115869085D01*
X207327695Y-115869085D02*
X207422933Y-115678609D01*
X207422933Y-115678609D02*
X207422933Y-115202419D01*
X207422933Y-115202419D02*
X207232457Y-114916704D01*
X207232457Y-114916704D02*
X206946742Y-114726228D01*
X206946742Y-114726228D02*
X206565790Y-114630990D01*
X206565790Y-114630990D02*
X206184837Y-114726228D01*
X206184837Y-114726228D02*
X205899123Y-114916704D01*
X205899123Y-114916704D02*
X205708647Y-115202419D01*
X205708647Y-115202419D02*
X205613409Y-115583371D01*
X205613409Y-115583371D02*
X205708647Y-115964323D01*
X205708647Y-115964323D02*
X205899123Y-116250038D01*
X205899123Y-116250038D02*
X206184837Y-116440514D01*
X206184837Y-116440514D02*
X206565790Y-116535752D01*
X206565790Y-116535752D02*
X206946742Y-116440514D01*
X206946742Y-116440514D02*
X207232457Y-116250038D01*
X207994362Y-115488133D02*
X208089600Y-115392895D01*
X208089600Y-115392895D02*
X208280076Y-115297657D01*
X208280076Y-115297657D02*
X208661028Y-115488133D01*
X208661028Y-115488133D02*
X208851505Y-115392895D01*
X208851505Y-115392895D02*
X208946743Y-115297657D01*
X210661028Y-114250038D02*
X209708647Y-114250038D01*
X209708647Y-114250038D02*
X209613409Y-115202419D01*
X209613409Y-115202419D02*
X209708647Y-115107180D01*
X209708647Y-115107180D02*
X209899123Y-115011942D01*
X209899123Y-115011942D02*
X210375314Y-115011942D01*
X210375314Y-115011942D02*
X210565790Y-115107180D01*
X210565790Y-115107180D02*
X210661028Y-115202419D01*
X210661028Y-115202419D02*
X210756266Y-115392895D01*
X210756266Y-115392895D02*
X210756266Y-115869085D01*
X210756266Y-115869085D02*
X210661028Y-116059561D01*
X210661028Y-116059561D02*
X210565790Y-116154800D01*
X210565790Y-116154800D02*
X210375314Y-116250038D01*
X210375314Y-116250038D02*
X209899123Y-116250038D01*
X209899123Y-116250038D02*
X209708647Y-116154800D01*
X209708647Y-116154800D02*
X209613409Y-116059561D01*
X211613409Y-116250038D02*
X211613409Y-114916704D01*
X211613409Y-115107180D02*
X211708647Y-115011942D01*
X211708647Y-115011942D02*
X211899123Y-114916704D01*
X211899123Y-114916704D02*
X212184838Y-114916704D01*
X212184838Y-114916704D02*
X212375314Y-115011942D01*
X212375314Y-115011942D02*
X212470552Y-115202419D01*
X212470552Y-115202419D02*
X212470552Y-116250038D01*
X212470552Y-115202419D02*
X212565790Y-115011942D01*
X212565790Y-115011942D02*
X212756266Y-114916704D01*
X212756266Y-114916704D02*
X213041980Y-114916704D01*
X213041980Y-114916704D02*
X213232457Y-115011942D01*
X213232457Y-115011942D02*
X213327695Y-115202419D01*
X213327695Y-115202419D02*
X213327695Y-116250038D01*
X214184838Y-115678609D02*
X215137219Y-115678609D01*
X213994362Y-116250038D02*
X214661028Y-114250038D01*
X214661028Y-114250038D02*
X215327695Y-116250038D01*
X156708646Y-67872419D02*
X157375312Y-67872419D01*
X157375312Y-67872419D02*
X156946741Y-68872419D01*
X210827693Y-101872419D02*
X210256265Y-101872419D01*
X210541979Y-101872419D02*
X210541979Y-100872419D01*
X210541979Y-100872419D02*
X210446741Y-101015276D01*
X210446741Y-101015276D02*
X210351503Y-101110514D01*
X210351503Y-101110514D02*
X210256265Y-101158133D01*
X211684836Y-101205752D02*
X211684836Y-101872419D01*
X211446741Y-100824800D02*
X211208646Y-101539085D01*
X211208646Y-101539085D02*
X211827693Y-101539085D01*
X138839598Y-67967657D02*
X138887217Y-67920038D01*
X138887217Y-67920038D02*
X138982455Y-67872419D01*
X138982455Y-67872419D02*
X139220550Y-67872419D01*
X139220550Y-67872419D02*
X139315788Y-67920038D01*
X139315788Y-67920038D02*
X139363407Y-67967657D01*
X139363407Y-67967657D02*
X139411026Y-68062895D01*
X139411026Y-68062895D02*
X139411026Y-68158133D01*
X139411026Y-68158133D02*
X139363407Y-68300990D01*
X139363407Y-68300990D02*
X138791979Y-68872419D01*
X138791979Y-68872419D02*
X139411026Y-68872419D01*
X185351503Y-101872419D02*
X185541979Y-101872419D01*
X185541979Y-101872419D02*
X185637217Y-101824800D01*
X185637217Y-101824800D02*
X185684836Y-101777180D01*
X185684836Y-101777180D02*
X185780074Y-101634323D01*
X185780074Y-101634323D02*
X185827693Y-101443847D01*
X185827693Y-101443847D02*
X185827693Y-101062895D01*
X185827693Y-101062895D02*
X185780074Y-100967657D01*
X185780074Y-100967657D02*
X185732455Y-100920038D01*
X185732455Y-100920038D02*
X185637217Y-100872419D01*
X185637217Y-100872419D02*
X185446741Y-100872419D01*
X185446741Y-100872419D02*
X185351503Y-100920038D01*
X185351503Y-100920038D02*
X185303884Y-100967657D01*
X185303884Y-100967657D02*
X185256265Y-101062895D01*
X185256265Y-101062895D02*
X185256265Y-101300990D01*
X185256265Y-101300990D02*
X185303884Y-101396228D01*
X185303884Y-101396228D02*
X185351503Y-101443847D01*
X185351503Y-101443847D02*
X185446741Y-101491466D01*
X185446741Y-101491466D02*
X185637217Y-101491466D01*
X185637217Y-101491466D02*
X185732455Y-101443847D01*
X185732455Y-101443847D02*
X185780074Y-101396228D01*
X185780074Y-101396228D02*
X185827693Y-101300990D01*
X202692771Y-68872419D02*
X202121343Y-68872419D01*
X202407057Y-68872419D02*
X202407057Y-67872419D01*
X202407057Y-67872419D02*
X202311819Y-68015276D01*
X202311819Y-68015276D02*
X202216581Y-68110514D01*
X202216581Y-68110514D02*
X202121343Y-68158133D01*
X203073724Y-67967657D02*
X203121343Y-67920038D01*
X203121343Y-67920038D02*
X203216581Y-67872419D01*
X203216581Y-67872419D02*
X203454676Y-67872419D01*
X203454676Y-67872419D02*
X203549914Y-67920038D01*
X203549914Y-67920038D02*
X203597533Y-67967657D01*
X203597533Y-67967657D02*
X203645152Y-68062895D01*
X203645152Y-68062895D02*
X203645152Y-68158133D01*
X203645152Y-68158133D02*
X203597533Y-68300990D01*
X203597533Y-68300990D02*
X203026105Y-68872419D01*
X203026105Y-68872419D02*
X203645152Y-68872419D01*
X218833333Y-107581102D02*
X218738095Y-107533483D01*
X218738095Y-107533483D02*
X218690476Y-107485864D01*
X218690476Y-107485864D02*
X218642857Y-107390626D01*
X218642857Y-107390626D02*
X218642857Y-107343007D01*
X218642857Y-107343007D02*
X218690476Y-107247769D01*
X218690476Y-107247769D02*
X218738095Y-107200150D01*
X218738095Y-107200150D02*
X218833333Y-107152531D01*
X218833333Y-107152531D02*
X219023809Y-107152531D01*
X219023809Y-107152531D02*
X219119047Y-107200150D01*
X219119047Y-107200150D02*
X219166666Y-107247769D01*
X219166666Y-107247769D02*
X219214285Y-107343007D01*
X219214285Y-107343007D02*
X219214285Y-107390626D01*
X219214285Y-107390626D02*
X219166666Y-107485864D01*
X219166666Y-107485864D02*
X219119047Y-107533483D01*
X219119047Y-107533483D02*
X219023809Y-107581102D01*
X219023809Y-107581102D02*
X218833333Y-107581102D01*
X218833333Y-107581102D02*
X218738095Y-107628721D01*
X218738095Y-107628721D02*
X218690476Y-107676340D01*
X218690476Y-107676340D02*
X218642857Y-107771578D01*
X218642857Y-107771578D02*
X218642857Y-107962054D01*
X218642857Y-107962054D02*
X218690476Y-108057292D01*
X218690476Y-108057292D02*
X218738095Y-108104912D01*
X218738095Y-108104912D02*
X218833333Y-108152531D01*
X218833333Y-108152531D02*
X219023809Y-108152531D01*
X219023809Y-108152531D02*
X219119047Y-108104912D01*
X219119047Y-108104912D02*
X219166666Y-108057292D01*
X219166666Y-108057292D02*
X219214285Y-107962054D01*
X219214285Y-107962054D02*
X219214285Y-107771578D01*
X219214285Y-107771578D02*
X219166666Y-107676340D01*
X219166666Y-107676340D02*
X219119047Y-107628721D01*
X219119047Y-107628721D02*
X219023809Y-107581102D01*
X219642857Y-107771578D02*
X220404762Y-107771578D01*
X221404761Y-108152531D02*
X220833333Y-108152531D01*
X221119047Y-108152531D02*
X221119047Y-107152531D01*
X221119047Y-107152531D02*
X221023809Y-107295388D01*
X221023809Y-107295388D02*
X220928571Y-107390626D01*
X220928571Y-107390626D02*
X220833333Y-107438245D01*
X222261904Y-107485864D02*
X222261904Y-108152531D01*
X222023809Y-107104912D02*
X221785714Y-107819197D01*
X221785714Y-107819197D02*
X222404761Y-107819197D01*
X218119047Y-109667236D02*
X218071428Y-109714856D01*
X218071428Y-109714856D02*
X217928571Y-109762475D01*
X217928571Y-109762475D02*
X217833333Y-109762475D01*
X217833333Y-109762475D02*
X217690476Y-109714856D01*
X217690476Y-109714856D02*
X217595238Y-109619617D01*
X217595238Y-109619617D02*
X217547619Y-109524379D01*
X217547619Y-109524379D02*
X217500000Y-109333903D01*
X217500000Y-109333903D02*
X217500000Y-109191046D01*
X217500000Y-109191046D02*
X217547619Y-109000570D01*
X217547619Y-109000570D02*
X217595238Y-108905332D01*
X217595238Y-108905332D02*
X217690476Y-108810094D01*
X217690476Y-108810094D02*
X217833333Y-108762475D01*
X217833333Y-108762475D02*
X217928571Y-108762475D01*
X217928571Y-108762475D02*
X218071428Y-108810094D01*
X218071428Y-108810094D02*
X218119047Y-108857713D01*
X218690476Y-109762475D02*
X218595238Y-109714856D01*
X218595238Y-109714856D02*
X218547619Y-109667236D01*
X218547619Y-109667236D02*
X218500000Y-109571998D01*
X218500000Y-109571998D02*
X218500000Y-109286284D01*
X218500000Y-109286284D02*
X218547619Y-109191046D01*
X218547619Y-109191046D02*
X218595238Y-109143427D01*
X218595238Y-109143427D02*
X218690476Y-109095808D01*
X218690476Y-109095808D02*
X218833333Y-109095808D01*
X218833333Y-109095808D02*
X218928571Y-109143427D01*
X218928571Y-109143427D02*
X218976190Y-109191046D01*
X218976190Y-109191046D02*
X219023809Y-109286284D01*
X219023809Y-109286284D02*
X219023809Y-109571998D01*
X219023809Y-109571998D02*
X218976190Y-109667236D01*
X218976190Y-109667236D02*
X218928571Y-109714856D01*
X218928571Y-109714856D02*
X218833333Y-109762475D01*
X218833333Y-109762475D02*
X218690476Y-109762475D01*
X219452381Y-109762475D02*
X219452381Y-109095808D01*
X219452381Y-109191046D02*
X219500000Y-109143427D01*
X219500000Y-109143427D02*
X219595238Y-109095808D01*
X219595238Y-109095808D02*
X219738095Y-109095808D01*
X219738095Y-109095808D02*
X219833333Y-109143427D01*
X219833333Y-109143427D02*
X219880952Y-109238665D01*
X219880952Y-109238665D02*
X219880952Y-109762475D01*
X219880952Y-109238665D02*
X219928571Y-109143427D01*
X219928571Y-109143427D02*
X220023809Y-109095808D01*
X220023809Y-109095808D02*
X220166666Y-109095808D01*
X220166666Y-109095808D02*
X220261905Y-109143427D01*
X220261905Y-109143427D02*
X220309524Y-109238665D01*
X220309524Y-109238665D02*
X220309524Y-109762475D01*
X220785714Y-109762475D02*
X220785714Y-109095808D01*
X220785714Y-109191046D02*
X220833333Y-109143427D01*
X220833333Y-109143427D02*
X220928571Y-109095808D01*
X220928571Y-109095808D02*
X221071428Y-109095808D01*
X221071428Y-109095808D02*
X221166666Y-109143427D01*
X221166666Y-109143427D02*
X221214285Y-109238665D01*
X221214285Y-109238665D02*
X221214285Y-109762475D01*
X221214285Y-109238665D02*
X221261904Y-109143427D01*
X221261904Y-109143427D02*
X221357142Y-109095808D01*
X221357142Y-109095808D02*
X221499999Y-109095808D01*
X221499999Y-109095808D02*
X221595238Y-109143427D01*
X221595238Y-109143427D02*
X221642857Y-109238665D01*
X221642857Y-109238665D02*
X221642857Y-109762475D01*
X222261904Y-109762475D02*
X222166666Y-109714856D01*
X222166666Y-109714856D02*
X222119047Y-109667236D01*
X222119047Y-109667236D02*
X222071428Y-109571998D01*
X222071428Y-109571998D02*
X222071428Y-109286284D01*
X222071428Y-109286284D02*
X222119047Y-109191046D01*
X222119047Y-109191046D02*
X222166666Y-109143427D01*
X222166666Y-109143427D02*
X222261904Y-109095808D01*
X222261904Y-109095808D02*
X222404761Y-109095808D01*
X222404761Y-109095808D02*
X222499999Y-109143427D01*
X222499999Y-109143427D02*
X222547618Y-109191046D01*
X222547618Y-109191046D02*
X222595237Y-109286284D01*
X222595237Y-109286284D02*
X222595237Y-109571998D01*
X222595237Y-109571998D02*
X222547618Y-109667236D01*
X222547618Y-109667236D02*
X222499999Y-109714856D01*
X222499999Y-109714856D02*
X222404761Y-109762475D01*
X222404761Y-109762475D02*
X222261904Y-109762475D01*
X223023809Y-109095808D02*
X223023809Y-109762475D01*
X223023809Y-109191046D02*
X223071428Y-109143427D01*
X223071428Y-109143427D02*
X223166666Y-109095808D01*
X223166666Y-109095808D02*
X223309523Y-109095808D01*
X223309523Y-109095808D02*
X223404761Y-109143427D01*
X223404761Y-109143427D02*
X223452380Y-109238665D01*
X223452380Y-109238665D02*
X223452380Y-109762475D01*
X219738095Y-110420038D02*
X219642857Y-110372419D01*
X219642857Y-110372419D02*
X219500000Y-110372419D01*
X219500000Y-110372419D02*
X219357143Y-110420038D01*
X219357143Y-110420038D02*
X219261905Y-110515276D01*
X219261905Y-110515276D02*
X219214286Y-110610514D01*
X219214286Y-110610514D02*
X219166667Y-110800990D01*
X219166667Y-110800990D02*
X219166667Y-110943847D01*
X219166667Y-110943847D02*
X219214286Y-111134323D01*
X219214286Y-111134323D02*
X219261905Y-111229561D01*
X219261905Y-111229561D02*
X219357143Y-111324800D01*
X219357143Y-111324800D02*
X219500000Y-111372419D01*
X219500000Y-111372419D02*
X219595238Y-111372419D01*
X219595238Y-111372419D02*
X219738095Y-111324800D01*
X219738095Y-111324800D02*
X219785714Y-111277180D01*
X219785714Y-111277180D02*
X219785714Y-110943847D01*
X219785714Y-110943847D02*
X219595238Y-110943847D01*
X220214286Y-111372419D02*
X220214286Y-110372419D01*
X220214286Y-110372419D02*
X220785714Y-111372419D01*
X220785714Y-111372419D02*
X220785714Y-110372419D01*
X221261905Y-111372419D02*
X221261905Y-110372419D01*
X221261905Y-110372419D02*
X221500000Y-110372419D01*
X221500000Y-110372419D02*
X221642857Y-110420038D01*
X221642857Y-110420038D02*
X221738095Y-110515276D01*
X221738095Y-110515276D02*
X221785714Y-110610514D01*
X221785714Y-110610514D02*
X221833333Y-110800990D01*
X221833333Y-110800990D02*
X221833333Y-110943847D01*
X221833333Y-110943847D02*
X221785714Y-111134323D01*
X221785714Y-111134323D02*
X221738095Y-111229561D01*
X221738095Y-111229561D02*
X221642857Y-111324800D01*
X221642857Y-111324800D02*
X221500000Y-111372419D01*
X221500000Y-111372419D02*
X221261905Y-111372419D01*
X191716582Y-68872419D02*
X191907058Y-68872419D01*
X191907058Y-68872419D02*
X192002296Y-68824800D01*
X192002296Y-68824800D02*
X192049915Y-68777180D01*
X192049915Y-68777180D02*
X192145153Y-68634323D01*
X192145153Y-68634323D02*
X192192772Y-68443847D01*
X192192772Y-68443847D02*
X192192772Y-68062895D01*
X192192772Y-68062895D02*
X192145153Y-67967657D01*
X192145153Y-67967657D02*
X192097534Y-67920038D01*
X192097534Y-67920038D02*
X192002296Y-67872419D01*
X192002296Y-67872419D02*
X191811820Y-67872419D01*
X191811820Y-67872419D02*
X191716582Y-67920038D01*
X191716582Y-67920038D02*
X191668963Y-67967657D01*
X191668963Y-67967657D02*
X191621344Y-68062895D01*
X191621344Y-68062895D02*
X191621344Y-68300990D01*
X191621344Y-68300990D02*
X191668963Y-68396228D01*
X191668963Y-68396228D02*
X191716582Y-68443847D01*
X191716582Y-68443847D02*
X191811820Y-68491466D01*
X191811820Y-68491466D02*
X192002296Y-68491466D01*
X192002296Y-68491466D02*
X192097534Y-68443847D01*
X192097534Y-68443847D02*
X192145153Y-68396228D01*
X192145153Y-68396228D02*
X192192772Y-68300990D01*
X153649120Y-67872419D02*
X153458644Y-67872419D01*
X153458644Y-67872419D02*
X153363406Y-67920038D01*
X153363406Y-67920038D02*
X153315787Y-67967657D01*
X153315787Y-67967657D02*
X153220549Y-68110514D01*
X153220549Y-68110514D02*
X153172930Y-68300990D01*
X153172930Y-68300990D02*
X153172930Y-68681942D01*
X153172930Y-68681942D02*
X153220549Y-68777180D01*
X153220549Y-68777180D02*
X153268168Y-68824800D01*
X153268168Y-68824800D02*
X153363406Y-68872419D01*
X153363406Y-68872419D02*
X153553882Y-68872419D01*
X153553882Y-68872419D02*
X153649120Y-68824800D01*
X153649120Y-68824800D02*
X153696739Y-68777180D01*
X153696739Y-68777180D02*
X153744358Y-68681942D01*
X153744358Y-68681942D02*
X153744358Y-68443847D01*
X153744358Y-68443847D02*
X153696739Y-68348609D01*
X153696739Y-68348609D02*
X153649120Y-68300990D01*
X153649120Y-68300990D02*
X153553882Y-68253371D01*
X153553882Y-68253371D02*
X153363406Y-68253371D01*
X153363406Y-68253371D02*
X153268168Y-68300990D01*
X153268168Y-68300990D02*
X153220549Y-68348609D01*
X153220549Y-68348609D02*
X153172930Y-68443847D01*
X195827693Y-101872419D02*
X195256265Y-101872419D01*
X195541979Y-101872419D02*
X195541979Y-100872419D01*
X195541979Y-100872419D02*
X195446741Y-101015276D01*
X195446741Y-101015276D02*
X195351503Y-101110514D01*
X195351503Y-101110514D02*
X195256265Y-101158133D01*
X196780074Y-101872419D02*
X196208646Y-101872419D01*
X196494360Y-101872419D02*
X196494360Y-100872419D01*
X196494360Y-100872419D02*
X196399122Y-101015276D01*
X196399122Y-101015276D02*
X196303884Y-101110514D01*
X196303884Y-101110514D02*
X196208646Y-101158133D01*
D12*
X223539819Y-74293452D02*
X223539819Y-74769642D01*
X223539819Y-74769642D02*
X224016009Y-74817261D01*
X224016009Y-74817261D02*
X223968390Y-74769642D01*
X223968390Y-74769642D02*
X223920771Y-74674404D01*
X223920771Y-74674404D02*
X223920771Y-74436309D01*
X223920771Y-74436309D02*
X223968390Y-74341071D01*
X223968390Y-74341071D02*
X224016009Y-74293452D01*
X224016009Y-74293452D02*
X224111247Y-74245833D01*
X224111247Y-74245833D02*
X224349342Y-74245833D01*
X224349342Y-74245833D02*
X224444580Y-74293452D01*
X224444580Y-74293452D02*
X224492200Y-74341071D01*
X224492200Y-74341071D02*
X224539819Y-74436309D01*
X224539819Y-74436309D02*
X224539819Y-74674404D01*
X224539819Y-74674404D02*
X224492200Y-74769642D01*
X224492200Y-74769642D02*
X224444580Y-74817261D01*
X224444580Y-73817261D02*
X224492200Y-73769642D01*
X224492200Y-73769642D02*
X224539819Y-73817261D01*
X224539819Y-73817261D02*
X224492200Y-73864880D01*
X224492200Y-73864880D02*
X224444580Y-73817261D01*
X224444580Y-73817261D02*
X224539819Y-73817261D01*
X223539819Y-72912500D02*
X223539819Y-73102976D01*
X223539819Y-73102976D02*
X223587438Y-73198214D01*
X223587438Y-73198214D02*
X223635057Y-73245833D01*
X223635057Y-73245833D02*
X223777914Y-73341071D01*
X223777914Y-73341071D02*
X223968390Y-73388690D01*
X223968390Y-73388690D02*
X224349342Y-73388690D01*
X224349342Y-73388690D02*
X224444580Y-73341071D01*
X224444580Y-73341071D02*
X224492200Y-73293452D01*
X224492200Y-73293452D02*
X224539819Y-73198214D01*
X224539819Y-73198214D02*
X224539819Y-73007738D01*
X224539819Y-73007738D02*
X224492200Y-72912500D01*
X224492200Y-72912500D02*
X224444580Y-72864881D01*
X224444580Y-72864881D02*
X224349342Y-72817262D01*
X224349342Y-72817262D02*
X224111247Y-72817262D01*
X224111247Y-72817262D02*
X224016009Y-72864881D01*
X224016009Y-72864881D02*
X223968390Y-72912500D01*
X223968390Y-72912500D02*
X223920771Y-73007738D01*
X223920771Y-73007738D02*
X223920771Y-73198214D01*
X223920771Y-73198214D02*
X223968390Y-73293452D01*
X223968390Y-73293452D02*
X224016009Y-73341071D01*
X224016009Y-73341071D02*
X224111247Y-73388690D01*
X224539819Y-72388690D02*
X223539819Y-72388690D01*
X224158866Y-72293452D02*
X224539819Y-72007738D01*
X223873152Y-72007738D02*
X224254104Y-72388690D01*
X122804819Y-90142857D02*
X122804819Y-90619047D01*
X122804819Y-90619047D02*
X121804819Y-90619047D01*
X122281009Y-89809523D02*
X122281009Y-89476190D01*
X122804819Y-89333333D02*
X122804819Y-89809523D01*
X122804819Y-89809523D02*
X121804819Y-89809523D01*
X121804819Y-89809523D02*
X121804819Y-89333333D01*
X122804819Y-88904761D02*
X121804819Y-88904761D01*
X121804819Y-88904761D02*
X121804819Y-88666666D01*
X121804819Y-88666666D02*
X121852438Y-88523809D01*
X121852438Y-88523809D02*
X121947676Y-88428571D01*
X121947676Y-88428571D02*
X122042914Y-88380952D01*
X122042914Y-88380952D02*
X122233390Y-88333333D01*
X122233390Y-88333333D02*
X122376247Y-88333333D01*
X122376247Y-88333333D02*
X122566723Y-88380952D01*
X122566723Y-88380952D02*
X122661961Y-88428571D01*
X122661961Y-88428571D02*
X122757200Y-88523809D01*
X122757200Y-88523809D02*
X122804819Y-88666666D01*
X122804819Y-88666666D02*
X122804819Y-88904761D01*
X213667895Y-90142857D02*
X213667895Y-90619047D01*
X213667895Y-90619047D02*
X212667895Y-90619047D01*
X213144085Y-89809523D02*
X213144085Y-89476190D01*
X213667895Y-89333333D02*
X213667895Y-89809523D01*
X213667895Y-89809523D02*
X212667895Y-89809523D01*
X212667895Y-89809523D02*
X212667895Y-89333333D01*
X213667895Y-88904761D02*
X212667895Y-88904761D01*
X212667895Y-88904761D02*
X212667895Y-88666666D01*
X212667895Y-88666666D02*
X212715514Y-88523809D01*
X212715514Y-88523809D02*
X212810752Y-88428571D01*
X212810752Y-88428571D02*
X212905990Y-88380952D01*
X212905990Y-88380952D02*
X213096466Y-88333333D01*
X213096466Y-88333333D02*
X213239323Y-88333333D01*
X213239323Y-88333333D02*
X213429799Y-88380952D01*
X213429799Y-88380952D02*
X213525037Y-88428571D01*
X213525037Y-88428571D02*
X213620276Y-88523809D01*
X213620276Y-88523809D02*
X213667895Y-88666666D01*
X213667895Y-88666666D02*
X213667895Y-88904761D01*
X137948665Y-90142857D02*
X137948665Y-90619047D01*
X137948665Y-90619047D02*
X136948665Y-90619047D01*
X137424855Y-89809523D02*
X137424855Y-89476190D01*
X137948665Y-89333333D02*
X137948665Y-89809523D01*
X137948665Y-89809523D02*
X136948665Y-89809523D01*
X136948665Y-89809523D02*
X136948665Y-89333333D01*
X137948665Y-88904761D02*
X136948665Y-88904761D01*
X136948665Y-88904761D02*
X136948665Y-88666666D01*
X136948665Y-88666666D02*
X136996284Y-88523809D01*
X136996284Y-88523809D02*
X137091522Y-88428571D01*
X137091522Y-88428571D02*
X137186760Y-88380952D01*
X137186760Y-88380952D02*
X137377236Y-88333333D01*
X137377236Y-88333333D02*
X137520093Y-88333333D01*
X137520093Y-88333333D02*
X137710569Y-88380952D01*
X137710569Y-88380952D02*
X137805807Y-88428571D01*
X137805807Y-88428571D02*
X137901046Y-88523809D01*
X137901046Y-88523809D02*
X137948665Y-88666666D01*
X137948665Y-88666666D02*
X137948665Y-88904761D01*
X129710075Y-93928571D02*
X130376742Y-93928571D01*
X129329123Y-94166666D02*
X130043408Y-94404761D01*
X130043408Y-94404761D02*
X130043408Y-93785714D01*
X130281503Y-93404761D02*
X130329123Y-93357142D01*
X130329123Y-93357142D02*
X130376742Y-93404761D01*
X130376742Y-93404761D02*
X130329123Y-93452380D01*
X130329123Y-93452380D02*
X130281503Y-93404761D01*
X130281503Y-93404761D02*
X130376742Y-93404761D01*
X129376742Y-93023809D02*
X129376742Y-92404762D01*
X129376742Y-92404762D02*
X129757694Y-92738095D01*
X129757694Y-92738095D02*
X129757694Y-92595238D01*
X129757694Y-92595238D02*
X129805313Y-92500000D01*
X129805313Y-92500000D02*
X129852932Y-92452381D01*
X129852932Y-92452381D02*
X129948170Y-92404762D01*
X129948170Y-92404762D02*
X130186265Y-92404762D01*
X130186265Y-92404762D02*
X130281503Y-92452381D01*
X130281503Y-92452381D02*
X130329123Y-92500000D01*
X130329123Y-92500000D02*
X130376742Y-92595238D01*
X130376742Y-92595238D02*
X130376742Y-92880952D01*
X130376742Y-92880952D02*
X130329123Y-92976190D01*
X130329123Y-92976190D02*
X130281503Y-93023809D01*
X130376742Y-91976190D02*
X129376742Y-91976190D01*
X129995789Y-91880952D02*
X130376742Y-91595238D01*
X129710075Y-91595238D02*
X130091027Y-91976190D01*
X125200057Y-74102975D02*
X125152438Y-74055356D01*
X125152438Y-74055356D02*
X125104819Y-73960118D01*
X125104819Y-73960118D02*
X125104819Y-73722023D01*
X125104819Y-73722023D02*
X125152438Y-73626785D01*
X125152438Y-73626785D02*
X125200057Y-73579166D01*
X125200057Y-73579166D02*
X125295295Y-73531547D01*
X125295295Y-73531547D02*
X125390533Y-73531547D01*
X125390533Y-73531547D02*
X125533390Y-73579166D01*
X125533390Y-73579166D02*
X126104819Y-74150594D01*
X126104819Y-74150594D02*
X126104819Y-73531547D01*
X126104819Y-73102975D02*
X125104819Y-73102975D01*
X125723866Y-73007737D02*
X126104819Y-72722023D01*
X125438152Y-72722023D02*
X125819104Y-73102975D01*
X155487749Y-74102975D02*
X155440130Y-74055356D01*
X155440130Y-74055356D02*
X155392511Y-73960118D01*
X155392511Y-73960118D02*
X155392511Y-73722023D01*
X155392511Y-73722023D02*
X155440130Y-73626785D01*
X155440130Y-73626785D02*
X155487749Y-73579166D01*
X155487749Y-73579166D02*
X155582987Y-73531547D01*
X155582987Y-73531547D02*
X155678225Y-73531547D01*
X155678225Y-73531547D02*
X155821082Y-73579166D01*
X155821082Y-73579166D02*
X156392511Y-74150594D01*
X156392511Y-74150594D02*
X156392511Y-73531547D01*
X156392511Y-73102975D02*
X155392511Y-73102975D01*
X156011558Y-73007737D02*
X156392511Y-72722023D01*
X155725844Y-72722023D02*
X156106796Y-73102975D01*
X130376742Y-90142857D02*
X130376742Y-90619047D01*
X130376742Y-90619047D02*
X129376742Y-90619047D01*
X129852932Y-89809523D02*
X129852932Y-89476190D01*
X130376742Y-89333333D02*
X130376742Y-89809523D01*
X130376742Y-89809523D02*
X129376742Y-89809523D01*
X129376742Y-89809523D02*
X129376742Y-89333333D01*
X130376742Y-88904761D02*
X129376742Y-88904761D01*
X129376742Y-88904761D02*
X129376742Y-88666666D01*
X129376742Y-88666666D02*
X129424361Y-88523809D01*
X129424361Y-88523809D02*
X129519599Y-88428571D01*
X129519599Y-88428571D02*
X129614837Y-88380952D01*
X129614837Y-88380952D02*
X129805313Y-88333333D01*
X129805313Y-88333333D02*
X129948170Y-88333333D01*
X129948170Y-88333333D02*
X130138646Y-88380952D01*
X130138646Y-88380952D02*
X130233884Y-88428571D01*
X130233884Y-88428571D02*
X130329123Y-88523809D01*
X130329123Y-88523809D02*
X130376742Y-88666666D01*
X130376742Y-88666666D02*
X130376742Y-88904761D01*
X190952126Y-90142857D02*
X190952126Y-90619047D01*
X190952126Y-90619047D02*
X189952126Y-90619047D01*
X190428316Y-89809523D02*
X190428316Y-89476190D01*
X190952126Y-89333333D02*
X190952126Y-89809523D01*
X190952126Y-89809523D02*
X189952126Y-89809523D01*
X189952126Y-89809523D02*
X189952126Y-89333333D01*
X190952126Y-88904761D02*
X189952126Y-88904761D01*
X189952126Y-88904761D02*
X189952126Y-88666666D01*
X189952126Y-88666666D02*
X189999745Y-88523809D01*
X189999745Y-88523809D02*
X190094983Y-88428571D01*
X190094983Y-88428571D02*
X190190221Y-88380952D01*
X190190221Y-88380952D02*
X190380697Y-88333333D01*
X190380697Y-88333333D02*
X190523554Y-88333333D01*
X190523554Y-88333333D02*
X190714030Y-88380952D01*
X190714030Y-88380952D02*
X190809268Y-88428571D01*
X190809268Y-88428571D02*
X190904507Y-88523809D01*
X190904507Y-88523809D02*
X190952126Y-88666666D01*
X190952126Y-88666666D02*
X190952126Y-88904761D01*
X206095972Y-90142857D02*
X206095972Y-90619047D01*
X206095972Y-90619047D02*
X205095972Y-90619047D01*
X205572162Y-89809523D02*
X205572162Y-89476190D01*
X206095972Y-89333333D02*
X206095972Y-89809523D01*
X206095972Y-89809523D02*
X205095972Y-89809523D01*
X205095972Y-89809523D02*
X205095972Y-89333333D01*
X206095972Y-88904761D02*
X205095972Y-88904761D01*
X205095972Y-88904761D02*
X205095972Y-88666666D01*
X205095972Y-88666666D02*
X205143591Y-88523809D01*
X205143591Y-88523809D02*
X205238829Y-88428571D01*
X205238829Y-88428571D02*
X205334067Y-88380952D01*
X205334067Y-88380952D02*
X205524543Y-88333333D01*
X205524543Y-88333333D02*
X205667400Y-88333333D01*
X205667400Y-88333333D02*
X205857876Y-88380952D01*
X205857876Y-88380952D02*
X205953114Y-88428571D01*
X205953114Y-88428571D02*
X206048353Y-88523809D01*
X206048353Y-88523809D02*
X206095972Y-88666666D01*
X206095972Y-88666666D02*
X206095972Y-88904761D01*
X140343903Y-74102975D02*
X140296284Y-74055356D01*
X140296284Y-74055356D02*
X140248665Y-73960118D01*
X140248665Y-73960118D02*
X140248665Y-73722023D01*
X140248665Y-73722023D02*
X140296284Y-73626785D01*
X140296284Y-73626785D02*
X140343903Y-73579166D01*
X140343903Y-73579166D02*
X140439141Y-73531547D01*
X140439141Y-73531547D02*
X140534379Y-73531547D01*
X140534379Y-73531547D02*
X140677236Y-73579166D01*
X140677236Y-73579166D02*
X141248665Y-74150594D01*
X141248665Y-74150594D02*
X141248665Y-73531547D01*
X141248665Y-73102975D02*
X140248665Y-73102975D01*
X140867712Y-73007737D02*
X141248665Y-72722023D01*
X140581998Y-72722023D02*
X140962950Y-73102975D01*
X160664434Y-90142857D02*
X160664434Y-90619047D01*
X160664434Y-90619047D02*
X159664434Y-90619047D01*
X160140624Y-89809523D02*
X160140624Y-89476190D01*
X160664434Y-89333333D02*
X160664434Y-89809523D01*
X160664434Y-89809523D02*
X159664434Y-89809523D01*
X159664434Y-89809523D02*
X159664434Y-89333333D01*
X160664434Y-88904761D02*
X159664434Y-88904761D01*
X159664434Y-88904761D02*
X159664434Y-88666666D01*
X159664434Y-88666666D02*
X159712053Y-88523809D01*
X159712053Y-88523809D02*
X159807291Y-88428571D01*
X159807291Y-88428571D02*
X159902529Y-88380952D01*
X159902529Y-88380952D02*
X160093005Y-88333333D01*
X160093005Y-88333333D02*
X160235862Y-88333333D01*
X160235862Y-88333333D02*
X160426338Y-88380952D01*
X160426338Y-88380952D02*
X160521576Y-88428571D01*
X160521576Y-88428571D02*
X160616815Y-88523809D01*
X160616815Y-88523809D02*
X160664434Y-88666666D01*
X160664434Y-88666666D02*
X160664434Y-88904761D01*
X159997767Y-93928571D02*
X160664434Y-93928571D01*
X159616815Y-94166666D02*
X160331100Y-94404761D01*
X160331100Y-94404761D02*
X160331100Y-93785714D01*
X160569195Y-93404761D02*
X160616815Y-93357142D01*
X160616815Y-93357142D02*
X160664434Y-93404761D01*
X160664434Y-93404761D02*
X160616815Y-93452380D01*
X160616815Y-93452380D02*
X160569195Y-93404761D01*
X160569195Y-93404761D02*
X160664434Y-93404761D01*
X159664434Y-93023809D02*
X159664434Y-92404762D01*
X159664434Y-92404762D02*
X160045386Y-92738095D01*
X160045386Y-92738095D02*
X160045386Y-92595238D01*
X160045386Y-92595238D02*
X160093005Y-92500000D01*
X160093005Y-92500000D02*
X160140624Y-92452381D01*
X160140624Y-92452381D02*
X160235862Y-92404762D01*
X160235862Y-92404762D02*
X160473957Y-92404762D01*
X160473957Y-92404762D02*
X160569195Y-92452381D01*
X160569195Y-92452381D02*
X160616815Y-92500000D01*
X160616815Y-92500000D02*
X160664434Y-92595238D01*
X160664434Y-92595238D02*
X160664434Y-92880952D01*
X160664434Y-92880952D02*
X160616815Y-92976190D01*
X160616815Y-92976190D02*
X160569195Y-93023809D01*
X160664434Y-91976190D02*
X159664434Y-91976190D01*
X160283481Y-91880952D02*
X160664434Y-91595238D01*
X159997767Y-91595238D02*
X160378719Y-91976190D01*
X175138152Y-93928571D02*
X175804819Y-93928571D01*
X174757200Y-94166666D02*
X175471485Y-94404761D01*
X175471485Y-94404761D02*
X175471485Y-93785714D01*
X175709580Y-93404761D02*
X175757200Y-93357142D01*
X175757200Y-93357142D02*
X175804819Y-93404761D01*
X175804819Y-93404761D02*
X175757200Y-93452380D01*
X175757200Y-93452380D02*
X175709580Y-93404761D01*
X175709580Y-93404761D02*
X175804819Y-93404761D01*
X174804819Y-93023809D02*
X174804819Y-92404762D01*
X174804819Y-92404762D02*
X175185771Y-92738095D01*
X175185771Y-92738095D02*
X175185771Y-92595238D01*
X175185771Y-92595238D02*
X175233390Y-92500000D01*
X175233390Y-92500000D02*
X175281009Y-92452381D01*
X175281009Y-92452381D02*
X175376247Y-92404762D01*
X175376247Y-92404762D02*
X175614342Y-92404762D01*
X175614342Y-92404762D02*
X175709580Y-92452381D01*
X175709580Y-92452381D02*
X175757200Y-92500000D01*
X175757200Y-92500000D02*
X175804819Y-92595238D01*
X175804819Y-92595238D02*
X175804819Y-92880952D01*
X175804819Y-92880952D02*
X175757200Y-92976190D01*
X175757200Y-92976190D02*
X175709580Y-93023809D01*
X175804819Y-91976190D02*
X174804819Y-91976190D01*
X175423866Y-91880952D02*
X175804819Y-91595238D01*
X175138152Y-91595238D02*
X175519104Y-91976190D01*
X170631595Y-74102975D02*
X170583976Y-74055356D01*
X170583976Y-74055356D02*
X170536357Y-73960118D01*
X170536357Y-73960118D02*
X170536357Y-73722023D01*
X170536357Y-73722023D02*
X170583976Y-73626785D01*
X170583976Y-73626785D02*
X170631595Y-73579166D01*
X170631595Y-73579166D02*
X170726833Y-73531547D01*
X170726833Y-73531547D02*
X170822071Y-73531547D01*
X170822071Y-73531547D02*
X170964928Y-73579166D01*
X170964928Y-73579166D02*
X171536357Y-74150594D01*
X171536357Y-74150594D02*
X171536357Y-73531547D01*
X171536357Y-73102975D02*
X170536357Y-73102975D01*
X171155404Y-73007737D02*
X171536357Y-72722023D01*
X170869690Y-72722023D02*
X171250642Y-73102975D01*
X221239819Y-90142857D02*
X221239819Y-90619047D01*
X221239819Y-90619047D02*
X220239819Y-90619047D01*
X220716009Y-89809523D02*
X220716009Y-89476190D01*
X221239819Y-89333333D02*
X221239819Y-89809523D01*
X221239819Y-89809523D02*
X220239819Y-89809523D01*
X220239819Y-89809523D02*
X220239819Y-89333333D01*
X221239819Y-88904761D02*
X220239819Y-88904761D01*
X220239819Y-88904761D02*
X220239819Y-88666666D01*
X220239819Y-88666666D02*
X220287438Y-88523809D01*
X220287438Y-88523809D02*
X220382676Y-88428571D01*
X220382676Y-88428571D02*
X220477914Y-88380952D01*
X220477914Y-88380952D02*
X220668390Y-88333333D01*
X220668390Y-88333333D02*
X220811247Y-88333333D01*
X220811247Y-88333333D02*
X221001723Y-88380952D01*
X221001723Y-88380952D02*
X221096961Y-88428571D01*
X221096961Y-88428571D02*
X221192200Y-88523809D01*
X221192200Y-88523809D02*
X221239819Y-88666666D01*
X221239819Y-88666666D02*
X221239819Y-88904761D01*
X198524049Y-90142857D02*
X198524049Y-90619047D01*
X198524049Y-90619047D02*
X197524049Y-90619047D01*
X198000239Y-89809523D02*
X198000239Y-89476190D01*
X198524049Y-89333333D02*
X198524049Y-89809523D01*
X198524049Y-89809523D02*
X197524049Y-89809523D01*
X197524049Y-89809523D02*
X197524049Y-89333333D01*
X198524049Y-88904761D02*
X197524049Y-88904761D01*
X197524049Y-88904761D02*
X197524049Y-88666666D01*
X197524049Y-88666666D02*
X197571668Y-88523809D01*
X197571668Y-88523809D02*
X197666906Y-88428571D01*
X197666906Y-88428571D02*
X197762144Y-88380952D01*
X197762144Y-88380952D02*
X197952620Y-88333333D01*
X197952620Y-88333333D02*
X198095477Y-88333333D01*
X198095477Y-88333333D02*
X198285953Y-88380952D01*
X198285953Y-88380952D02*
X198381191Y-88428571D01*
X198381191Y-88428571D02*
X198476430Y-88523809D01*
X198476430Y-88523809D02*
X198524049Y-88666666D01*
X198524049Y-88666666D02*
X198524049Y-88904761D01*
X183380203Y-90142857D02*
X183380203Y-90619047D01*
X183380203Y-90619047D02*
X182380203Y-90619047D01*
X182856393Y-89809523D02*
X182856393Y-89476190D01*
X183380203Y-89333333D02*
X183380203Y-89809523D01*
X183380203Y-89809523D02*
X182380203Y-89809523D01*
X182380203Y-89809523D02*
X182380203Y-89333333D01*
X183380203Y-88904761D02*
X182380203Y-88904761D01*
X182380203Y-88904761D02*
X182380203Y-88666666D01*
X182380203Y-88666666D02*
X182427822Y-88523809D01*
X182427822Y-88523809D02*
X182523060Y-88428571D01*
X182523060Y-88428571D02*
X182618298Y-88380952D01*
X182618298Y-88380952D02*
X182808774Y-88333333D01*
X182808774Y-88333333D02*
X182951631Y-88333333D01*
X182951631Y-88333333D02*
X183142107Y-88380952D01*
X183142107Y-88380952D02*
X183237345Y-88428571D01*
X183237345Y-88428571D02*
X183332584Y-88523809D01*
X183332584Y-88523809D02*
X183380203Y-88666666D01*
X183380203Y-88666666D02*
X183380203Y-88904761D01*
X137281998Y-93928571D02*
X137948665Y-93928571D01*
X136901046Y-94166666D02*
X137615331Y-94404761D01*
X137615331Y-94404761D02*
X137615331Y-93785714D01*
X137853426Y-93404761D02*
X137901046Y-93357142D01*
X137901046Y-93357142D02*
X137948665Y-93404761D01*
X137948665Y-93404761D02*
X137901046Y-93452380D01*
X137901046Y-93452380D02*
X137853426Y-93404761D01*
X137853426Y-93404761D02*
X137948665Y-93404761D01*
X136948665Y-93023809D02*
X136948665Y-92404762D01*
X136948665Y-92404762D02*
X137329617Y-92738095D01*
X137329617Y-92738095D02*
X137329617Y-92595238D01*
X137329617Y-92595238D02*
X137377236Y-92500000D01*
X137377236Y-92500000D02*
X137424855Y-92452381D01*
X137424855Y-92452381D02*
X137520093Y-92404762D01*
X137520093Y-92404762D02*
X137758188Y-92404762D01*
X137758188Y-92404762D02*
X137853426Y-92452381D01*
X137853426Y-92452381D02*
X137901046Y-92500000D01*
X137901046Y-92500000D02*
X137948665Y-92595238D01*
X137948665Y-92595238D02*
X137948665Y-92880952D01*
X137948665Y-92880952D02*
X137901046Y-92976190D01*
X137901046Y-92976190D02*
X137853426Y-93023809D01*
X137948665Y-91976190D02*
X136948665Y-91976190D01*
X137567712Y-91880952D02*
X137948665Y-91595238D01*
X137281998Y-91595238D02*
X137662950Y-91976190D01*
X132771980Y-74102975D02*
X132724361Y-74055356D01*
X132724361Y-74055356D02*
X132676742Y-73960118D01*
X132676742Y-73960118D02*
X132676742Y-73722023D01*
X132676742Y-73722023D02*
X132724361Y-73626785D01*
X132724361Y-73626785D02*
X132771980Y-73579166D01*
X132771980Y-73579166D02*
X132867218Y-73531547D01*
X132867218Y-73531547D02*
X132962456Y-73531547D01*
X132962456Y-73531547D02*
X133105313Y-73579166D01*
X133105313Y-73579166D02*
X133676742Y-74150594D01*
X133676742Y-74150594D02*
X133676742Y-73531547D01*
X133676742Y-73102975D02*
X132676742Y-73102975D01*
X133295789Y-73007737D02*
X133676742Y-72722023D01*
X133010075Y-72722023D02*
X133391027Y-73102975D01*
X193252126Y-74293452D02*
X193252126Y-74769642D01*
X193252126Y-74769642D02*
X193728316Y-74817261D01*
X193728316Y-74817261D02*
X193680697Y-74769642D01*
X193680697Y-74769642D02*
X193633078Y-74674404D01*
X193633078Y-74674404D02*
X193633078Y-74436309D01*
X193633078Y-74436309D02*
X193680697Y-74341071D01*
X193680697Y-74341071D02*
X193728316Y-74293452D01*
X193728316Y-74293452D02*
X193823554Y-74245833D01*
X193823554Y-74245833D02*
X194061649Y-74245833D01*
X194061649Y-74245833D02*
X194156887Y-74293452D01*
X194156887Y-74293452D02*
X194204507Y-74341071D01*
X194204507Y-74341071D02*
X194252126Y-74436309D01*
X194252126Y-74436309D02*
X194252126Y-74674404D01*
X194252126Y-74674404D02*
X194204507Y-74769642D01*
X194204507Y-74769642D02*
X194156887Y-74817261D01*
X194156887Y-73817261D02*
X194204507Y-73769642D01*
X194204507Y-73769642D02*
X194252126Y-73817261D01*
X194252126Y-73817261D02*
X194204507Y-73864880D01*
X194204507Y-73864880D02*
X194156887Y-73817261D01*
X194156887Y-73817261D02*
X194252126Y-73817261D01*
X193252126Y-72912500D02*
X193252126Y-73102976D01*
X193252126Y-73102976D02*
X193299745Y-73198214D01*
X193299745Y-73198214D02*
X193347364Y-73245833D01*
X193347364Y-73245833D02*
X193490221Y-73341071D01*
X193490221Y-73341071D02*
X193680697Y-73388690D01*
X193680697Y-73388690D02*
X194061649Y-73388690D01*
X194061649Y-73388690D02*
X194156887Y-73341071D01*
X194156887Y-73341071D02*
X194204507Y-73293452D01*
X194204507Y-73293452D02*
X194252126Y-73198214D01*
X194252126Y-73198214D02*
X194252126Y-73007738D01*
X194252126Y-73007738D02*
X194204507Y-72912500D01*
X194204507Y-72912500D02*
X194156887Y-72864881D01*
X194156887Y-72864881D02*
X194061649Y-72817262D01*
X194061649Y-72817262D02*
X193823554Y-72817262D01*
X193823554Y-72817262D02*
X193728316Y-72864881D01*
X193728316Y-72864881D02*
X193680697Y-72912500D01*
X193680697Y-72912500D02*
X193633078Y-73007738D01*
X193633078Y-73007738D02*
X193633078Y-73198214D01*
X193633078Y-73198214D02*
X193680697Y-73293452D01*
X193680697Y-73293452D02*
X193728316Y-73341071D01*
X193728316Y-73341071D02*
X193823554Y-73388690D01*
X194252126Y-72388690D02*
X193252126Y-72388690D01*
X193871173Y-72293452D02*
X194252126Y-72007738D01*
X193585459Y-72007738D02*
X193966411Y-72388690D01*
X140366805Y-58230856D02*
X140414424Y-58183237D01*
X140414424Y-58183237D02*
X140509662Y-58135618D01*
X140509662Y-58135618D02*
X140747757Y-58135618D01*
X140747757Y-58135618D02*
X140842995Y-58183237D01*
X140842995Y-58183237D02*
X140890614Y-58230856D01*
X140890614Y-58230856D02*
X140938233Y-58326094D01*
X140938233Y-58326094D02*
X140938233Y-58421332D01*
X140938233Y-58421332D02*
X140890614Y-58564189D01*
X140890614Y-58564189D02*
X140319186Y-59135618D01*
X140319186Y-59135618D02*
X140938233Y-59135618D01*
X141795376Y-58135618D02*
X141604900Y-58135618D01*
X141604900Y-58135618D02*
X141509662Y-58183237D01*
X141509662Y-58183237D02*
X141462043Y-58230856D01*
X141462043Y-58230856D02*
X141366805Y-58373713D01*
X141366805Y-58373713D02*
X141319186Y-58564189D01*
X141319186Y-58564189D02*
X141319186Y-58945141D01*
X141319186Y-58945141D02*
X141366805Y-59040379D01*
X141366805Y-59040379D02*
X141414424Y-59087999D01*
X141414424Y-59087999D02*
X141509662Y-59135618D01*
X141509662Y-59135618D02*
X141700138Y-59135618D01*
X141700138Y-59135618D02*
X141795376Y-59087999D01*
X141795376Y-59087999D02*
X141842995Y-59040379D01*
X141842995Y-59040379D02*
X141890614Y-58945141D01*
X141890614Y-58945141D02*
X141890614Y-58707046D01*
X141890614Y-58707046D02*
X141842995Y-58611808D01*
X141842995Y-58611808D02*
X141795376Y-58564189D01*
X141795376Y-58564189D02*
X141700138Y-58516570D01*
X141700138Y-58516570D02*
X141509662Y-58516570D01*
X141509662Y-58516570D02*
X141414424Y-58564189D01*
X141414424Y-58564189D02*
X141366805Y-58611808D01*
X141366805Y-58611808D02*
X141319186Y-58707046D01*
X142509662Y-58135618D02*
X142604900Y-58135618D01*
X142604900Y-58135618D02*
X142700138Y-58183237D01*
X142700138Y-58183237D02*
X142747757Y-58230856D01*
X142747757Y-58230856D02*
X142795376Y-58326094D01*
X142795376Y-58326094D02*
X142842995Y-58516570D01*
X142842995Y-58516570D02*
X142842995Y-58754665D01*
X142842995Y-58754665D02*
X142795376Y-58945141D01*
X142795376Y-58945141D02*
X142747757Y-59040379D01*
X142747757Y-59040379D02*
X142700138Y-59087999D01*
X142700138Y-59087999D02*
X142604900Y-59135618D01*
X142604900Y-59135618D02*
X142509662Y-59135618D01*
X142509662Y-59135618D02*
X142414424Y-59087999D01*
X142414424Y-59087999D02*
X142366805Y-59040379D01*
X142366805Y-59040379D02*
X142319186Y-58945141D01*
X142319186Y-58945141D02*
X142271567Y-58754665D01*
X142271567Y-58754665D02*
X142271567Y-58516570D01*
X142271567Y-58516570D02*
X142319186Y-58326094D01*
X142319186Y-58326094D02*
X142366805Y-58230856D01*
X142366805Y-58230856D02*
X142414424Y-58183237D01*
X142414424Y-58183237D02*
X142509662Y-58135618D01*
X143795376Y-59135618D02*
X143223948Y-59135618D01*
X143509662Y-59135618D02*
X143509662Y-58135618D01*
X143509662Y-58135618D02*
X143414424Y-58278475D01*
X143414424Y-58278475D02*
X143319186Y-58373713D01*
X143319186Y-58373713D02*
X143223948Y-58421332D01*
X144223948Y-58754665D02*
X144985853Y-58754665D01*
X145366805Y-58135618D02*
X145985852Y-58135618D01*
X145985852Y-58135618D02*
X145652519Y-58516570D01*
X145652519Y-58516570D02*
X145795376Y-58516570D01*
X145795376Y-58516570D02*
X145890614Y-58564189D01*
X145890614Y-58564189D02*
X145938233Y-58611808D01*
X145938233Y-58611808D02*
X145985852Y-58707046D01*
X145985852Y-58707046D02*
X145985852Y-58945141D01*
X145985852Y-58945141D02*
X145938233Y-59040379D01*
X145938233Y-59040379D02*
X145890614Y-59087999D01*
X145890614Y-59087999D02*
X145795376Y-59135618D01*
X145795376Y-59135618D02*
X145509662Y-59135618D01*
X145509662Y-59135618D02*
X145414424Y-59087999D01*
X145414424Y-59087999D02*
X145366805Y-59040379D01*
X146938233Y-59135618D02*
X146366805Y-59135618D01*
X146652519Y-59135618D02*
X146652519Y-58135618D01*
X146652519Y-58135618D02*
X146557281Y-58278475D01*
X146557281Y-58278475D02*
X146462043Y-58373713D01*
X146462043Y-58373713D02*
X146366805Y-58421332D01*
X147557281Y-58135618D02*
X147652519Y-58135618D01*
X147652519Y-58135618D02*
X147747757Y-58183237D01*
X147747757Y-58183237D02*
X147795376Y-58230856D01*
X147795376Y-58230856D02*
X147842995Y-58326094D01*
X147842995Y-58326094D02*
X147890614Y-58516570D01*
X147890614Y-58516570D02*
X147890614Y-58754665D01*
X147890614Y-58754665D02*
X147842995Y-58945141D01*
X147842995Y-58945141D02*
X147795376Y-59040379D01*
X147795376Y-59040379D02*
X147747757Y-59087999D01*
X147747757Y-59087999D02*
X147652519Y-59135618D01*
X147652519Y-59135618D02*
X147557281Y-59135618D01*
X147557281Y-59135618D02*
X147462043Y-59087999D01*
X147462043Y-59087999D02*
X147414424Y-59040379D01*
X147414424Y-59040379D02*
X147366805Y-58945141D01*
X147366805Y-58945141D02*
X147319186Y-58754665D01*
X147319186Y-58754665D02*
X147319186Y-58516570D01*
X147319186Y-58516570D02*
X147366805Y-58326094D01*
X147366805Y-58326094D02*
X147414424Y-58230856D01*
X147414424Y-58230856D02*
X147462043Y-58183237D01*
X147462043Y-58183237D02*
X147557281Y-58135618D01*
X148462043Y-58564189D02*
X148366805Y-58516570D01*
X148366805Y-58516570D02*
X148319186Y-58468951D01*
X148319186Y-58468951D02*
X148271567Y-58373713D01*
X148271567Y-58373713D02*
X148271567Y-58326094D01*
X148271567Y-58326094D02*
X148319186Y-58230856D01*
X148319186Y-58230856D02*
X148366805Y-58183237D01*
X148366805Y-58183237D02*
X148462043Y-58135618D01*
X148462043Y-58135618D02*
X148652519Y-58135618D01*
X148652519Y-58135618D02*
X148747757Y-58183237D01*
X148747757Y-58183237D02*
X148795376Y-58230856D01*
X148795376Y-58230856D02*
X148842995Y-58326094D01*
X148842995Y-58326094D02*
X148842995Y-58373713D01*
X148842995Y-58373713D02*
X148795376Y-58468951D01*
X148795376Y-58468951D02*
X148747757Y-58516570D01*
X148747757Y-58516570D02*
X148652519Y-58564189D01*
X148652519Y-58564189D02*
X148462043Y-58564189D01*
X148462043Y-58564189D02*
X148366805Y-58611808D01*
X148366805Y-58611808D02*
X148319186Y-58659427D01*
X148319186Y-58659427D02*
X148271567Y-58754665D01*
X148271567Y-58754665D02*
X148271567Y-58945141D01*
X148271567Y-58945141D02*
X148319186Y-59040379D01*
X148319186Y-59040379D02*
X148366805Y-59087999D01*
X148366805Y-59087999D02*
X148462043Y-59135618D01*
X148462043Y-59135618D02*
X148652519Y-59135618D01*
X148652519Y-59135618D02*
X148747757Y-59087999D01*
X148747757Y-59087999D02*
X148795376Y-59040379D01*
X148795376Y-59040379D02*
X148842995Y-58945141D01*
X148842995Y-58945141D02*
X148842995Y-58754665D01*
X148842995Y-58754665D02*
X148795376Y-58659427D01*
X148795376Y-58659427D02*
X148747757Y-58611808D01*
X148747757Y-58611808D02*
X148652519Y-58564189D01*
X153092511Y-90142857D02*
X153092511Y-90619047D01*
X153092511Y-90619047D02*
X152092511Y-90619047D01*
X152568701Y-89809523D02*
X152568701Y-89476190D01*
X153092511Y-89333333D02*
X153092511Y-89809523D01*
X153092511Y-89809523D02*
X152092511Y-89809523D01*
X152092511Y-89809523D02*
X152092511Y-89333333D01*
X153092511Y-88904761D02*
X152092511Y-88904761D01*
X152092511Y-88904761D02*
X152092511Y-88666666D01*
X152092511Y-88666666D02*
X152140130Y-88523809D01*
X152140130Y-88523809D02*
X152235368Y-88428571D01*
X152235368Y-88428571D02*
X152330606Y-88380952D01*
X152330606Y-88380952D02*
X152521082Y-88333333D01*
X152521082Y-88333333D02*
X152663939Y-88333333D01*
X152663939Y-88333333D02*
X152854415Y-88380952D01*
X152854415Y-88380952D02*
X152949653Y-88428571D01*
X152949653Y-88428571D02*
X153044892Y-88523809D01*
X153044892Y-88523809D02*
X153092511Y-88666666D01*
X153092511Y-88666666D02*
X153092511Y-88904761D01*
X182713536Y-93928571D02*
X183380203Y-93928571D01*
X182332584Y-94166666D02*
X183046869Y-94404761D01*
X183046869Y-94404761D02*
X183046869Y-93785714D01*
X183284964Y-93404761D02*
X183332584Y-93357142D01*
X183332584Y-93357142D02*
X183380203Y-93404761D01*
X183380203Y-93404761D02*
X183332584Y-93452380D01*
X183332584Y-93452380D02*
X183284964Y-93404761D01*
X183284964Y-93404761D02*
X183380203Y-93404761D01*
X182380203Y-93023809D02*
X182380203Y-92404762D01*
X182380203Y-92404762D02*
X182761155Y-92738095D01*
X182761155Y-92738095D02*
X182761155Y-92595238D01*
X182761155Y-92595238D02*
X182808774Y-92500000D01*
X182808774Y-92500000D02*
X182856393Y-92452381D01*
X182856393Y-92452381D02*
X182951631Y-92404762D01*
X182951631Y-92404762D02*
X183189726Y-92404762D01*
X183189726Y-92404762D02*
X183284964Y-92452381D01*
X183284964Y-92452381D02*
X183332584Y-92500000D01*
X183332584Y-92500000D02*
X183380203Y-92595238D01*
X183380203Y-92595238D02*
X183380203Y-92880952D01*
X183380203Y-92880952D02*
X183332584Y-92976190D01*
X183332584Y-92976190D02*
X183284964Y-93023809D01*
X183380203Y-91976190D02*
X182380203Y-91976190D01*
X182999250Y-91880952D02*
X183380203Y-91595238D01*
X182713536Y-91595238D02*
X183094488Y-91976190D01*
X208245972Y-74205952D02*
X208245972Y-74682142D01*
X208245972Y-74682142D02*
X208722162Y-74729761D01*
X208722162Y-74729761D02*
X208674543Y-74682142D01*
X208674543Y-74682142D02*
X208626924Y-74586904D01*
X208626924Y-74586904D02*
X208626924Y-74348809D01*
X208626924Y-74348809D02*
X208674543Y-74253571D01*
X208674543Y-74253571D02*
X208722162Y-74205952D01*
X208722162Y-74205952D02*
X208817400Y-74158333D01*
X208817400Y-74158333D02*
X209055495Y-74158333D01*
X209055495Y-74158333D02*
X209150733Y-74205952D01*
X209150733Y-74205952D02*
X209198353Y-74253571D01*
X209198353Y-74253571D02*
X209245972Y-74348809D01*
X209245972Y-74348809D02*
X209245972Y-74586904D01*
X209245972Y-74586904D02*
X209198353Y-74682142D01*
X209198353Y-74682142D02*
X209150733Y-74729761D01*
X209150733Y-73729761D02*
X209198353Y-73682142D01*
X209198353Y-73682142D02*
X209245972Y-73729761D01*
X209245972Y-73729761D02*
X209198353Y-73777380D01*
X209198353Y-73777380D02*
X209150733Y-73729761D01*
X209150733Y-73729761D02*
X209245972Y-73729761D01*
X208245972Y-72825000D02*
X208245972Y-73015476D01*
X208245972Y-73015476D02*
X208293591Y-73110714D01*
X208293591Y-73110714D02*
X208341210Y-73158333D01*
X208341210Y-73158333D02*
X208484067Y-73253571D01*
X208484067Y-73253571D02*
X208674543Y-73301190D01*
X208674543Y-73301190D02*
X209055495Y-73301190D01*
X209055495Y-73301190D02*
X209150733Y-73253571D01*
X209150733Y-73253571D02*
X209198353Y-73205952D01*
X209198353Y-73205952D02*
X209245972Y-73110714D01*
X209245972Y-73110714D02*
X209245972Y-72920238D01*
X209245972Y-72920238D02*
X209198353Y-72825000D01*
X209198353Y-72825000D02*
X209150733Y-72777381D01*
X209150733Y-72777381D02*
X209055495Y-72729762D01*
X209055495Y-72729762D02*
X208817400Y-72729762D01*
X208817400Y-72729762D02*
X208722162Y-72777381D01*
X208722162Y-72777381D02*
X208674543Y-72825000D01*
X208674543Y-72825000D02*
X208626924Y-72920238D01*
X208626924Y-72920238D02*
X208626924Y-73110714D01*
X208626924Y-73110714D02*
X208674543Y-73205952D01*
X208674543Y-73205952D02*
X208722162Y-73253571D01*
X208722162Y-73253571D02*
X208817400Y-73301190D01*
X209245972Y-72301190D02*
X208245972Y-72301190D01*
X208865019Y-72205952D02*
X209245972Y-71920238D01*
X208579305Y-71920238D02*
X208960257Y-72301190D01*
X200824049Y-74293452D02*
X200824049Y-74769642D01*
X200824049Y-74769642D02*
X201300239Y-74817261D01*
X201300239Y-74817261D02*
X201252620Y-74769642D01*
X201252620Y-74769642D02*
X201205001Y-74674404D01*
X201205001Y-74674404D02*
X201205001Y-74436309D01*
X201205001Y-74436309D02*
X201252620Y-74341071D01*
X201252620Y-74341071D02*
X201300239Y-74293452D01*
X201300239Y-74293452D02*
X201395477Y-74245833D01*
X201395477Y-74245833D02*
X201633572Y-74245833D01*
X201633572Y-74245833D02*
X201728810Y-74293452D01*
X201728810Y-74293452D02*
X201776430Y-74341071D01*
X201776430Y-74341071D02*
X201824049Y-74436309D01*
X201824049Y-74436309D02*
X201824049Y-74674404D01*
X201824049Y-74674404D02*
X201776430Y-74769642D01*
X201776430Y-74769642D02*
X201728810Y-74817261D01*
X201728810Y-73817261D02*
X201776430Y-73769642D01*
X201776430Y-73769642D02*
X201824049Y-73817261D01*
X201824049Y-73817261D02*
X201776430Y-73864880D01*
X201776430Y-73864880D02*
X201728810Y-73817261D01*
X201728810Y-73817261D02*
X201824049Y-73817261D01*
X200824049Y-72912500D02*
X200824049Y-73102976D01*
X200824049Y-73102976D02*
X200871668Y-73198214D01*
X200871668Y-73198214D02*
X200919287Y-73245833D01*
X200919287Y-73245833D02*
X201062144Y-73341071D01*
X201062144Y-73341071D02*
X201252620Y-73388690D01*
X201252620Y-73388690D02*
X201633572Y-73388690D01*
X201633572Y-73388690D02*
X201728810Y-73341071D01*
X201728810Y-73341071D02*
X201776430Y-73293452D01*
X201776430Y-73293452D02*
X201824049Y-73198214D01*
X201824049Y-73198214D02*
X201824049Y-73007738D01*
X201824049Y-73007738D02*
X201776430Y-72912500D01*
X201776430Y-72912500D02*
X201728810Y-72864881D01*
X201728810Y-72864881D02*
X201633572Y-72817262D01*
X201633572Y-72817262D02*
X201395477Y-72817262D01*
X201395477Y-72817262D02*
X201300239Y-72864881D01*
X201300239Y-72864881D02*
X201252620Y-72912500D01*
X201252620Y-72912500D02*
X201205001Y-73007738D01*
X201205001Y-73007738D02*
X201205001Y-73198214D01*
X201205001Y-73198214D02*
X201252620Y-73293452D01*
X201252620Y-73293452D02*
X201300239Y-73341071D01*
X201300239Y-73341071D02*
X201395477Y-73388690D01*
X201824049Y-72388690D02*
X200824049Y-72388690D01*
X201443096Y-72293452D02*
X201824049Y-72007738D01*
X201157382Y-72007738D02*
X201538334Y-72388690D01*
X147915826Y-74102975D02*
X147868207Y-74055356D01*
X147868207Y-74055356D02*
X147820588Y-73960118D01*
X147820588Y-73960118D02*
X147820588Y-73722023D01*
X147820588Y-73722023D02*
X147868207Y-73626785D01*
X147868207Y-73626785D02*
X147915826Y-73579166D01*
X147915826Y-73579166D02*
X148011064Y-73531547D01*
X148011064Y-73531547D02*
X148106302Y-73531547D01*
X148106302Y-73531547D02*
X148249159Y-73579166D01*
X148249159Y-73579166D02*
X148820588Y-74150594D01*
X148820588Y-74150594D02*
X148820588Y-73531547D01*
X148820588Y-73102975D02*
X147820588Y-73102975D01*
X148439635Y-73007737D02*
X148820588Y-72722023D01*
X148153921Y-72722023D02*
X148534873Y-73102975D01*
X145520588Y-90142857D02*
X145520588Y-90619047D01*
X145520588Y-90619047D02*
X144520588Y-90619047D01*
X144996778Y-89809523D02*
X144996778Y-89476190D01*
X145520588Y-89333333D02*
X145520588Y-89809523D01*
X145520588Y-89809523D02*
X144520588Y-89809523D01*
X144520588Y-89809523D02*
X144520588Y-89333333D01*
X145520588Y-88904761D02*
X144520588Y-88904761D01*
X144520588Y-88904761D02*
X144520588Y-88666666D01*
X144520588Y-88666666D02*
X144568207Y-88523809D01*
X144568207Y-88523809D02*
X144663445Y-88428571D01*
X144663445Y-88428571D02*
X144758683Y-88380952D01*
X144758683Y-88380952D02*
X144949159Y-88333333D01*
X144949159Y-88333333D02*
X145092016Y-88333333D01*
X145092016Y-88333333D02*
X145282492Y-88380952D01*
X145282492Y-88380952D02*
X145377730Y-88428571D01*
X145377730Y-88428571D02*
X145472969Y-88523809D01*
X145472969Y-88523809D02*
X145520588Y-88666666D01*
X145520588Y-88666666D02*
X145520588Y-88904761D01*
X167569690Y-93928571D02*
X168236357Y-93928571D01*
X167188738Y-94166666D02*
X167903023Y-94404761D01*
X167903023Y-94404761D02*
X167903023Y-93785714D01*
X168141118Y-93404761D02*
X168188738Y-93357142D01*
X168188738Y-93357142D02*
X168236357Y-93404761D01*
X168236357Y-93404761D02*
X168188738Y-93452380D01*
X168188738Y-93452380D02*
X168141118Y-93404761D01*
X168141118Y-93404761D02*
X168236357Y-93404761D01*
X167236357Y-93023809D02*
X167236357Y-92404762D01*
X167236357Y-92404762D02*
X167617309Y-92738095D01*
X167617309Y-92738095D02*
X167617309Y-92595238D01*
X167617309Y-92595238D02*
X167664928Y-92500000D01*
X167664928Y-92500000D02*
X167712547Y-92452381D01*
X167712547Y-92452381D02*
X167807785Y-92404762D01*
X167807785Y-92404762D02*
X168045880Y-92404762D01*
X168045880Y-92404762D02*
X168141118Y-92452381D01*
X168141118Y-92452381D02*
X168188738Y-92500000D01*
X168188738Y-92500000D02*
X168236357Y-92595238D01*
X168236357Y-92595238D02*
X168236357Y-92880952D01*
X168236357Y-92880952D02*
X168188738Y-92976190D01*
X168188738Y-92976190D02*
X168141118Y-93023809D01*
X168236357Y-91976190D02*
X167236357Y-91976190D01*
X167855404Y-91880952D02*
X168236357Y-91595238D01*
X167569690Y-91595238D02*
X167950642Y-91976190D01*
X175808280Y-90142857D02*
X175808280Y-90619047D01*
X175808280Y-90619047D02*
X174808280Y-90619047D01*
X175284470Y-89809523D02*
X175284470Y-89476190D01*
X175808280Y-89333333D02*
X175808280Y-89809523D01*
X175808280Y-89809523D02*
X174808280Y-89809523D01*
X174808280Y-89809523D02*
X174808280Y-89333333D01*
X175808280Y-88904761D02*
X174808280Y-88904761D01*
X174808280Y-88904761D02*
X174808280Y-88666666D01*
X174808280Y-88666666D02*
X174855899Y-88523809D01*
X174855899Y-88523809D02*
X174951137Y-88428571D01*
X174951137Y-88428571D02*
X175046375Y-88380952D01*
X175046375Y-88380952D02*
X175236851Y-88333333D01*
X175236851Y-88333333D02*
X175379708Y-88333333D01*
X175379708Y-88333333D02*
X175570184Y-88380952D01*
X175570184Y-88380952D02*
X175665422Y-88428571D01*
X175665422Y-88428571D02*
X175760661Y-88523809D01*
X175760661Y-88523809D02*
X175808280Y-88666666D01*
X175808280Y-88666666D02*
X175808280Y-88904761D01*
X168236357Y-90142857D02*
X168236357Y-90619047D01*
X168236357Y-90619047D02*
X167236357Y-90619047D01*
X167712547Y-89809523D02*
X167712547Y-89476190D01*
X168236357Y-89333333D02*
X168236357Y-89809523D01*
X168236357Y-89809523D02*
X167236357Y-89809523D01*
X167236357Y-89809523D02*
X167236357Y-89333333D01*
X168236357Y-88904761D02*
X167236357Y-88904761D01*
X167236357Y-88904761D02*
X167236357Y-88666666D01*
X167236357Y-88666666D02*
X167283976Y-88523809D01*
X167283976Y-88523809D02*
X167379214Y-88428571D01*
X167379214Y-88428571D02*
X167474452Y-88380952D01*
X167474452Y-88380952D02*
X167664928Y-88333333D01*
X167664928Y-88333333D02*
X167807785Y-88333333D01*
X167807785Y-88333333D02*
X167998261Y-88380952D01*
X167998261Y-88380952D02*
X168093499Y-88428571D01*
X168093499Y-88428571D02*
X168188738Y-88523809D01*
X168188738Y-88523809D02*
X168236357Y-88666666D01*
X168236357Y-88666666D02*
X168236357Y-88904761D01*
X185680203Y-74293452D02*
X185680203Y-74769642D01*
X185680203Y-74769642D02*
X186156393Y-74817261D01*
X186156393Y-74817261D02*
X186108774Y-74769642D01*
X186108774Y-74769642D02*
X186061155Y-74674404D01*
X186061155Y-74674404D02*
X186061155Y-74436309D01*
X186061155Y-74436309D02*
X186108774Y-74341071D01*
X186108774Y-74341071D02*
X186156393Y-74293452D01*
X186156393Y-74293452D02*
X186251631Y-74245833D01*
X186251631Y-74245833D02*
X186489726Y-74245833D01*
X186489726Y-74245833D02*
X186584964Y-74293452D01*
X186584964Y-74293452D02*
X186632584Y-74341071D01*
X186632584Y-74341071D02*
X186680203Y-74436309D01*
X186680203Y-74436309D02*
X186680203Y-74674404D01*
X186680203Y-74674404D02*
X186632584Y-74769642D01*
X186632584Y-74769642D02*
X186584964Y-74817261D01*
X186584964Y-73817261D02*
X186632584Y-73769642D01*
X186632584Y-73769642D02*
X186680203Y-73817261D01*
X186680203Y-73817261D02*
X186632584Y-73864880D01*
X186632584Y-73864880D02*
X186584964Y-73817261D01*
X186584964Y-73817261D02*
X186680203Y-73817261D01*
X185680203Y-72912500D02*
X185680203Y-73102976D01*
X185680203Y-73102976D02*
X185727822Y-73198214D01*
X185727822Y-73198214D02*
X185775441Y-73245833D01*
X185775441Y-73245833D02*
X185918298Y-73341071D01*
X185918298Y-73341071D02*
X186108774Y-73388690D01*
X186108774Y-73388690D02*
X186489726Y-73388690D01*
X186489726Y-73388690D02*
X186584964Y-73341071D01*
X186584964Y-73341071D02*
X186632584Y-73293452D01*
X186632584Y-73293452D02*
X186680203Y-73198214D01*
X186680203Y-73198214D02*
X186680203Y-73007738D01*
X186680203Y-73007738D02*
X186632584Y-72912500D01*
X186632584Y-72912500D02*
X186584964Y-72864881D01*
X186584964Y-72864881D02*
X186489726Y-72817262D01*
X186489726Y-72817262D02*
X186251631Y-72817262D01*
X186251631Y-72817262D02*
X186156393Y-72864881D01*
X186156393Y-72864881D02*
X186108774Y-72912500D01*
X186108774Y-72912500D02*
X186061155Y-73007738D01*
X186061155Y-73007738D02*
X186061155Y-73198214D01*
X186061155Y-73198214D02*
X186108774Y-73293452D01*
X186108774Y-73293452D02*
X186156393Y-73341071D01*
X186156393Y-73341071D02*
X186251631Y-73388690D01*
X186680203Y-72388690D02*
X185680203Y-72388690D01*
X186299250Y-72293452D02*
X186680203Y-72007738D01*
X186013536Y-72007738D02*
X186394488Y-72388690D01*
X205144305Y-94108571D02*
X205810972Y-94108571D01*
X204763353Y-94346666D02*
X205477638Y-94584761D01*
X205477638Y-94584761D02*
X205477638Y-93965714D01*
X205715733Y-93584761D02*
X205763353Y-93537142D01*
X205763353Y-93537142D02*
X205810972Y-93584761D01*
X205810972Y-93584761D02*
X205763353Y-93632380D01*
X205763353Y-93632380D02*
X205715733Y-93584761D01*
X205715733Y-93584761D02*
X205810972Y-93584761D01*
X204810972Y-93203809D02*
X204810972Y-92584762D01*
X204810972Y-92584762D02*
X205191924Y-92918095D01*
X205191924Y-92918095D02*
X205191924Y-92775238D01*
X205191924Y-92775238D02*
X205239543Y-92680000D01*
X205239543Y-92680000D02*
X205287162Y-92632381D01*
X205287162Y-92632381D02*
X205382400Y-92584762D01*
X205382400Y-92584762D02*
X205620495Y-92584762D01*
X205620495Y-92584762D02*
X205715733Y-92632381D01*
X205715733Y-92632381D02*
X205763353Y-92680000D01*
X205763353Y-92680000D02*
X205810972Y-92775238D01*
X205810972Y-92775238D02*
X205810972Y-93060952D01*
X205810972Y-93060952D02*
X205763353Y-93156190D01*
X205763353Y-93156190D02*
X205715733Y-93203809D01*
X205810972Y-92156190D02*
X204810972Y-92156190D01*
X205430019Y-92060952D02*
X205810972Y-91775238D01*
X205144305Y-91775238D02*
X205525257Y-92156190D01*
X163059672Y-74102975D02*
X163012053Y-74055356D01*
X163012053Y-74055356D02*
X162964434Y-73960118D01*
X162964434Y-73960118D02*
X162964434Y-73722023D01*
X162964434Y-73722023D02*
X163012053Y-73626785D01*
X163012053Y-73626785D02*
X163059672Y-73579166D01*
X163059672Y-73579166D02*
X163154910Y-73531547D01*
X163154910Y-73531547D02*
X163250148Y-73531547D01*
X163250148Y-73531547D02*
X163393005Y-73579166D01*
X163393005Y-73579166D02*
X163964434Y-74150594D01*
X163964434Y-74150594D02*
X163964434Y-73531547D01*
X163964434Y-73102975D02*
X162964434Y-73102975D01*
X163583481Y-73007737D02*
X163964434Y-72722023D01*
X163297767Y-72722023D02*
X163678719Y-73102975D01*
X178108280Y-74293452D02*
X178108280Y-74769642D01*
X178108280Y-74769642D02*
X178584470Y-74817261D01*
X178584470Y-74817261D02*
X178536851Y-74769642D01*
X178536851Y-74769642D02*
X178489232Y-74674404D01*
X178489232Y-74674404D02*
X178489232Y-74436309D01*
X178489232Y-74436309D02*
X178536851Y-74341071D01*
X178536851Y-74341071D02*
X178584470Y-74293452D01*
X178584470Y-74293452D02*
X178679708Y-74245833D01*
X178679708Y-74245833D02*
X178917803Y-74245833D01*
X178917803Y-74245833D02*
X179013041Y-74293452D01*
X179013041Y-74293452D02*
X179060661Y-74341071D01*
X179060661Y-74341071D02*
X179108280Y-74436309D01*
X179108280Y-74436309D02*
X179108280Y-74674404D01*
X179108280Y-74674404D02*
X179060661Y-74769642D01*
X179060661Y-74769642D02*
X179013041Y-74817261D01*
X179013041Y-73817261D02*
X179060661Y-73769642D01*
X179060661Y-73769642D02*
X179108280Y-73817261D01*
X179108280Y-73817261D02*
X179060661Y-73864880D01*
X179060661Y-73864880D02*
X179013041Y-73817261D01*
X179013041Y-73817261D02*
X179108280Y-73817261D01*
X178108280Y-72912500D02*
X178108280Y-73102976D01*
X178108280Y-73102976D02*
X178155899Y-73198214D01*
X178155899Y-73198214D02*
X178203518Y-73245833D01*
X178203518Y-73245833D02*
X178346375Y-73341071D01*
X178346375Y-73341071D02*
X178536851Y-73388690D01*
X178536851Y-73388690D02*
X178917803Y-73388690D01*
X178917803Y-73388690D02*
X179013041Y-73341071D01*
X179013041Y-73341071D02*
X179060661Y-73293452D01*
X179060661Y-73293452D02*
X179108280Y-73198214D01*
X179108280Y-73198214D02*
X179108280Y-73007738D01*
X179108280Y-73007738D02*
X179060661Y-72912500D01*
X179060661Y-72912500D02*
X179013041Y-72864881D01*
X179013041Y-72864881D02*
X178917803Y-72817262D01*
X178917803Y-72817262D02*
X178679708Y-72817262D01*
X178679708Y-72817262D02*
X178584470Y-72864881D01*
X178584470Y-72864881D02*
X178536851Y-72912500D01*
X178536851Y-72912500D02*
X178489232Y-73007738D01*
X178489232Y-73007738D02*
X178489232Y-73198214D01*
X178489232Y-73198214D02*
X178536851Y-73293452D01*
X178536851Y-73293452D02*
X178584470Y-73341071D01*
X178584470Y-73341071D02*
X178679708Y-73388690D01*
X179108280Y-72388690D02*
X178108280Y-72388690D01*
X178727327Y-72293452D02*
X179108280Y-72007738D01*
X178441613Y-72007738D02*
X178822565Y-72388690D01*
X144853921Y-93928571D02*
X145520588Y-93928571D01*
X144472969Y-94166666D02*
X145187254Y-94404761D01*
X145187254Y-94404761D02*
X145187254Y-93785714D01*
X145425349Y-93404761D02*
X145472969Y-93357142D01*
X145472969Y-93357142D02*
X145520588Y-93404761D01*
X145520588Y-93404761D02*
X145472969Y-93452380D01*
X145472969Y-93452380D02*
X145425349Y-93404761D01*
X145425349Y-93404761D02*
X145520588Y-93404761D01*
X144520588Y-93023809D02*
X144520588Y-92404762D01*
X144520588Y-92404762D02*
X144901540Y-92738095D01*
X144901540Y-92738095D02*
X144901540Y-92595238D01*
X144901540Y-92595238D02*
X144949159Y-92500000D01*
X144949159Y-92500000D02*
X144996778Y-92452381D01*
X144996778Y-92452381D02*
X145092016Y-92404762D01*
X145092016Y-92404762D02*
X145330111Y-92404762D01*
X145330111Y-92404762D02*
X145425349Y-92452381D01*
X145425349Y-92452381D02*
X145472969Y-92500000D01*
X145472969Y-92500000D02*
X145520588Y-92595238D01*
X145520588Y-92595238D02*
X145520588Y-92880952D01*
X145520588Y-92880952D02*
X145472969Y-92976190D01*
X145472969Y-92976190D02*
X145425349Y-93023809D01*
X145520588Y-91976190D02*
X144520588Y-91976190D01*
X145139635Y-91880952D02*
X145520588Y-91595238D01*
X144853921Y-91595238D02*
X145234873Y-91976190D01*
X190285459Y-93928571D02*
X190952126Y-93928571D01*
X189904507Y-94166666D02*
X190618792Y-94404761D01*
X190618792Y-94404761D02*
X190618792Y-93785714D01*
X190856887Y-93404761D02*
X190904507Y-93357142D01*
X190904507Y-93357142D02*
X190952126Y-93404761D01*
X190952126Y-93404761D02*
X190904507Y-93452380D01*
X190904507Y-93452380D02*
X190856887Y-93404761D01*
X190856887Y-93404761D02*
X190952126Y-93404761D01*
X189952126Y-93023809D02*
X189952126Y-92404762D01*
X189952126Y-92404762D02*
X190333078Y-92738095D01*
X190333078Y-92738095D02*
X190333078Y-92595238D01*
X190333078Y-92595238D02*
X190380697Y-92500000D01*
X190380697Y-92500000D02*
X190428316Y-92452381D01*
X190428316Y-92452381D02*
X190523554Y-92404762D01*
X190523554Y-92404762D02*
X190761649Y-92404762D01*
X190761649Y-92404762D02*
X190856887Y-92452381D01*
X190856887Y-92452381D02*
X190904507Y-92500000D01*
X190904507Y-92500000D02*
X190952126Y-92595238D01*
X190952126Y-92595238D02*
X190952126Y-92880952D01*
X190952126Y-92880952D02*
X190904507Y-92976190D01*
X190904507Y-92976190D02*
X190856887Y-93023809D01*
X190952126Y-91976190D02*
X189952126Y-91976190D01*
X190571173Y-91880952D02*
X190952126Y-91595238D01*
X190285459Y-91595238D02*
X190666411Y-91976190D01*
X197857382Y-93928571D02*
X198524049Y-93928571D01*
X197476430Y-94166666D02*
X198190715Y-94404761D01*
X198190715Y-94404761D02*
X198190715Y-93785714D01*
X198428810Y-93404761D02*
X198476430Y-93357142D01*
X198476430Y-93357142D02*
X198524049Y-93404761D01*
X198524049Y-93404761D02*
X198476430Y-93452380D01*
X198476430Y-93452380D02*
X198428810Y-93404761D01*
X198428810Y-93404761D02*
X198524049Y-93404761D01*
X197524049Y-93023809D02*
X197524049Y-92404762D01*
X197524049Y-92404762D02*
X197905001Y-92738095D01*
X197905001Y-92738095D02*
X197905001Y-92595238D01*
X197905001Y-92595238D02*
X197952620Y-92500000D01*
X197952620Y-92500000D02*
X198000239Y-92452381D01*
X198000239Y-92452381D02*
X198095477Y-92404762D01*
X198095477Y-92404762D02*
X198333572Y-92404762D01*
X198333572Y-92404762D02*
X198428810Y-92452381D01*
X198428810Y-92452381D02*
X198476430Y-92500000D01*
X198476430Y-92500000D02*
X198524049Y-92595238D01*
X198524049Y-92595238D02*
X198524049Y-92880952D01*
X198524049Y-92880952D02*
X198476430Y-92976190D01*
X198476430Y-92976190D02*
X198428810Y-93023809D01*
X198524049Y-91976190D02*
X197524049Y-91976190D01*
X198143096Y-91880952D02*
X198524049Y-91595238D01*
X197857382Y-91595238D02*
X198238334Y-91976190D01*
X122138152Y-93928571D02*
X122804819Y-93928571D01*
X121757200Y-94166666D02*
X122471485Y-94404761D01*
X122471485Y-94404761D02*
X122471485Y-93785714D01*
X122709580Y-93404761D02*
X122757200Y-93357142D01*
X122757200Y-93357142D02*
X122804819Y-93404761D01*
X122804819Y-93404761D02*
X122757200Y-93452380D01*
X122757200Y-93452380D02*
X122709580Y-93404761D01*
X122709580Y-93404761D02*
X122804819Y-93404761D01*
X121804819Y-93023809D02*
X121804819Y-92404762D01*
X121804819Y-92404762D02*
X122185771Y-92738095D01*
X122185771Y-92738095D02*
X122185771Y-92595238D01*
X122185771Y-92595238D02*
X122233390Y-92500000D01*
X122233390Y-92500000D02*
X122281009Y-92452381D01*
X122281009Y-92452381D02*
X122376247Y-92404762D01*
X122376247Y-92404762D02*
X122614342Y-92404762D01*
X122614342Y-92404762D02*
X122709580Y-92452381D01*
X122709580Y-92452381D02*
X122757200Y-92500000D01*
X122757200Y-92500000D02*
X122804819Y-92595238D01*
X122804819Y-92595238D02*
X122804819Y-92880952D01*
X122804819Y-92880952D02*
X122757200Y-92976190D01*
X122757200Y-92976190D02*
X122709580Y-93023809D01*
X122804819Y-91976190D02*
X121804819Y-91976190D01*
X122423866Y-91880952D02*
X122804819Y-91595238D01*
X122138152Y-91595238D02*
X122519104Y-91976190D01*
X213001228Y-93928571D02*
X213667895Y-93928571D01*
X212620276Y-94166666D02*
X213334561Y-94404761D01*
X213334561Y-94404761D02*
X213334561Y-93785714D01*
X213572656Y-93404761D02*
X213620276Y-93357142D01*
X213620276Y-93357142D02*
X213667895Y-93404761D01*
X213667895Y-93404761D02*
X213620276Y-93452380D01*
X213620276Y-93452380D02*
X213572656Y-93404761D01*
X213572656Y-93404761D02*
X213667895Y-93404761D01*
X212667895Y-93023809D02*
X212667895Y-92404762D01*
X212667895Y-92404762D02*
X213048847Y-92738095D01*
X213048847Y-92738095D02*
X213048847Y-92595238D01*
X213048847Y-92595238D02*
X213096466Y-92500000D01*
X213096466Y-92500000D02*
X213144085Y-92452381D01*
X213144085Y-92452381D02*
X213239323Y-92404762D01*
X213239323Y-92404762D02*
X213477418Y-92404762D01*
X213477418Y-92404762D02*
X213572656Y-92452381D01*
X213572656Y-92452381D02*
X213620276Y-92500000D01*
X213620276Y-92500000D02*
X213667895Y-92595238D01*
X213667895Y-92595238D02*
X213667895Y-92880952D01*
X213667895Y-92880952D02*
X213620276Y-92976190D01*
X213620276Y-92976190D02*
X213572656Y-93023809D01*
X213667895Y-91976190D02*
X212667895Y-91976190D01*
X213286942Y-91880952D02*
X213667895Y-91595238D01*
X213001228Y-91595238D02*
X213382180Y-91976190D01*
X215967895Y-74293452D02*
X215967895Y-74769642D01*
X215967895Y-74769642D02*
X216444085Y-74817261D01*
X216444085Y-74817261D02*
X216396466Y-74769642D01*
X216396466Y-74769642D02*
X216348847Y-74674404D01*
X216348847Y-74674404D02*
X216348847Y-74436309D01*
X216348847Y-74436309D02*
X216396466Y-74341071D01*
X216396466Y-74341071D02*
X216444085Y-74293452D01*
X216444085Y-74293452D02*
X216539323Y-74245833D01*
X216539323Y-74245833D02*
X216777418Y-74245833D01*
X216777418Y-74245833D02*
X216872656Y-74293452D01*
X216872656Y-74293452D02*
X216920276Y-74341071D01*
X216920276Y-74341071D02*
X216967895Y-74436309D01*
X216967895Y-74436309D02*
X216967895Y-74674404D01*
X216967895Y-74674404D02*
X216920276Y-74769642D01*
X216920276Y-74769642D02*
X216872656Y-74817261D01*
X216872656Y-73817261D02*
X216920276Y-73769642D01*
X216920276Y-73769642D02*
X216967895Y-73817261D01*
X216967895Y-73817261D02*
X216920276Y-73864880D01*
X216920276Y-73864880D02*
X216872656Y-73817261D01*
X216872656Y-73817261D02*
X216967895Y-73817261D01*
X215967895Y-72912500D02*
X215967895Y-73102976D01*
X215967895Y-73102976D02*
X216015514Y-73198214D01*
X216015514Y-73198214D02*
X216063133Y-73245833D01*
X216063133Y-73245833D02*
X216205990Y-73341071D01*
X216205990Y-73341071D02*
X216396466Y-73388690D01*
X216396466Y-73388690D02*
X216777418Y-73388690D01*
X216777418Y-73388690D02*
X216872656Y-73341071D01*
X216872656Y-73341071D02*
X216920276Y-73293452D01*
X216920276Y-73293452D02*
X216967895Y-73198214D01*
X216967895Y-73198214D02*
X216967895Y-73007738D01*
X216967895Y-73007738D02*
X216920276Y-72912500D01*
X216920276Y-72912500D02*
X216872656Y-72864881D01*
X216872656Y-72864881D02*
X216777418Y-72817262D01*
X216777418Y-72817262D02*
X216539323Y-72817262D01*
X216539323Y-72817262D02*
X216444085Y-72864881D01*
X216444085Y-72864881D02*
X216396466Y-72912500D01*
X216396466Y-72912500D02*
X216348847Y-73007738D01*
X216348847Y-73007738D02*
X216348847Y-73198214D01*
X216348847Y-73198214D02*
X216396466Y-73293452D01*
X216396466Y-73293452D02*
X216444085Y-73341071D01*
X216444085Y-73341071D02*
X216539323Y-73388690D01*
X216967895Y-72388690D02*
X215967895Y-72388690D01*
X216586942Y-72293452D02*
X216967895Y-72007738D01*
X216301228Y-72007738D02*
X216682180Y-72388690D01*
X220573152Y-93928571D02*
X221239819Y-93928571D01*
X220192200Y-94166666D02*
X220906485Y-94404761D01*
X220906485Y-94404761D02*
X220906485Y-93785714D01*
X221144580Y-93404761D02*
X221192200Y-93357142D01*
X221192200Y-93357142D02*
X221239819Y-93404761D01*
X221239819Y-93404761D02*
X221192200Y-93452380D01*
X221192200Y-93452380D02*
X221144580Y-93404761D01*
X221144580Y-93404761D02*
X221239819Y-93404761D01*
X220239819Y-93023809D02*
X220239819Y-92404762D01*
X220239819Y-92404762D02*
X220620771Y-92738095D01*
X220620771Y-92738095D02*
X220620771Y-92595238D01*
X220620771Y-92595238D02*
X220668390Y-92500000D01*
X220668390Y-92500000D02*
X220716009Y-92452381D01*
X220716009Y-92452381D02*
X220811247Y-92404762D01*
X220811247Y-92404762D02*
X221049342Y-92404762D01*
X221049342Y-92404762D02*
X221144580Y-92452381D01*
X221144580Y-92452381D02*
X221192200Y-92500000D01*
X221192200Y-92500000D02*
X221239819Y-92595238D01*
X221239819Y-92595238D02*
X221239819Y-92880952D01*
X221239819Y-92880952D02*
X221192200Y-92976190D01*
X221192200Y-92976190D02*
X221144580Y-93023809D01*
X221239819Y-91976190D02*
X220239819Y-91976190D01*
X220858866Y-91880952D02*
X221239819Y-91595238D01*
X220573152Y-91595238D02*
X220954104Y-91976190D01*
X196061901Y-58200456D02*
X196109520Y-58152837D01*
X196109520Y-58152837D02*
X196204758Y-58105218D01*
X196204758Y-58105218D02*
X196442853Y-58105218D01*
X196442853Y-58105218D02*
X196538091Y-58152837D01*
X196538091Y-58152837D02*
X196585710Y-58200456D01*
X196585710Y-58200456D02*
X196633329Y-58295694D01*
X196633329Y-58295694D02*
X196633329Y-58390932D01*
X196633329Y-58390932D02*
X196585710Y-58533789D01*
X196585710Y-58533789D02*
X196014282Y-59105218D01*
X196014282Y-59105218D02*
X196633329Y-59105218D01*
X197490472Y-58105218D02*
X197299996Y-58105218D01*
X197299996Y-58105218D02*
X197204758Y-58152837D01*
X197204758Y-58152837D02*
X197157139Y-58200456D01*
X197157139Y-58200456D02*
X197061901Y-58343313D01*
X197061901Y-58343313D02*
X197014282Y-58533789D01*
X197014282Y-58533789D02*
X197014282Y-58914741D01*
X197014282Y-58914741D02*
X197061901Y-59009979D01*
X197061901Y-59009979D02*
X197109520Y-59057599D01*
X197109520Y-59057599D02*
X197204758Y-59105218D01*
X197204758Y-59105218D02*
X197395234Y-59105218D01*
X197395234Y-59105218D02*
X197490472Y-59057599D01*
X197490472Y-59057599D02*
X197538091Y-59009979D01*
X197538091Y-59009979D02*
X197585710Y-58914741D01*
X197585710Y-58914741D02*
X197585710Y-58676646D01*
X197585710Y-58676646D02*
X197538091Y-58581408D01*
X197538091Y-58581408D02*
X197490472Y-58533789D01*
X197490472Y-58533789D02*
X197395234Y-58486170D01*
X197395234Y-58486170D02*
X197204758Y-58486170D01*
X197204758Y-58486170D02*
X197109520Y-58533789D01*
X197109520Y-58533789D02*
X197061901Y-58581408D01*
X197061901Y-58581408D02*
X197014282Y-58676646D01*
X198204758Y-58105218D02*
X198299996Y-58105218D01*
X198299996Y-58105218D02*
X198395234Y-58152837D01*
X198395234Y-58152837D02*
X198442853Y-58200456D01*
X198442853Y-58200456D02*
X198490472Y-58295694D01*
X198490472Y-58295694D02*
X198538091Y-58486170D01*
X198538091Y-58486170D02*
X198538091Y-58724265D01*
X198538091Y-58724265D02*
X198490472Y-58914741D01*
X198490472Y-58914741D02*
X198442853Y-59009979D01*
X198442853Y-59009979D02*
X198395234Y-59057599D01*
X198395234Y-59057599D02*
X198299996Y-59105218D01*
X198299996Y-59105218D02*
X198204758Y-59105218D01*
X198204758Y-59105218D02*
X198109520Y-59057599D01*
X198109520Y-59057599D02*
X198061901Y-59009979D01*
X198061901Y-59009979D02*
X198014282Y-58914741D01*
X198014282Y-58914741D02*
X197966663Y-58724265D01*
X197966663Y-58724265D02*
X197966663Y-58486170D01*
X197966663Y-58486170D02*
X198014282Y-58295694D01*
X198014282Y-58295694D02*
X198061901Y-58200456D01*
X198061901Y-58200456D02*
X198109520Y-58152837D01*
X198109520Y-58152837D02*
X198204758Y-58105218D01*
X199490472Y-59105218D02*
X198919044Y-59105218D01*
X199204758Y-59105218D02*
X199204758Y-58105218D01*
X199204758Y-58105218D02*
X199109520Y-58248075D01*
X199109520Y-58248075D02*
X199014282Y-58343313D01*
X199014282Y-58343313D02*
X198919044Y-58390932D01*
X199919044Y-58724265D02*
X200680949Y-58724265D01*
X201061901Y-58105218D02*
X201680948Y-58105218D01*
X201680948Y-58105218D02*
X201347615Y-58486170D01*
X201347615Y-58486170D02*
X201490472Y-58486170D01*
X201490472Y-58486170D02*
X201585710Y-58533789D01*
X201585710Y-58533789D02*
X201633329Y-58581408D01*
X201633329Y-58581408D02*
X201680948Y-58676646D01*
X201680948Y-58676646D02*
X201680948Y-58914741D01*
X201680948Y-58914741D02*
X201633329Y-59009979D01*
X201633329Y-59009979D02*
X201585710Y-59057599D01*
X201585710Y-59057599D02*
X201490472Y-59105218D01*
X201490472Y-59105218D02*
X201204758Y-59105218D01*
X201204758Y-59105218D02*
X201109520Y-59057599D01*
X201109520Y-59057599D02*
X201061901Y-59009979D01*
X202633329Y-59105218D02*
X202061901Y-59105218D01*
X202347615Y-59105218D02*
X202347615Y-58105218D01*
X202347615Y-58105218D02*
X202252377Y-58248075D01*
X202252377Y-58248075D02*
X202157139Y-58343313D01*
X202157139Y-58343313D02*
X202061901Y-58390932D01*
X203252377Y-58105218D02*
X203347615Y-58105218D01*
X203347615Y-58105218D02*
X203442853Y-58152837D01*
X203442853Y-58152837D02*
X203490472Y-58200456D01*
X203490472Y-58200456D02*
X203538091Y-58295694D01*
X203538091Y-58295694D02*
X203585710Y-58486170D01*
X203585710Y-58486170D02*
X203585710Y-58724265D01*
X203585710Y-58724265D02*
X203538091Y-58914741D01*
X203538091Y-58914741D02*
X203490472Y-59009979D01*
X203490472Y-59009979D02*
X203442853Y-59057599D01*
X203442853Y-59057599D02*
X203347615Y-59105218D01*
X203347615Y-59105218D02*
X203252377Y-59105218D01*
X203252377Y-59105218D02*
X203157139Y-59057599D01*
X203157139Y-59057599D02*
X203109520Y-59009979D01*
X203109520Y-59009979D02*
X203061901Y-58914741D01*
X203061901Y-58914741D02*
X203014282Y-58724265D01*
X203014282Y-58724265D02*
X203014282Y-58486170D01*
X203014282Y-58486170D02*
X203061901Y-58295694D01*
X203061901Y-58295694D02*
X203109520Y-58200456D01*
X203109520Y-58200456D02*
X203157139Y-58152837D01*
X203157139Y-58152837D02*
X203252377Y-58105218D01*
X204157139Y-58533789D02*
X204061901Y-58486170D01*
X204061901Y-58486170D02*
X204014282Y-58438551D01*
X204014282Y-58438551D02*
X203966663Y-58343313D01*
X203966663Y-58343313D02*
X203966663Y-58295694D01*
X203966663Y-58295694D02*
X204014282Y-58200456D01*
X204014282Y-58200456D02*
X204061901Y-58152837D01*
X204061901Y-58152837D02*
X204157139Y-58105218D01*
X204157139Y-58105218D02*
X204347615Y-58105218D01*
X204347615Y-58105218D02*
X204442853Y-58152837D01*
X204442853Y-58152837D02*
X204490472Y-58200456D01*
X204490472Y-58200456D02*
X204538091Y-58295694D01*
X204538091Y-58295694D02*
X204538091Y-58343313D01*
X204538091Y-58343313D02*
X204490472Y-58438551D01*
X204490472Y-58438551D02*
X204442853Y-58486170D01*
X204442853Y-58486170D02*
X204347615Y-58533789D01*
X204347615Y-58533789D02*
X204157139Y-58533789D01*
X204157139Y-58533789D02*
X204061901Y-58581408D01*
X204061901Y-58581408D02*
X204014282Y-58629027D01*
X204014282Y-58629027D02*
X203966663Y-58724265D01*
X203966663Y-58724265D02*
X203966663Y-58914741D01*
X203966663Y-58914741D02*
X204014282Y-59009979D01*
X204014282Y-59009979D02*
X204061901Y-59057599D01*
X204061901Y-59057599D02*
X204157139Y-59105218D01*
X204157139Y-59105218D02*
X204347615Y-59105218D01*
X204347615Y-59105218D02*
X204442853Y-59057599D01*
X204442853Y-59057599D02*
X204490472Y-59009979D01*
X204490472Y-59009979D02*
X204538091Y-58914741D01*
X204538091Y-58914741D02*
X204538091Y-58724265D01*
X204538091Y-58724265D02*
X204490472Y-58629027D01*
X204490472Y-58629027D02*
X204442853Y-58581408D01*
X204442853Y-58581408D02*
X204347615Y-58533789D01*
X152425844Y-93928571D02*
X153092511Y-93928571D01*
X152044892Y-94166666D02*
X152759177Y-94404761D01*
X152759177Y-94404761D02*
X152759177Y-93785714D01*
X152997272Y-93404761D02*
X153044892Y-93357142D01*
X153044892Y-93357142D02*
X153092511Y-93404761D01*
X153092511Y-93404761D02*
X153044892Y-93452380D01*
X153044892Y-93452380D02*
X152997272Y-93404761D01*
X152997272Y-93404761D02*
X153092511Y-93404761D01*
X152092511Y-93023809D02*
X152092511Y-92404762D01*
X152092511Y-92404762D02*
X152473463Y-92738095D01*
X152473463Y-92738095D02*
X152473463Y-92595238D01*
X152473463Y-92595238D02*
X152521082Y-92500000D01*
X152521082Y-92500000D02*
X152568701Y-92452381D01*
X152568701Y-92452381D02*
X152663939Y-92404762D01*
X152663939Y-92404762D02*
X152902034Y-92404762D01*
X152902034Y-92404762D02*
X152997272Y-92452381D01*
X152997272Y-92452381D02*
X153044892Y-92500000D01*
X153044892Y-92500000D02*
X153092511Y-92595238D01*
X153092511Y-92595238D02*
X153092511Y-92880952D01*
X153092511Y-92880952D02*
X153044892Y-92976190D01*
X153044892Y-92976190D02*
X152997272Y-93023809D01*
X153092511Y-91976190D02*
X152092511Y-91976190D01*
X152711558Y-91880952D02*
X153092511Y-91595238D01*
X152425844Y-91595238D02*
X152806796Y-91976190D01*
D14*
%TO.C,R26*%
X221700000Y-73639564D02*
X221700000Y-73185436D01*
X223170000Y-73639564D02*
X223170000Y-73185436D01*
%TO.C,U13*%
X210993076Y-78902500D02*
X210993076Y-84202500D01*
X210993076Y-84202500D02*
X216193076Y-84202500D01*
X216193076Y-78902500D02*
X210993076Y-78902500D01*
X216193076Y-80552500D02*
X216193076Y-78902500D01*
X216193076Y-84202500D02*
X216193076Y-82552500D01*
X216193076Y-82552500D02*
G75*
G02*
X216193076Y-80552500I0J1000000D01*
G01*
%TO.C,D1*%
X123040000Y-87815000D02*
X123040000Y-90500000D01*
X124960000Y-87815000D02*
X123040000Y-87815000D01*
X124960000Y-90500000D02*
X124960000Y-87815000D01*
%TO.C,D13*%
X213903076Y-87815000D02*
X213903076Y-90500000D01*
X215823076Y-87815000D02*
X213903076Y-87815000D01*
X215823076Y-90500000D02*
X215823076Y-87815000D01*
%TO.C,D3*%
X138183846Y-87815000D02*
X138183846Y-90500000D01*
X140103846Y-87815000D02*
X138183846Y-87815000D01*
X140103846Y-90500000D02*
X140103846Y-87815000D01*
%TO.C,R6*%
X130836923Y-92772936D02*
X130836923Y-93227064D01*
X132306923Y-92772936D02*
X132306923Y-93227064D01*
%TO.C,R1*%
X123265000Y-73639564D02*
X123265000Y-73185436D01*
X124735000Y-73639564D02*
X124735000Y-73185436D01*
%TO.C,R9*%
X153552692Y-73639564D02*
X153552692Y-73185436D01*
X155022692Y-73639564D02*
X155022692Y-73185436D01*
%TO.C,D2*%
X130611923Y-87815000D02*
X130611923Y-90500000D01*
X132531923Y-87815000D02*
X130611923Y-87815000D01*
X132531923Y-90500000D02*
X132531923Y-87815000D01*
%TO.C,U6*%
X157989615Y-78902500D02*
X157989615Y-84202500D01*
X157989615Y-84202500D02*
X163189615Y-84202500D01*
X163189615Y-78902500D02*
X157989615Y-78902500D01*
X163189615Y-80552500D02*
X163189615Y-78902500D01*
X163189615Y-84202500D02*
X163189615Y-82552500D01*
X163189615Y-82552500D02*
G75*
G02*
X163189615Y-80552500I0J1000000D01*
G01*
%TO.C,D10*%
X191187307Y-87815000D02*
X191187307Y-90500000D01*
X193107307Y-87815000D02*
X191187307Y-87815000D01*
X193107307Y-90500000D02*
X193107307Y-87815000D01*
%TO.C,U14*%
X218565000Y-78902500D02*
X218565000Y-84202500D01*
X218565000Y-84202500D02*
X223765000Y-84202500D01*
X223765000Y-78902500D02*
X218565000Y-78902500D01*
X223765000Y-80552500D02*
X223765000Y-78902500D01*
X223765000Y-84202500D02*
X223765000Y-82552500D01*
X223765000Y-82552500D02*
G75*
G02*
X223765000Y-80552500I0J1000000D01*
G01*
D13*
%TO.C,J4*%
X128500000Y-100244500D02*
X128500000Y-97755500D01*
X212320000Y-97755500D02*
X128500000Y-97755500D01*
X212320000Y-97755500D02*
X212320000Y-100244500D01*
X212320000Y-100244500D02*
X128500000Y-100244500D01*
X213070000Y-99000000D02*
G75*
G02*
X212870000Y-99000000I-100000J0D01*
G01*
X212870000Y-99000000D02*
G75*
G02*
X213070000Y-99000000I100000J0D01*
G01*
D14*
%TO.C,U9*%
X180705384Y-78902500D02*
X180705384Y-84202500D01*
X180705384Y-84202500D02*
X185905384Y-84202500D01*
X185905384Y-78902500D02*
X180705384Y-78902500D01*
X185905384Y-80552500D02*
X185905384Y-78902500D01*
X185905384Y-84202500D02*
X185905384Y-82552500D01*
X185905384Y-82552500D02*
G75*
G02*
X185905384Y-80552500I0J1000000D01*
G01*
%TO.C,D12*%
X206331153Y-87815000D02*
X206331153Y-90500000D01*
X208251153Y-87815000D02*
X206331153Y-87815000D01*
X208251153Y-90500000D02*
X208251153Y-87815000D01*
%TO.C,R3*%
X138408846Y-73639564D02*
X138408846Y-73185436D01*
X139878846Y-73639564D02*
X139878846Y-73185436D01*
%TO.C,D6*%
X160899615Y-87815000D02*
X160899615Y-90500000D01*
X162819615Y-87815000D02*
X160899615Y-87815000D01*
X162819615Y-90500000D02*
X162819615Y-87815000D01*
%TO.C,R14*%
X161124615Y-92772936D02*
X161124615Y-93227064D01*
X162594615Y-92772936D02*
X162594615Y-93227064D01*
%TO.C,R16*%
X176265000Y-92772936D02*
X176265000Y-93227064D01*
X177735000Y-92772936D02*
X177735000Y-93227064D01*
%TO.C,R11*%
X168696538Y-73639564D02*
X168696538Y-73185436D01*
X170166538Y-73639564D02*
X170166538Y-73185436D01*
%TO.C,D14*%
X221475000Y-87815000D02*
X221475000Y-90500000D01*
X223395000Y-87815000D02*
X221475000Y-87815000D01*
X223395000Y-90500000D02*
X223395000Y-87815000D01*
%TO.C,U10*%
X188277307Y-78902500D02*
X188277307Y-84202500D01*
X188277307Y-84202500D02*
X193477307Y-84202500D01*
X193477307Y-78902500D02*
X188277307Y-78902500D01*
X193477307Y-80552500D02*
X193477307Y-78902500D01*
X193477307Y-84202500D02*
X193477307Y-82552500D01*
X193477307Y-82552500D02*
G75*
G02*
X193477307Y-80552500I0J1000000D01*
G01*
%TO.C,U12*%
X203421153Y-78902500D02*
X203421153Y-84202500D01*
X203421153Y-84202500D02*
X208621153Y-84202500D01*
X208621153Y-78902500D02*
X203421153Y-78902500D01*
X208621153Y-80552500D02*
X208621153Y-78902500D01*
X208621153Y-84202500D02*
X208621153Y-82552500D01*
X208621153Y-82552500D02*
G75*
G02*
X208621153Y-80552500I0J1000000D01*
G01*
%TO.C,J2*%
X218170000Y-105330000D02*
X218170000Y-104000000D01*
X219500000Y-105330000D02*
X218170000Y-105330000D01*
X220770000Y-102670000D02*
X225910000Y-102670000D01*
X220770000Y-105330000D02*
X220770000Y-102670000D01*
X220770000Y-105330000D02*
X225910000Y-105330000D01*
X225910000Y-105330000D02*
X225910000Y-102670000D01*
%TO.C,D11*%
X198759230Y-87815000D02*
X198759230Y-90500000D01*
X200679230Y-87815000D02*
X198759230Y-87815000D01*
X200679230Y-90500000D02*
X200679230Y-87815000D01*
%TO.C,D9*%
X183615384Y-87815000D02*
X183615384Y-90500000D01*
X185535384Y-87815000D02*
X183615384Y-87815000D01*
X185535384Y-90500000D02*
X185535384Y-87815000D01*
%TO.C,J1*%
X118170000Y-102670000D02*
X118170000Y-105330000D01*
X123310000Y-102670000D02*
X118170000Y-102670000D01*
X123310000Y-102670000D02*
X123310000Y-105330000D01*
X123310000Y-105330000D02*
X118170000Y-105330000D01*
X124580000Y-102670000D02*
X125910000Y-102670000D01*
X125910000Y-102670000D02*
X125910000Y-104000000D01*
%TO.C,R7*%
X138408846Y-92772936D02*
X138408846Y-93227064D01*
X139878846Y-92772936D02*
X139878846Y-93227064D01*
%TO.C,R2*%
X130836923Y-73639564D02*
X130836923Y-73185436D01*
X132306923Y-73639564D02*
X132306923Y-73185436D01*
%TO.C,R18*%
X191412307Y-73639564D02*
X191412307Y-73185436D01*
X192882307Y-73639564D02*
X192882307Y-73185436D01*
D15*
%TO.C,J5*%
X128330904Y-61199999D02*
G75*
G02*
X127568904Y-61199999I-381000J0D01*
G01*
X127568904Y-61199999D02*
G75*
G02*
X128330904Y-61199999I381000J0D01*
G01*
D16*
X159354896Y-66649998D02*
X159354896Y-53899998D01*
X129854903Y-66649998D02*
X159354896Y-66649998D01*
X129854903Y-53899998D02*
X159354896Y-53899998D01*
X129854903Y-53899998D02*
X129854903Y-66649998D01*
X129854902Y-64049998D02*
X129104903Y-64049998D01*
X129854902Y-55999999D02*
X129104903Y-55999999D01*
X129104903Y-55999999D02*
X129104903Y-64049998D01*
D14*
%TO.C,U7*%
X165561538Y-78902500D02*
X165561538Y-84202500D01*
X165561538Y-84202500D02*
X170761538Y-84202500D01*
X170761538Y-78902500D02*
X165561538Y-78902500D01*
X170761538Y-80552500D02*
X170761538Y-78902500D01*
X170761538Y-84202500D02*
X170761538Y-82552500D01*
X170761538Y-82552500D02*
G75*
G02*
X170761538Y-80552500I0J1000000D01*
G01*
%TO.C,D5*%
X153327692Y-87815000D02*
X153327692Y-90500000D01*
X155247692Y-87815000D02*
X153327692Y-87815000D01*
X155247692Y-90500000D02*
X155247692Y-87815000D01*
%TO.C,R21*%
X183840384Y-92772936D02*
X183840384Y-93227064D01*
X185310384Y-92772936D02*
X185310384Y-93227064D01*
%TO.C,U8*%
X173133461Y-78902500D02*
X173133461Y-84202500D01*
X173133461Y-84202500D02*
X178333461Y-84202500D01*
X178333461Y-78902500D02*
X173133461Y-78902500D01*
X178333461Y-80552500D02*
X178333461Y-78902500D01*
X178333461Y-84202500D02*
X178333461Y-82552500D01*
X178333461Y-82552500D02*
G75*
G02*
X178333461Y-80552500I0J1000000D01*
G01*
%TO.C,R20*%
X206556153Y-73639564D02*
X206556153Y-73185436D01*
X208026153Y-73639564D02*
X208026153Y-73185436D01*
%TO.C,R19*%
X198984230Y-73639564D02*
X198984230Y-73185436D01*
X200454230Y-73639564D02*
X200454230Y-73185436D01*
%TO.C,R4*%
X145980769Y-73639564D02*
X145980769Y-73185436D01*
X147450769Y-73639564D02*
X147450769Y-73185436D01*
%TO.C,D4*%
X145755769Y-87815000D02*
X145755769Y-90500000D01*
X147675769Y-87815000D02*
X145755769Y-87815000D01*
X147675769Y-90500000D02*
X147675769Y-87815000D01*
%TO.C,R15*%
X168696538Y-92772936D02*
X168696538Y-93227064D01*
X170166538Y-92772936D02*
X170166538Y-93227064D01*
%TO.C,U11*%
X195849230Y-78902500D02*
X195849230Y-84202500D01*
X195849230Y-84202500D02*
X201049230Y-84202500D01*
X201049230Y-78902500D02*
X195849230Y-78902500D01*
X201049230Y-80552500D02*
X201049230Y-78902500D01*
X201049230Y-84202500D02*
X201049230Y-82552500D01*
X201049230Y-82552500D02*
G75*
G02*
X201049230Y-80552500I0J1000000D01*
G01*
%TO.C,U5*%
X150417692Y-78902500D02*
X150417692Y-84202500D01*
X150417692Y-84202500D02*
X155617692Y-84202500D01*
X155617692Y-78902500D02*
X150417692Y-78902500D01*
X155617692Y-80552500D02*
X155617692Y-78902500D01*
X155617692Y-84202500D02*
X155617692Y-82552500D01*
X155617692Y-82552500D02*
G75*
G02*
X155617692Y-80552500I0J1000000D01*
G01*
%TO.C,D8*%
X176043461Y-87815000D02*
X176043461Y-90500000D01*
X177963461Y-87815000D02*
X176043461Y-87815000D01*
X177963461Y-90500000D02*
X177963461Y-87815000D01*
%TO.C,U1*%
X120130000Y-78902500D02*
X120130000Y-84202500D01*
X120130000Y-84202500D02*
X125330000Y-84202500D01*
X125330000Y-78902500D02*
X120130000Y-78902500D01*
X125330000Y-80552500D02*
X125330000Y-78902500D01*
X125330000Y-84202500D02*
X125330000Y-82552500D01*
X125330000Y-82552500D02*
G75*
G02*
X125330000Y-80552500I0J1000000D01*
G01*
%TO.C,D7*%
X168471538Y-87815000D02*
X168471538Y-90500000D01*
X170391538Y-87815000D02*
X168471538Y-87815000D01*
X170391538Y-90500000D02*
X170391538Y-87815000D01*
%TO.C,R17*%
X183840384Y-73639564D02*
X183840384Y-73185436D01*
X185310384Y-73639564D02*
X185310384Y-73185436D01*
%TO.C,R24*%
X206556153Y-92772936D02*
X206556153Y-93227064D01*
X208026153Y-92772936D02*
X208026153Y-93227064D01*
%TO.C,R10*%
X161124615Y-73639564D02*
X161124615Y-73185436D01*
X162594615Y-73639564D02*
X162594615Y-73185436D01*
%TO.C,R12*%
X176268461Y-73639564D02*
X176268461Y-73185436D01*
X177738461Y-73639564D02*
X177738461Y-73185436D01*
%TO.C,R8*%
X145980769Y-92772936D02*
X145980769Y-93227064D01*
X147450769Y-92772936D02*
X147450769Y-93227064D01*
%TO.C,R22*%
X191412307Y-92772936D02*
X191412307Y-93227064D01*
X192882307Y-92772936D02*
X192882307Y-93227064D01*
%TO.C,R23*%
X198984230Y-92772936D02*
X198984230Y-93227064D01*
X200454230Y-92772936D02*
X200454230Y-93227064D01*
%TO.C,R5*%
X123265000Y-92772936D02*
X123265000Y-93227064D01*
X124735000Y-92772936D02*
X124735000Y-93227064D01*
%TO.C,U3*%
X135273846Y-78902500D02*
X135273846Y-84202500D01*
X135273846Y-84202500D02*
X140473846Y-84202500D01*
X140473846Y-78902500D02*
X135273846Y-78902500D01*
X140473846Y-80552500D02*
X140473846Y-78902500D01*
X140473846Y-84202500D02*
X140473846Y-82552500D01*
X140473846Y-82552500D02*
G75*
G02*
X140473846Y-80552500I0J1000000D01*
G01*
%TO.C,U2*%
X127701923Y-78902500D02*
X127701923Y-84202500D01*
X127701923Y-84202500D02*
X132901923Y-84202500D01*
X132901923Y-78902500D02*
X127701923Y-78902500D01*
X132901923Y-80552500D02*
X132901923Y-78902500D01*
X132901923Y-84202500D02*
X132901923Y-82552500D01*
X132901923Y-82552500D02*
G75*
G02*
X132901923Y-80552500I0J1000000D01*
G01*
%TO.C,R27*%
X214128076Y-92772936D02*
X214128076Y-93227064D01*
X215598076Y-92772936D02*
X215598076Y-93227064D01*
%TO.C,U4*%
X142845769Y-78902500D02*
X142845769Y-84202500D01*
X142845769Y-84202500D02*
X148045769Y-84202500D01*
X148045769Y-78902500D02*
X142845769Y-78902500D01*
X148045769Y-80552500D02*
X148045769Y-78902500D01*
X148045769Y-84202500D02*
X148045769Y-82552500D01*
X148045769Y-82552500D02*
G75*
G02*
X148045769Y-80552500I0J1000000D01*
G01*
%TO.C,R25*%
X214128076Y-73639564D02*
X214128076Y-73185436D01*
X215598076Y-73639564D02*
X215598076Y-73185436D01*
%TO.C,R28*%
X221700000Y-92772936D02*
X221700000Y-93227064D01*
X223170000Y-92772936D02*
X223170000Y-93227064D01*
D15*
%TO.C,J6*%
X184026000Y-61128799D02*
G75*
G02*
X183264000Y-61128799I-381000J0D01*
G01*
X183264000Y-61128799D02*
G75*
G02*
X184026000Y-61128799I381000J0D01*
G01*
D16*
X215049992Y-66578798D02*
X215049992Y-53828798D01*
X185549999Y-66578798D02*
X215049992Y-66578798D01*
X185549999Y-53828798D02*
X215049992Y-53828798D01*
X185549999Y-53828798D02*
X185549999Y-66578798D01*
X185549998Y-63978798D02*
X184799999Y-63978798D01*
X185549998Y-55928799D02*
X184799999Y-55928799D01*
X184799999Y-55928799D02*
X184799999Y-63978798D01*
D14*
%TO.C,R13*%
X153552692Y-92772936D02*
X153552692Y-93227064D01*
X155022692Y-92772936D02*
X155022692Y-93227064D01*
%TD*%
%LPC*%
D17*
%TO.C,R26*%
X222435000Y-74325000D03*
X222435000Y-72500000D03*
%TD*%
D18*
%TO.C,U13*%
X214863076Y-77742500D03*
D19*
X212323076Y-77742500D03*
X212323076Y-85362500D03*
X214863076Y-85362500D03*
%TD*%
D20*
%TO.C,D1*%
X124000000Y-88562500D03*
X124000000Y-90437500D03*
%TD*%
%TO.C,D13*%
X214863076Y-88562500D03*
X214863076Y-90437500D03*
%TD*%
%TO.C,D3*%
X139143846Y-88562500D03*
X139143846Y-90437500D03*
%TD*%
D21*
%TO.C,R6*%
X131571923Y-92087500D03*
X131571923Y-93912500D03*
%TD*%
D17*
%TO.C,R1*%
X124000000Y-74325000D03*
X124000000Y-72500000D03*
%TD*%
%TO.C,R9*%
X154287692Y-74325000D03*
X154287692Y-72500000D03*
%TD*%
D20*
%TO.C,D2*%
X131571923Y-88562500D03*
X131571923Y-90437500D03*
%TD*%
D18*
%TO.C,U6*%
X161859615Y-77742500D03*
D19*
X159319615Y-77742500D03*
X159319615Y-85362500D03*
X161859615Y-85362500D03*
%TD*%
D20*
%TO.C,D10*%
X192147307Y-88562500D03*
X192147307Y-90437500D03*
%TD*%
D18*
%TO.C,U14*%
X222435000Y-77742500D03*
D19*
X219895000Y-77742500D03*
X219895000Y-85362500D03*
X222435000Y-85362500D03*
%TD*%
D22*
%TO.C,J4*%
X211050000Y-99000000D03*
D23*
X205970000Y-99000000D03*
X200890000Y-99000000D03*
X195810000Y-99000000D03*
X190730000Y-99000000D03*
X185650000Y-99000000D03*
X180570000Y-99000000D03*
X175490000Y-99000000D03*
X170410000Y-99000000D03*
X165330000Y-99000000D03*
X160250000Y-99000000D03*
X155170000Y-99000000D03*
X150090000Y-99000000D03*
X145010000Y-99000000D03*
X139930000Y-99000000D03*
X134850000Y-99000000D03*
X129770000Y-99000000D03*
%TD*%
D18*
%TO.C,U9*%
X184575384Y-77742500D03*
D19*
X182035384Y-77742500D03*
X182035384Y-85362500D03*
X184575384Y-85362500D03*
%TD*%
D20*
%TO.C,D12*%
X207291153Y-88562500D03*
X207291153Y-90437500D03*
%TD*%
D17*
%TO.C,R3*%
X139143846Y-74325000D03*
X139143846Y-72500000D03*
%TD*%
D20*
%TO.C,D6*%
X161859615Y-88562500D03*
X161859615Y-90437500D03*
%TD*%
D21*
%TO.C,R14*%
X161859615Y-92087500D03*
X161859615Y-93912500D03*
%TD*%
%TO.C,R16*%
X177000000Y-92087500D03*
X177000000Y-93912500D03*
%TD*%
D17*
%TO.C,R11*%
X169431538Y-74325000D03*
X169431538Y-72500000D03*
%TD*%
D20*
%TO.C,D14*%
X222435000Y-88562500D03*
X222435000Y-90437500D03*
%TD*%
D18*
%TO.C,U10*%
X192147307Y-77742500D03*
D19*
X189607307Y-77742500D03*
X189607307Y-85362500D03*
X192147307Y-85362500D03*
%TD*%
D18*
%TO.C,U12*%
X207291153Y-77742500D03*
D19*
X204751153Y-77742500D03*
X204751153Y-85362500D03*
X207291153Y-85362500D03*
%TD*%
D24*
%TO.C,J2*%
X219500000Y-104000000D03*
D25*
X222040000Y-104000000D03*
X224580000Y-104000000D03*
%TD*%
D20*
%TO.C,D11*%
X199719230Y-88562500D03*
X199719230Y-90437500D03*
%TD*%
%TO.C,D9*%
X184575384Y-88562500D03*
X184575384Y-90437500D03*
%TD*%
D24*
%TO.C,J1*%
X124580000Y-104000000D03*
D25*
X122040000Y-104000000D03*
X119500000Y-104000000D03*
%TD*%
D21*
%TO.C,R7*%
X139143846Y-92087500D03*
X139143846Y-93912500D03*
%TD*%
D17*
%TO.C,R2*%
X131571923Y-74325000D03*
X131571923Y-72500000D03*
%TD*%
%TO.C,R18*%
X192147307Y-74325000D03*
X192147307Y-72500000D03*
%TD*%
D26*
%TO.C,J5*%
X156804904Y-61180799D03*
X156804904Y-56180799D03*
X153304903Y-61180799D03*
X153304903Y-56180799D03*
X149804902Y-61180799D03*
X149804902Y-56180799D03*
X146304902Y-61180799D03*
X146304902Y-56180799D03*
X142804901Y-61180799D03*
X142804901Y-56180799D03*
X139304901Y-61180799D03*
X139304901Y-56180799D03*
X135804900Y-61180799D03*
X135804900Y-56180799D03*
X132304899Y-61180799D03*
X132304899Y-56180799D03*
%TD*%
D18*
%TO.C,U7*%
X169431538Y-77742500D03*
D19*
X166891538Y-77742500D03*
X166891538Y-85362500D03*
X169431538Y-85362500D03*
%TD*%
D20*
%TO.C,D5*%
X154287692Y-88562500D03*
X154287692Y-90437500D03*
%TD*%
D21*
%TO.C,R21*%
X184575384Y-92087500D03*
X184575384Y-93912500D03*
%TD*%
D18*
%TO.C,U8*%
X177003461Y-77742500D03*
D19*
X174463461Y-77742500D03*
X174463461Y-85362500D03*
X177003461Y-85362500D03*
%TD*%
D17*
%TO.C,R20*%
X207291153Y-74325000D03*
X207291153Y-72500000D03*
%TD*%
%TO.C,R19*%
X199719230Y-74325000D03*
X199719230Y-72500000D03*
%TD*%
%TO.C,R4*%
X146715769Y-74325000D03*
X146715769Y-72500000D03*
%TD*%
D20*
%TO.C,D4*%
X146715769Y-88562500D03*
X146715769Y-90437500D03*
%TD*%
D21*
%TO.C,R15*%
X169431538Y-92087500D03*
X169431538Y-93912500D03*
%TD*%
D18*
%TO.C,U11*%
X199719230Y-77742500D03*
D19*
X197179230Y-77742500D03*
X197179230Y-85362500D03*
X199719230Y-85362500D03*
%TD*%
D18*
%TO.C,U5*%
X154287692Y-77742500D03*
D19*
X151747692Y-77742500D03*
X151747692Y-85362500D03*
X154287692Y-85362500D03*
%TD*%
D20*
%TO.C,D8*%
X177003461Y-88562500D03*
X177003461Y-90437500D03*
%TD*%
D18*
%TO.C,U1*%
X124000000Y-77742500D03*
D19*
X121460000Y-77742500D03*
X121460000Y-85362500D03*
X124000000Y-85362500D03*
%TD*%
D20*
%TO.C,D7*%
X169431538Y-88562500D03*
X169431538Y-90437500D03*
%TD*%
D17*
%TO.C,R17*%
X184575384Y-74325000D03*
X184575384Y-72500000D03*
%TD*%
D21*
%TO.C,R24*%
X207291153Y-92087500D03*
X207291153Y-93912500D03*
%TD*%
D17*
%TO.C,R10*%
X161859615Y-74325000D03*
X161859615Y-72500000D03*
%TD*%
%TO.C,R12*%
X177003461Y-74325000D03*
X177003461Y-72500000D03*
%TD*%
D21*
%TO.C,R8*%
X146715769Y-92087500D03*
X146715769Y-93912500D03*
%TD*%
%TO.C,R22*%
X192147307Y-92087500D03*
X192147307Y-93912500D03*
%TD*%
%TO.C,R23*%
X199719230Y-92087500D03*
X199719230Y-93912500D03*
%TD*%
%TO.C,R5*%
X124000000Y-92087500D03*
X124000000Y-93912500D03*
%TD*%
D18*
%TO.C,U3*%
X139143846Y-77742500D03*
D19*
X136603846Y-77742500D03*
X136603846Y-85362500D03*
X139143846Y-85362500D03*
%TD*%
D18*
%TO.C,U2*%
X131571923Y-77742500D03*
D19*
X129031923Y-77742500D03*
X129031923Y-85362500D03*
X131571923Y-85362500D03*
%TD*%
D21*
%TO.C,R27*%
X214863076Y-92087500D03*
X214863076Y-93912500D03*
%TD*%
D18*
%TO.C,U4*%
X146715769Y-77742500D03*
D19*
X144175769Y-77742500D03*
X144175769Y-85362500D03*
X146715769Y-85362500D03*
%TD*%
D17*
%TO.C,R25*%
X214863076Y-74325000D03*
X214863076Y-72500000D03*
%TD*%
D21*
%TO.C,R28*%
X222435000Y-92087500D03*
X222435000Y-93912500D03*
%TD*%
D26*
%TO.C,J6*%
X212500000Y-61150399D03*
X212500000Y-56150399D03*
X208999999Y-61150399D03*
X208999999Y-56150399D03*
X205499998Y-61150399D03*
X205499998Y-56150399D03*
X201999998Y-61150399D03*
X201999998Y-56150399D03*
X198499997Y-61150399D03*
X198499997Y-56150399D03*
X194999997Y-61150399D03*
X194999997Y-56150399D03*
X191499996Y-61150399D03*
X191499996Y-56150399D03*
X187999995Y-61150399D03*
X187999995Y-56150399D03*
%TD*%
D21*
%TO.C,R13*%
X154287692Y-92087500D03*
X154287692Y-93912500D03*
%TD*%
%LPD*%
M02*
